<svg height="60" viewBox="0 0 251 60" width="251" xmlns="http://www.w3.org/2000/svg"><path d="m413.359375 448.058594c1.218756 1.07813 3.433578 1.617187 6.644531 1.617187 3.468768 0 6.433582-1.218738 8.894532-3.65625.304689-.328126.925776-1.054682 1.863281-2.179687l7.277343 2.601562c-1.781258 2.46095-3.070308 4.08984-3.867187 4.886719-3.914082 3.914082-8.636691 5.871094-14.167969 5.871094-5.50784 0-10.21873-1.957012-14.132812-5.871094s-5.871094-8.636691-5.871094-14.167969c0-5.531277 1.957012-10.253886 5.871094-14.167968 3.914082-3.914083 8.624972-5.871094 14.132812-5.871094 4.734399 0 8.882795 1.429673 12.445313 4.289062.58594.49219 1.160153 1.019529 1.722656 1.582032.234376.234376.902338.97265 2.003906 2.214843l-3.65625 3.691407zm12.164063-22.5c-.820317-.632816-2.660142-.949219-5.519532-.949219-3.445329 0-6.392566 1.224597-8.841797 3.673828s-3.673828 5.408186-3.673828 8.876953c0 2.835952.316403 4.675777.949219 5.519532zm23.865624 4.21875v26.472656h-7.3125v-36.175781h7.3125v4.21875c1.523446-4.125021 4.582009-6.1875 9.175782-6.1875 3.914082 0 7.025379 1.388658 9.333984 4.166015 2.308605 2.777358 3.498047 6.263651 3.568359 10.458985v23.519531h-7.277343v-23.238281c0-2.085948-.761711-3.87304-2.285157-5.361328-1.523445-1.488289-3.339833-2.232422-5.449218-2.232422-2.085948 0-3.890618.726555-5.414063 2.179687-.843754.867192-1.39453 1.593747-1.652344 2.179688zm32.725-9.703125v-13.570313h7.277344v13.570313h6.503906v7.277343h-6.503906v28.898438h-7.277344v-28.898438h-6.503906v-7.277343zm25.13125 4.886719c2.718764-3.679706 6.058574-5.613281 10.019531-5.800782v7.558594c-2.64845.140626-4.757804.996086-6.328125 2.566406-2.367199 2.343762-3.597655 5.132797-3.691406 8.367188v18.597656h-7.277344v-36.175781h7.277344zm44.045313 14.90625v-5.34375c-.421877-2.273449-1.546866-4.335929-3.375-6.1875-2.46095-2.437513-5.414046-3.65625-8.859375-3.65625-3.468768 0-6.427723 1.218737-8.876954 3.65625-2.449231 2.437512-3.673828 5.390607-3.673828 8.859374 0 3.44533 1.224597 6.392566 3.673828 8.841797s5.408186 3.673829 8.876954 3.673829c3.445329 0 6.398425-1.218738 8.859375-3.65625 1.828134-1.851572 2.953123-3.914052 3.375-6.1875zm0-17.261719v-2.53125h7.3125v36.210937h-7.3125v-4.535156c-3.515643 3.632831-7.593727 5.449219-12.234375 5.449219-5.531278 0-10.248028-1.951153-14.150391-5.853516s-5.853516-8.619113-5.853516-14.150391c0-5.531277 1.951153-10.248027 5.853516-14.15039s8.619113-5.853516 14.150391-5.853516c4.640648 0 8.718732 1.80467 12.234375 5.414063zm44.889062 17.261719v-5.378907c-.421877-2.273449-1.558584-4.335928-3.410156-6.1875-2.437512-2.46095-5.390608-3.691406-8.859375-3.691406-3.468768 0-6.427722 1.230456-8.876953 3.691406s-3.673828 5.414046-3.673828 8.859375c0 3.468768 1.224597 6.421863 3.673828 8.859375s5.408185 3.65625 8.876953 3.65625c3.468767 0 6.421863-1.218738 8.859375-3.65625 1.851572-1.851572 2.988279-3.902332 3.410156-6.152343zm0-17.296876v-22.570312h7.3125v56.25h-7.3125v-4.5c-3.515643 3.632831-7.605445 5.449219-12.269531 5.449219-5.531278 0-10.248028-1.957012-14.150391-5.871094s-5.853515-8.636691-5.853515-14.167969c0-5.531277 1.951152-10.253886 5.853515-14.167968 3.902363-3.914083 8.619113-5.871094 14.150391-5.871094 4.664086 0 8.753888 1.816388 12.269531 5.449218zm44.81875 17.296876v-5.34375c-.421877-2.273449-1.546866-4.335929-3.375-6.1875-2.46095-2.437513-5.414045-3.65625-8.859375-3.65625-3.468767 0-6.427722 1.218737-8.876953 3.65625-2.449231 2.437512-3.673828 5.390607-3.673828 8.859374 0 3.44533 1.224597 6.392566 3.673828 8.841797s5.408186 3.673829 8.876953 3.673829c3.44533 0 6.398425-1.218738 8.859375-3.65625 1.828134-1.851572 2.953123-3.914052 3.375-6.1875zm0-17.261719v-2.53125h7.3125v36.210937h-7.3125v-4.535156c-3.515643 3.632831-7.593727 5.449219-12.234375 5.449219-5.531278 0-10.248027-1.951153-14.150391-5.853516-3.902363-3.902363-5.853515-8.619113-5.853515-14.150391 0-5.531277 1.951152-10.248027 5.853515-14.15039 3.902364-3.902363 8.619113-5.853516 14.150391-5.853516 4.640648 0 8.718732 1.80467 12.234375 5.414063z" fill="#fff" fill-rule="evenodd" stroke="#fff" stroke-width="1.8" transform="translate(-399 -399)"/></svg>