<?xml version="1.0" encoding="UTF-8"?>
<svg width="131px" height="100px" viewBox="0 0 131 100" version="1.1" xmlns="http://www.w3.org/2000/svg" xmlns:xlink="http://www.w3.org/1999/xlink">
    <!-- Generator: Sketch 51.1 (57501) - http://www.bohemiancoding.com/sketch -->
    <title>undraw_travel_plans_li0103</title>
    <desc>Created with Sketch.</desc>
    <defs></defs>
    <g id="Page-1" stroke="none" stroke-width="1" fill="none" fill-rule="evenodd">
        <g id="Custom-Preset" transform="translate(-345.000000, -57.000000)" fill-rule="nonzero">
            <g id="undraw_travel_plans_li01" transform="translate(345.000000, 57.000000)">
                <ellipse id="Oval" fill="#3F3D56" cx="110.727969" cy="96.737433" rx="19.7318008" ry="3.25670498"></ellipse>
                <path d="M127.417275,84.7470983 C127.378536,91.7438416 123.205512,94.1634891 118.074985,94.1350843 C117.955811,94.1344244 117.83722,94.1324372 117.719211,94.1291226 C117.481463,94.1226756 117.246224,94.110539 117.013494,94.0927126 C112.384835,93.7392197 108.801185,91.1511852 108.837211,84.6442299 C108.874493,77.9103372 117.527926,69.4599387 118.176852,68.8351711 C118.177415,68.8351711 118.177415,68.8351711 118.17799,68.8346066 C118.202639,68.8107957 118.215259,68.7988927 118.215259,68.7988927 C118.215259,68.7988927 127.456009,77.7509221 127.417275,84.7470983 Z" id="Shape" fill="#6C63FF"></path>
                <path d="M117.742784,93.0629693 L121.166794,88.3344151 L117.731338,93.5840715 L117.719206,94.1291188 C117.481458,94.1226718 117.246219,94.1105351 117.013489,94.0927088 L117.418304,87.0951354 L117.415757,87.0409553 L117.422078,87.0307229 L117.460527,86.3695019 L114.074932,81.0689719 L117.473535,85.8740715 L117.481313,86.0143857 L117.787132,80.727447 L114.89401,75.253447 L117.828199,79.7982465 L118.176858,68.8351711 L118.178194,68.7986884 L118.177996,68.8346066 L118.082235,77.4812056 L121.010856,74.069355 L118.065557,78.2258046 L117.962364,82.9607676 L120.705594,78.4314419 L117.947679,83.6569055 L117.890336,86.2897854 L121.869902,79.985986 L117.86986,87.2082618 L117.742784,93.0629693 Z" id="Shape" fill="#3F3D56"></path>
                <circle id="Oval" fill="#2F2E41" cx="108.870236" cy="25.3282886" r="6.21903193"></circle>
                <circle id="Oval" fill="#FFB8B8" cx="107.944593" cy="27.5008914" r="4.22320562"></circle>
                <path d="M105.433498,29.783705 C105.433498,29.783705 107.259748,34.0069106 106.346623,34.4634738 C105.433498,34.920037 104.976935,36.9745683 104.976935,36.9745683 L107.373889,41.9967599 L110.683969,44.0512937 L112.624361,44.0512937 C112.624361,44.0512937 114.564754,35.3766003 113.879909,34.3493346 C113.195065,33.322069 110.683969,32.751364 110.683969,32.751364 C110.683969,32.751364 110.113266,31.3816756 110.341548,30.126129 C110.56983,28.8705824 105.433498,29.783705 105.433498,29.783705 Z" id="Shape" fill="#FFB8B8"></path>
                <path d="M102.694125,41.7684777 L99.7264636,39.3715262 C99.7264636,39.3715262 94.3618506,35.6048838 95.0466948,38.3442593 C95.731539,41.0836347 98.8133372,41.3119183 98.8133372,41.3119183 L103.949669,45.420986 L102.694125,41.7684777 Z" id="Shape" fill="#FFB8B8"></path>
                <path d="M102.465839,54.323954 C102.465839,54.323954 101.096151,60.0309885 102.465839,67.7925568 L103.036543,70.874355 C103.036543,70.874355 103.036543,73.2713091 103.607246,74.1844355 C103.607246,74.1844355 105.091075,87.7671775 105.89006,87.7671775 C106.689045,87.7671775 109.20014,87.3106143 109.428421,86.9681928 C109.656702,86.6257714 104.976935,53.7532503 104.976935,53.7532503 L102.465839,54.323954 Z" id="Shape" fill="#2F2E41"></path>
                <path d="M102.465839,54.323954 C102.465839,54.323954 101.096151,60.0309885 102.465839,67.7925568 L103.036543,70.874355 C103.036543,70.874355 103.036543,73.2713091 103.607246,74.1844355 C103.607246,74.1844355 105.091075,87.7671775 105.89006,87.7671775 C106.689045,87.7671775 109.20014,87.3106143 109.428421,86.9681928 C109.656702,86.6257714 104.976935,53.7532503 104.976935,53.7532503 L102.465839,54.323954 Z" id="Shape" fill="#000000" opacity="0.1"></path>
                <path d="M106.214324,86.8555926 L104.446197,93.4080626 C104.446197,93.4080626 100.909943,95.488212 103.0941,95.9042414 C105.278257,96.3202708 107.462414,95.488212 107.462414,95.488212 L108.502488,92.4719923 L109.542563,91.8479476 L109.542563,95.0721801 L109.854585,95.0721801 L110.582637,90.8078736 C110.582637,90.8078736 110.47863,88.6237165 109.854585,88.4157024 C109.23054,88.2076884 108.918519,87.0636079 108.918519,87.0636079 L106.214324,86.8555926 Z" id="Shape" fill="#2F2E41"></path>
                <path d="M106.214324,86.8555926 L104.446197,93.4080626 C104.446197,93.4080626 100.909943,95.488212 103.0941,95.9042414 C105.278257,96.3202708 107.462414,95.488212 107.462414,95.488212 L108.502488,92.4719923 L109.542563,91.8479476 L109.542563,95.0721801 L109.854585,95.0721801 L110.582637,90.8078736 C110.582637,90.8078736 110.47863,88.6237165 109.854585,88.4157024 C109.23054,88.2076884 108.918519,87.0636079 108.918519,87.0636079 L106.214324,86.8555926 Z" id="Shape" fill="#000000" opacity="0.1"></path>
                <path d="M102.009277,54.0956731 C102.009277,54.0956731 102.922402,57.519894 103.264825,58.0905977 C103.264825,58.0905977 103.721387,67.7925568 105.205216,71.102636 L106.803186,75.3258416 C106.803186,75.3258416 109.428421,87.7671839 108.743577,89.1368659 C108.743577,89.1368659 112.281939,89.9358442 112.510221,89.1368659 C112.510221,89.1368659 112.39608,82.5167063 112.738502,81.6035798 C113.080923,80.6904534 113.651627,75.6682644 110.91225,72.0157625 L110.91225,60.9441149 C110.91225,60.9441149 115.249598,57.291613 112.738502,52.6118442 C110.227406,47.9320754 102.009277,54.0956731 102.009277,54.0956731 Z" id="Shape" fill="#2F2E41"></path>
                <path d="M109.086,88.4520217 L107.145608,95.6428851 C107.145608,95.6428851 103.264825,97.9256999 105.661779,98.3822618 C108.058733,98.8388238 110.455688,97.9256999 110.455688,97.9256999 L111.597095,94.6156194 L112.738502,93.9307752 L112.738502,97.4691367 L113.080925,97.4691367 L113.879909,92.7893678 C113.879909,92.7893678 113.765769,90.3924138 113.080925,90.1641328 C112.39608,89.9358519 112.053658,88.6803027 112.053658,88.6803027 L109.086,88.4520217 Z" id="Shape" fill="#2F2E41"></path>
                <path d="M106.594918,33.6110409 C106.594918,33.6110409 103.721387,35.2624585 103.721387,35.376599 C103.721387,35.4907395 104.06381,37.3169911 104.06381,37.3169911 C104.06381,37.3169911 100.525448,40.8553525 102.922402,43.9371507 C102.922402,43.9371507 103.721381,44.5078544 103.721381,46.334106 L103.721381,48.1603563 C103.721381,48.1603563 96.9870805,52.3835632 98.6991903,53.7532503 C100.4113,55.1229374 102.237552,54.8946577 102.808258,55.6936424 C103.378964,56.4926271 106.689041,55.0087982 107.373885,54.7805172 C108.058729,54.5522363 108.172871,54.323954 108.743573,55.1229387 C109.314276,55.9219234 112.510217,54.5522414 112.510217,54.5522414 C112.510217,54.5522414 114.564751,53.9815377 115.021312,53.9815377 C115.303245,53.9781411 115.579126,53.8993177 115.820298,53.7532554 L110.912252,48.7310651 L113.366275,42.5103972 C113.366275,42.5103972 106.118341,38.0018404 106.118341,36.7462925 C106.118341,35.4907446 106.594918,33.6110409 106.594918,33.6110409 Z" id="Shape" fill="#3F3D56"></path>
                <path d="M111.026392,33.8927701 C111.026392,33.8927701 109.542563,35.947304 110.683969,38.8008161 C111.825375,41.6543282 113.651627,44.9644176 113.651627,44.9644176 L110.798115,45.8775428 L108.172875,45.8775428 C108.172875,45.8775428 102.694121,44.9644176 103.264829,47.0189502 C103.835536,49.0734828 107.716315,48.1603563 107.716315,48.1603563 L109.999129,48.1603563 C109.999129,48.1603563 115.135461,48.73106 115.820305,47.8179349 C115.820305,47.8179349 117.646556,47.7037944 116.847571,44.0512925 C116.048586,40.3987905 113.715784,34.1465275 113.715784,34.1465275 L111.026392,33.8927701 Z" id="Shape" fill="#FFB8B8"></path>
                <ellipse id="Oval" fill="#2F2E41" cx="107.123317" cy="23.5813704" rx="3.98297573" ry="2.02642656"></ellipse>
                <ellipse id="Oval" fill="#FFB8B8" cx="112.110728" cy="27.2155402" rx="1" ry="1.25554789"></ellipse>
                <circle id="Oval" fill="#2F2E41" cx="111.654166" cy="19.7963946" r="3.42422095"></circle>
                <circle id="Oval" fill="#6C63FF" opacity="0.3" cx="38.697318" cy="21.3223627" r="14.0485313"></circle>
                <circle id="Oval" fill="#6C63FF" opacity="0.3" cx="11.4942529" cy="60.4028225" r="8.30140485"></circle>
                <circle id="Oval" fill="#6C63FF" opacity="0.3" cx="64.7509579" cy="60.4028225" r="16.9859515"></circle>
                <path d="M8.49605564,32.9548685 L8.19589144,32.9016117 C8.26017957,32.6506726 8.327191,32.4005662 8.39692572,32.1512925 L8.69589144,32.2092248 C8.62658229,32.456983 8.55997036,32.7055309 8.49605564,32.9548685 Z" id="Shape" fill="#6C63FF"></path>
                <path d="M88.8744215,30.8445951 C88.7434649,30.3579361 88.6012835,29.8664738 88.4521175,29.383931 L88.6960702,29.3084751 C88.846235,29.7940128 88.9892886,30.28853 89.1211188,30.7782452 L88.8744215,30.8445951 Z M8.98462452,30.7329732 L8.73817625,30.6658736 C8.87187739,30.1747241 9.01680204,29.678834 9.16896169,29.1919872 L9.41279055,29.2681916 C9.26150447,29.7520434 9.11751469,30.2448135 8.98462452,30.7329706 L8.98462452,30.7329732 Z M87.9768072,27.9423461 C87.8095568,27.4654151 87.6318301,26.9864253 87.4482414,26.5187854 L87.6859579,26.4254943 C87.8706692,26.8960026 88.0496437,27.3779847 88.2177676,27.8579106 L87.9768072,27.9423461 Z M9.89496041,27.8207446 L9.65412516,27.7355594 C9.8242401,27.2550115 10.0055249,26.7715313 10.1929808,26.2984662 L10.4304483,26.3925057 C10.2441162,26.8627024 10.0639566,27.3432516 9.89496041,27.8207446 Z M86.8671673,25.1153665 C86.6661175,24.6537126 86.4533448,24.1889413 86.234834,23.7339604 L86.4650677,23.6233333 C86.6849502,24.0811877 86.8990958,24.5488225 87.1013934,25.0133448 L86.8671673,25.1153665 Z M11.0183806,24.98547 L10.7845287,24.882576 C10.9895696,24.4164943 11.2060217,23.9479808 11.4280255,23.4900702 L11.6578851,23.6014457 C11.4372554,24.0565504 11.2221124,24.5221954 11.0183819,24.98547 L11.0183806,24.98547 Z M85.5514891,22.3763793 C85.3160166,21.929318 85.0694444,21.4812593 84.8186309,21.0446743 L85.0401354,20.9174598 C85.2924444,21.3567254 85.5406386,21.8075287 85.777484,22.2573959 L85.5514891,22.3763793 Z M12.3481481,22.2424266 L12.1225275,22.1225709 C12.3615556,21.6727625 12.6119936,21.2216513 12.8669234,20.7818863 L13.0879285,20.9099745 C12.8345632,21.3470575 12.5856207,21.7953653 12.3481481,22.2424266 Z M84.0371264,19.7405313 C83.7700996,19.3126769 83.4910996,18.8837625 83.2082337,18.4656373 L83.4197599,18.3224572 C83.7044968,18.7432031 83.9851188,19.1747982 84.2538914,19.6052158 L84.0371264,19.7405313 Z M13.876037,19.6058953 L13.6598966,19.469825 C13.9308519,19.0396015 14.2136564,18.6083167 14.5005096,18.1880089 L14.7115377,18.3319361 C14.4264368,18.749751 14.1453142,19.1783525 13.8760421,19.6058953 L13.876037,19.6058953 Z M82.3325696,17.2218595 C82.0361086,16.8162682 81.7264278,16.4087433 81.4121354,16.0106973 L81.6126858,15.8524266 C81.9288531,16.2529668 82.2403997,16.662986 82.5388672,17.0710728 L82.3325696,17.2218595 Z M15.5931916,17.0897803 L15.3876513,16.9381201 C15.6899119,16.5283499 16.0035223,16.1191418 16.3198135,15.7218442 L16.5196156,15.8808633 C16.2053257,16.2757918 15.8936488,16.6825096 15.5931967,17.0897816 L15.5931916,17.0897803 Z M80.4475479,14.8338352 C80.12053,14.449258 79.7817893,14.0653691 79.4406782,13.6928276 L79.6290064,13.5203397 C79.9722375,13.8951252 80.3130983,14.281387 80.6421111,14.6683308 L80.4475479,14.8338352 Z M17.489636,14.7068685 L17.2956948,14.5406169 C17.6263295,14.1550485 17.9689374,13.7699681 18.3140396,13.3961175 L18.5017433,13.569355 C18.1587625,13.9409591 17.818212,14.3236654 17.489636,14.7068685 Z M78.392401,12.5892375 C78.0373218,12.228857 77.6712669,11.870659 77.3043384,11.5245594 L77.479696,11.3387267 C77.8487433,11.6870026 78.2170434,12.0473883 78.5742439,12.410014 L78.392401,12.5892375 Z M19.5546347,12.4698174 L19.3734163,12.2898455 C19.7321124,11.9286552 20.1018467,11.5697714 20.4723295,11.2231724 L20.6468135,11.4096922 C20.278576,11.7541711 19.9111494,12.110871 19.5546347,12.4698174 Z M76.1777369,10.5002299 C75.7977126,10.1670383 75.4063448,9.83640358 75.0145926,9.51755556 L75.1757318,9.31949936 C75.5699732,9.64028097 75.9637165,9.9729106 76.3461098,10.3081596 L76.1777369,10.5002299 Z M21.7769068,10.3902261 L21.6092822,10.19747 C21.9931098,9.86378033 22.3879132,9.53295913 22.7829042,9.21417241 L22.943295,9.41297701 C22.5507982,9.72976373 22.1583653,10.0585939 21.7769068,10.3902261 Z M73.8157778,8.57803959 C73.4131801,8.27409579 72.998484,7.97295785 72.5834138,7.68298212 L72.7295862,7.47357727 C73.1473997,7.76536015 73.56459,8.06836909 73.9696884,8.37412261 L73.8157778,8.57803959 Z M24.1444789,8.47918902 L23.991447,8.27464751 C24.3987842,7.96983014 24.8166603,7.66887867 25.2334151,7.3801507 L25.3788391,7.59018008 C24.9646411,7.87704342 24.5493218,8.17618519 24.1444789,8.47918902 Z M71.3187458,6.83362452 C70.8939476,6.55955045 70.4580485,6.28953129 70.0233972,6.03123499 L70.1538557,5.81160153 C70.5912503,6.07158238 71.0297688,6.3432235 71.4571865,6.61898084 L71.3187458,6.83362452 Z M26.6446909,6.74719413 L26.5069987,6.53206258 C26.9349783,6.25824393 27.3736207,5.98884163 27.8107024,5.7312963 L27.9404125,5.95142784 C27.5059489,6.20734483 27.0699872,6.47512005 26.6446909,6.74719923 L26.6446909,6.74719413 Z M68.6989898,5.27699234 C68.256106,5.03528352 67.8013755,4.79806513 67.3476411,4.57194636 L67.461636,4.34333844 C67.9181137,4.57089144 68.3757139,4.80954406 68.8213397,5.05274968 L68.6989898,5.27699234 Z M29.264198,5.20390549 L29.1427203,4.97915964 C29.5892197,4.73782503 30.0463218,4.50147893 30.5011775,4.27679438 L30.6142989,4.50578544 C30.1621865,4.72909451 29.707954,4.96400511 29.264198,5.20390549 Z M65.9707254,3.91710089 C65.5108812,3.70869221 65.039811,3.50577139 64.5704866,3.31382631 L64.6671456,3.07735632 C65.1393997,3.27048659 65.6135262,3.47477905 66.0762388,3.68449681 L65.9707254,3.91710089 Z M31.9889693,3.85816986 L31.8843921,3.62519157 C32.3466066,3.41778416 32.8196092,3.21585951 33.2902427,3.02516092 L33.3861558,3.26188123 C32.9183908,3.45145594 32.4483155,3.65206897 31.9889693,3.85816986 Z M63.1482976,2.7626871 C62.672364,2.58838953 62.1872005,2.42082759 61.7062158,2.2646143 L61.7851635,2.021659 C62.2690792,2.17887484 62.7572363,2.3474917 63.2361009,2.5228493 L63.1482976,2.7626871 Z M34.8040396,2.71766284 L34.7169834,2.47757471 C35.1939157,2.30452235 35.6802631,2.13827331 36.1624342,1.98330779 L36.2405709,2.22651213 C35.7613946,2.3804802 35.2781022,2.54573436 34.8040396,2.71766284 Z M60.2462989,1.82036015 C59.7599502,1.68217369 59.2648097,1.55139464 58.7746513,1.43154278 L58.8352656,1.18347382 C59.3284725,1.3040166 59.8267318,1.435659 60.3161354,1.57466156 L60.2462989,1.82036015 Z M37.6981814,1.78774585 L37.6290881,1.54179566 C38.1178685,1.40454151 38.6164444,1.27439464 39.1110192,1.15497573 L39.1709476,1.40329374 C38.6794202,1.52196552 38.183908,1.6513014 37.6981814,1.78774585 Z M57.2896092,1.09754151 C56.7949732,0.995893997 56.2915326,0.902104725 55.7932733,0.818727969 L55.8354291,0.566793103 C56.3367433,0.650667944 56.8432963,0.745081737 57.3409936,0.847351213 L57.2896092,1.09754151 Z M40.6568659,1.07353129 L40.6062299,0.823212005 C41.1048621,0.722250319 41.6116654,0.629333333 42.1126054,0.54701788 L42.1540128,0.799079183 C41.6561941,0.88083908 41.1524432,0.973195402 40.6568659,1.07353257 L40.6568659,1.07353129 Z M54.287645,0.595166028 C53.7857688,0.530123883 53.2767893,0.473687101 52.7748455,0.427228608 L52.798355,0.172923372 C53.3034112,0.219632184 53.8155147,0.27644189 54.3204496,0.341858238 L54.287645,0.595166028 Z M43.6603244,0.580011494 L43.6282095,0.326579821 C44.1315185,0.262785441 44.6438097,0.207408685 45.1507356,0.161948914 L45.1735594,0.416378033 C44.6696897,0.461528736 44.1605798,0.516592593 43.6603257,0.580012771 L43.6603244,0.580011494 Z M51.2568084,0.314730524 C50.7534355,0.286606641 50.2417075,0.267399745 49.7357778,0.257609195 L49.7407663,0.00218135377 C50.2496897,0.0120970626 50.764599,0.0314278416 51.2710268,0.0596768838 L51.2568084,0.314730524 Z M46.6919106,0.308180077 L46.6784406,0.0531251596 C47.1856169,0.0262490421 47.7006501,0.0084137931 48.2091367,-3.83141762e-06 L48.2133768,0.25542401 C47.7079464,0.263721584 47.1960932,0.281494253 46.6919106,0.308180077 Z" id="Shape" fill="#6C63FF"></path>
                <path d="M89.4472847,33.0964304 C89.3839558,32.8468646 89.3180129,32.5981507 89.2494559,32.3502886 L89.5504213,32.2931673 C89.6196308,32.5426079 89.6859757,32.7929012 89.7494559,33.0440473 L89.4472847,33.0964304 Z" id="Shape" fill="#6C63FF"></path>
                <path d="M89.82613,49.7504342 L89.5068799,49.7009195 C89.5696178,49.4514789 89.6295501,49.2012269 89.6866768,48.9501635 L90.0068799,48.9949387 C89.9495418,49.2476232 89.8892919,49.4994551 89.82613,49.7504342 Z" id="Shape" fill="#6C63FF"></path>
                <path d="M48.9144943,83.2636143 C48.6368655,83.2636143 48.3599025,83.2609119 48.0836054,83.255507 L48.0885939,83.0000792 C48.5935249,83.0099323 49.1019489,83.0105517 49.6074419,83.0024496 L49.6115581,83.2578774 C49.3796398,83.2616194 49.1472852,83.2635317 48.9144943,83.2636143 Z M51.1386973,83.2053704 L51.1252273,82.950198 C51.6304074,82.9236335 52.1400166,82.8874636 52.6398966,82.8428135 L52.6625951,83.0972439 C52.1596628,83.1421367 51.6469361,83.1785504 51.1386973,83.2053704 Z M46.5569604,83.1980115 C46.0499706,83.1696999 45.5373691,83.1317842 45.0334355,83.0852644 L45.0568825,82.830834 C45.5578225,82.8771047 46.0673065,82.9148953 46.5711775,82.943083 L46.5569604,83.1980115 Z M54.1816309,82.933728 L54.1495747,82.6802963 C54.6523231,82.6166884 55.1579413,82.5433525 55.6523333,82.4622886 L55.6936156,82.7144738 C55.1961686,82.7959119 54.6875006,82.869622 54.1816335,82.9337229 L54.1816309,82.933728 Z M43.5148365,82.9167663 C43.0101545,82.8512886 42.5016692,82.7759566 42.00347,82.6926437 L42.0456258,82.4407075 C42.5407037,82.5233972 43.0460715,82.598355 43.547636,82.6633346 L43.5148365,82.9167663 Z M57.1966271,82.4399591 L57.1461149,82.1895198 C57.6417548,82.0894943 58.1405747,81.9791162 58.6287318,81.8616296 L58.6884725,82.1100728 C58.1973257,82.2281839 57.695387,82.3391852 57.1966296,82.4399591 L57.1966271,82.4399591 Z M40.5013997,82.4131392 C40.0031405,82.3108685 39.5015147,82.1982452 39.0106143,82.0783895 L39.0712273,81.8301954 C39.5590728,81.949304 40.0575811,82.0613027 40.5527842,82.1629502 L40.5013997,82.4131392 Z M60.1672235,81.7251801 L60.0983768,81.4792312 C60.5828544,81.3435351 61.0721954,81.1967395 61.5527446,81.042705 L61.6306948,81.2859106 C61.1471558,81.4409476 60.6547586,81.5887407 60.1672261,81.7251852 L60.1672235,81.7251801 Z M37.5331111,81.6888863 C37.0448914,81.5504444 36.5516845,81.4006577 36.0672107,81.2436335 L36.1459093,81.0006782 C36.6274559,81.1567037 37.1176079,81.3056207 37.602834,81.4431865 L37.5331111,81.6888863 Z M63.0730856,80.7943908 L62.9861558,80.5541788 C63.4581609,80.3834355 63.9342197,80.2013436 64.4010485,80.0127663 L64.4967063,80.2496105 C64.026954,80.4393155 63.5479655,80.6226552 63.0730907,80.7943959 L63.0730856,80.7943908 Z M34.6192605,80.7446271 C34.1418301,80.570143 33.6613436,80.3843091 33.1910843,80.1922388 L33.2876181,79.9557688 C33.7549464,80.1465913 34.2325019,80.3313027 34.7069387,80.5046641 L34.6192605,80.7446271 Z M65.8995045,79.6528225 L65.7952388,79.4195951 C66.2549591,79.213931 66.7165504,78.997166 67.1672899,78.7751635 L67.280037,79.0043997 C66.8265645,79.2276552 66.3620983,79.4457918 65.8995096,79.6528276 L65.8995045,79.6528225 Z M31.7847344,79.5877178 C31.3218991,79.3784368 30.8566884,79.1578059 30.4020192,78.9318123 L30.515765,78.7030766 C30.9675645,78.9276986 31.4299668,79.1470817 31.8899987,79.3549911 L31.7847344,79.5877178 Z M68.6362503,78.3053423 L68.5150217,78.0805951 C68.9590268,77.841387 69.4036552,77.5911954 69.8365607,77.3368863 L69.9660204,77.557143 C69.5302529,77.8129489 69.0828863,78.0647573 68.6362554,78.3053461 L68.6362503,78.3053423 Z M29.0446794,78.225272 C28.5984291,77.9825645 28.1509374,77.7282593 27.714539,77.4695888 L27.8448072,77.2498314 C28.2785236,77.5070051 28.7232771,77.7596897 29.1667842,78.0008991 L29.0446794,78.225272 Z M71.2678493,76.7601788 L71.1305326,76.5449106 C71.5534598,76.2752644 71.9786322,75.9930217 72.3944508,75.7059144 L72.5396258,75.9161941 C72.1212005,76.2049259 71.6932822,76.4889144 71.2678595,76.7601826 L71.2678493,76.7601788 Z M26.4134432,76.6656398 C25.9868991,76.3911303 25.5594202,76.1048966 25.1428519,75.8146718 L25.2888378,75.6051405 C25.7029106,75.8934943 26.1277714,76.1779821 26.5516335,76.450871 L26.4134432,76.6656398 Z M73.7799681,75.0259374 L73.6273091,74.8211469 C74.0302822,74.5206948 74.4340026,74.2080204 74.8271213,73.8918531 L74.9872631,74.090908 C74.5916641,74.4090741 74.1854496,74.7236194 73.7799834,75.0259413 L73.7799681,75.0259374 Z M23.9045632,74.9179298 C23.5000319,74.6136117 23.0947522,74.2969464 22.7000741,73.9766628 L22.860963,73.7783576 C23.253272,74.096645 23.6560575,74.4113142 24.0580945,74.7138863 L23.9045632,74.9179298 Z M76.1596373,73.1120996 L75.9925109,72.9190319 C76.3731584,72.5892746 76.7530575,72.2479106 77.1217318,71.9043052 L77.2958416,72.0911367 C76.9250626,72.4368659 76.5427944,72.7803474 76.1596526,73.1121034 L76.1596373,73.1120996 Z M21.5308799,72.9918697 C21.1484866,72.6577433 20.7675338,72.3123908 20.3986667,71.9655428 L20.5736501,71.7794636 C20.9402656,72.1241916 21.3188608,72.4674227 21.6990038,72.7995543 L21.5308799,72.9918697 Z M78.3945211,71.0292695 L78.2136782,70.8489234 C78.5706284,70.4909757 78.9247101,70.1226756 79.2661954,69.7543755 L79.4535249,69.927986 C79.1099183,70.2986564 78.7535926,70.6692005 78.3945211,71.0292695 Z M19.3048199,70.8986871 C18.9489298,70.5387433 18.5942861,70.1667011 18.2506807,69.7929132 L18.4387599,69.6200511 C18.7802452,69.9915939 19.132705,70.3612656 19.4864751,70.7190894 L19.3048199,70.8986871 Z M80.4718697,68.7884138 L80.2783027,68.6217867 C80.6078148,68.2391443 80.9343333,67.8459004 81.2486296,67.4527803 L81.4481826,67.6124227 C81.1318902,68.007788 80.8033755,68.4035262 80.4718685,68.7884138 L80.4718697,68.7884138 Z M17.2378263,68.6494751 C16.909,68.2642133 16.5825441,67.8674764 16.2674994,67.4701162 L16.4676756,67.3114725 C16.7807867,67.7063372 17.1052478,68.1007037 17.4321405,68.4835964 L17.2378263,68.6494751 Z M82.3812171,66.4011367 L82.1759272,66.248977 C82.4773768,65.8422631 82.7743372,65.4260702 83.0584508,65.0119974 L83.2689783,65.156424 C82.9832427,65.5731162 82.6845364,65.9918033 82.3812158,66.4011367 L82.3812171,66.4011367 Z M15.3410754,66.2562107 C15.0409349,65.8478761 14.7444112,65.4284406 14.4596743,65.0097535 L14.6709515,64.8660754 C14.9538799,65.2822682 15.2485939,65.6990843 15.5468633,66.1050498 L15.3410754,66.2562107 Z M84.1109681,63.879659 L83.8952005,63.7429655 C84.1647229,63.3177931 84.4303768,62.8807688 84.6849323,62.4442503 L84.9056871,62.5729617 C84.6495096,63.0122273 84.3821086,63.4518672 84.1109668,63.879659 L84.1109681,63.879659 Z M13.6247318,63.7319898 C13.3555849,63.3032005 13.0906156,62.8634355 12.8373078,62.4249183 L13.0584381,62.2972043 C13.310249,62.7329783 13.5735964,63.1700013 13.8411226,63.5962937 L13.6247318,63.7319898 Z M85.6518902,61.2374534 L85.426645,61.1169732 C85.665484,60.6703487 85.8983372,60.2148685 86.1189681,59.7631303 L86.3484547,59.875129 C86.126576,60.3297369 85.8922261,60.7880843 85.6518902,61.2374534 Z M12.0984674,61.089908 C11.8614304,60.6424112 11.6295798,60.1845619 11.4093857,59.7292069 L11.6393704,59.6179553 C11.8581928,60.070567 12.0886143,60.5255479 12.324212,60.9704266 L12.0984674,61.089908 Z M86.9945083,58.4879923 L86.7610319,58.3844738 C86.9653244,57.9236309 87.164129,57.4518135 87.3518365,56.982364 L87.5890562,57.077152 C87.4000983,57.5495888 87.2001711,58.024272 86.9945083,58.4879872 L86.9945083,58.4879923 Z M10.7709374,58.3440587 C10.5673308,57.8802235 10.3698978,57.4067842 10.1840639,56.9370856 L10.4215939,56.843046 C10.6062439,57.31 10.8024917,57.780447 11.004788,58.2414138 L10.7709374,58.3440587 Z M88.130963,55.6451047 L87.8905019,55.5590473 C88.0607446,55.0827395 88.224129,54.5973269 88.3762886,54.1164036 L88.6197433,54.1934815 C88.466834,54.6772733 88.3023282,55.1656782 88.1309617,55.6451047 L88.130963,55.6451047 Z M9.64976117,55.5096577 C9.48076501,55.0316041 9.31837803,54.5438212 9.16721711,54.0597816 L9.41104598,53.9837011 C9.56127203,54.4646245 9.7225977,54.9494138 9.89059642,55.424599 L9.64976117,55.5096577 Z M89.0542682,52.7243997 L88.8080702,52.6563027 C88.9417701,52.1721392 89.0684866,51.6772478 89.1847267,51.1853474 L89.4334189,51.2442158 C89.3163065,51.7391047 89.1888416,52.2371137 89.0542682,52.7243997 Z M8.73861303,52.593318 C8.60566284,52.104788 8.47994253,51.6070281 8.36495019,51.1136335 L8.61376756,51.0557625 C8.72801149,51.5460396 8.85291954,52.0408059 8.9850613,52.5262184 L8.73861303,52.593318 Z" id="Shape" fill="#6C63FF"></path>
                <path d="M8.07968464,49.5921635 C8.01732423,49.3409757 7.95784229,49.0889779 7.90123883,48.8361699 L8.22391296,48.7922682 C8.28003831,49.0434551 8.33914694,49.2938731 8.40123883,49.5435223 L8.07968464,49.5921635 Z" id="Shape" fill="#6C63FF"></path>
                <path d="M69.7656003,49.867235 L69.5281315,49.7733206 C69.6207995,49.5389655 69.710848,49.2990702 69.7959068,49.0601047 L70.0366181,49.145788 C69.9505607,49.3874968 69.859387,49.6302031 69.7656003,49.867235 Z" id="Shape" fill="#6C63FF"></path>
                <path d="M48.9144317,64.0426692 C48.6084917,64.0426692 48.2997446,64.036433 47.9967369,64.0242107 L48.0070894,63.7690319 C48.5097714,63.7893614 49.0235645,63.7928544 49.5278697,63.7788851 L49.5348544,64.0343129 C49.3286909,64.0399264 49.1218834,64.0427118 48.9144317,64.0426692 Z M51.0699783,63.9402733 L51.0457829,63.6860932 C51.5487803,63.6382005 52.0560817,63.5720983 52.5537178,63.489908 L52.5953742,63.7418429 C52.0920013,63.8251571 51.5787765,63.8918825 51.0699783,63.9402733 Z M46.4628608,63.9100958 C45.9548148,63.8548455 45.4425837,63.7812605 44.9403959,63.6913359 L44.9854202,63.4398991 C45.481871,63.5287011 45.9882363,63.6015377 46.4905492,63.6561648 L46.4628608,63.9100958 Z M54.1034955,63.4389017 L54.0445032,63.1904585 C54.5362759,63.0737203 55.0296705,62.9386475 55.5109681,62.7887331 L55.5869234,63.0326871 C55.100014,63.1842171 54.6009438,63.3209106 54.1034955,63.4388966 L54.1034955,63.4389017 Z M43.4363895,63.3683103 C42.9403755,63.2437139 42.4429285,63.1002848 41.9578276,62.9421392 L42.0370243,62.6991839 C42.516576,62.8555837 43.0082886,62.9973959 43.4986258,63.1206143 L43.4363895,63.3683103 Z M57.0389821,62.5246999 L56.9463155,62.2867331 C57.416387,62.1037676 57.8865211,61.9018455 58.3435607,61.6867024 L58.4524419,61.9176845 C57.9900383,62.1354419 57.5144802,62.3397344 57.0389821,62.5246948 L57.0389821,62.5246999 Z M40.5123768,62.4145658 C40.0385006,62.2228672 39.5656232,62.0122171 39.1068378,61.7884687 L39.2188429,61.5589834 C39.6723269,61.7801124 40.1397791,61.9882708 40.6081673,62.1778467 L40.5123768,62.4145658 Z M59.8206897,61.2148787 L59.6962184,60.9918787 C60.1374789,60.7454304 60.5754355,60.4808953 60.9979898,60.2055147 L61.1374266,60.4195351 C60.7100715,60.6980358 60.2670639,60.9656871 59.8206897,61.2148787 Z M37.7477573,61.0673346 C37.3050613,60.8124049 36.8656079,60.5388927 36.4416271,60.2544049 L36.5839336,60.0423806 C37.0031201,60.3236245 37.4375211,60.5940192 37.8752286,60.8460843 L37.7477573,61.0673346 Z M62.3968557,59.535894 L62.2429502,59.3321009 C62.6466718,59.0274087 63.0444674,58.7055045 63.4253027,58.3752439 L63.5926769,58.5683116 C63.2074777,58.9023052 62.805129,59.2278301 62.3968557,59.535894 Z M35.1941648,59.3539272 C34.7897586,59.0405045 34.3917126,58.7094955 34.0111903,58.3702554 L34.1811839,58.179682 C34.557341,58.514931 34.9508352,58.8420741 35.3506897,59.152129 L35.1941648,59.3539272 Z M64.7196526,57.5214074 L64.5395568,57.3403091 C64.8977535,56.9839872 65.2480319,56.6109425 65.5807241,56.2315428 L65.7727944,56.3999157 C65.4362976,56.7836794 65.0819668,57.1609591 64.7196526,57.5214023 L64.7196526,57.5214074 Z M32.8981213,57.308636 C32.5409208,56.9438289 32.1916411,56.5619336 31.8600089,56.1734291 L32.0543231,56.0075504 C32.382152,56.3916897 32.7275032,56.7693448 33.0805875,57.1300358 L32.8981213,57.308636 Z M66.7469872,55.2093295 L66.5439413,55.0544266 C66.8500064,54.6532005 67.1462171,54.2360102 67.4244687,53.8142043 L67.637742,53.9548902 C67.3562465,54.3815607 67.0566679,54.8036143 66.7469872,55.2093295 Z M30.9017765,54.9699936 C30.5972082,54.5595377 30.3032414,54.1334917 30.028046,53.7038301 L30.243189,53.5661379 C30.5152043,53.9908123 30.8058033,54.4119872 31.1069413,54.817834 L30.9017765,54.9699936 Z M68.4400651,52.6424572 L68.2178135,52.5167382 C68.4661315,52.0773474 68.7024777,51.6234891 68.9202401,51.1677599 L69.1507241,51.2778889 C68.9304713,51.7388544 68.6913819,52.1979515 68.440069,52.6424559 L68.4400651,52.6424572 Z M29.2433078,52.3810409 C28.9976705,51.9325466 28.7648174,51.4703308 28.5512324,51.0073678 L28.7832133,50.9003576 C28.9943027,51.3580843 29.2245377,51.8149349 29.4673052,52.2583167 L29.2433078,52.3810409 Z" id="Shape" fill="#6C63FF"></path>
                <path d="M27.952172,49.5805645 C27.8617784,49.34241 27.7739451,49.0984572 27.6910971,48.8553768 L27.9330194,48.7730613 C28.014867,49.0133346 28.1017051,49.2545428 28.1910971,49.4898927 L27.952172,49.5805645 Z" id="Shape" fill="#6C63FF"></path>
                <path d="M28.3467535,33.3690038 L28.1097842,33.2737165 C28.2054419,33.0356871 28.306281,32.7967854 28.4094879,32.5637446 L28.6430894,32.6671379 C28.5410677,32.8975594 28.4413538,33.1336552 28.3467535,33.3690038 Z" id="Shape" fill="#6C63FF"></path>
                <path d="M29.3142733,31.2834253 L29.0885287,31.1640677 C29.3298008,30.7077765 29.5904049,30.2539183 29.8631137,29.8152133 L30.0800026,29.950037 C29.8104725,30.3837522 29.5528646,30.8323729 29.3142733,31.2834253 Z M68.3129796,30.9113831 C68.0661571,30.465258 67.8000026,30.0216884 67.5221252,29.5928991 L67.7363959,29.4539604 C68.017516,29.8876769 68.286788,30.3364215 68.5364789,30.7876603 L68.3129796,30.9113831 Z M30.9363282,28.6729604 L30.7292286,28.5234202 C31.0314891,28.1047331 31.3522708,27.6913461 31.6826564,27.2946105 L31.8789655,27.4581188 C31.5523231,27.8503027 31.2351584,28.2590102 30.9363282,28.6729604 Z M66.6414725,28.3323474 C66.3351596,27.9245734 66.0102618,27.5219132 65.6761354,27.1356539 L65.8692031,26.9685275 C66.2073206,27.3592158 66.5358352,27.7664278 66.845765,28.1789413 L66.6414725,28.3323474 Z M32.9031098,26.3111877 L32.7185236,26.1345837 C33.0754738,25.7616066 33.450069,25.3962375 33.8319042,25.0486411 L34.003894,25.2375926 C33.626364,25.581198 33.2560064,25.9423895 32.9031098,26.3111877 Z M64.6305402,26.0084291 C64.2705964,25.6463602 63.8934406,25.2922209 63.5094891,24.9558493 L63.6778621,24.7637791 C64.0661788,25.103954 64.4476373,25.462152 64.8116973,25.8283321 L64.6305402,26.0084291 Z M35.1760179,24.2423844 L35.0174981,24.042083 C35.4227152,23.7214891 35.8440217,23.4111839 36.2696935,23.1197739 L36.4139949,23.3305517 C35.9931252,23.6186526 35.5766207,23.9254074 35.1760179,24.2423844 Z M62.318719,23.9831481 C61.9126284,23.6742146 61.4903244,23.3753844 61.06353,23.0950115 L61.2037165,22.8814904 C61.6354994,23.1651047 62.0626667,23.4673653 62.4733716,23.7798531 L62.318719,23.9831481 Z M37.7120255,22.5067101 L37.5826897,22.2864534 C38.0278799,22.0251009 38.488037,21.7760345 38.9503142,21.5461737 L39.0640587,21.7749093 C38.6070243,22.0020907 38.1521648,22.2483512 37.7120255,22.5067101 Z M59.749848,22.2959949 C59.3042209,22.0456756 58.8446258,21.808212 58.383908,21.5900754 L58.4931622,21.3592184 C58.9592439,21.579848 59.4241405,21.8201226 59.8749425,22.0732439 L59.749848,22.2959949 Z M40.4637982,21.1388991 L40.3662669,20.902802 C40.8434483,20.7057395 41.3337867,20.5230907 41.8235658,20.3598902 L41.9042593,20.6022222 C41.4201558,20.7635517 40.9354917,20.9440856 40.4637982,21.1388991 Z M56.9721328,20.9811277 C56.4962605,20.7952312 56.0081673,20.6240524 55.5213819,20.4722043 L55.5974623,20.2283755 C56.0898582,20.3819693 56.5836271,20.5551443 57.0650498,20.7431596 L56.9721328,20.9811277 Z M43.3788314,20.1675747 L43.3152299,19.9201928 C43.814986,19.7916679 44.3260281,19.6791073 44.8340779,19.5856922 L44.8802248,19.8368787 C44.3780332,19.9292337 43.8729119,20.040484 43.3788314,20.1675747 Z M54.0386411,20.0659272 C53.5420664,19.948378 53.0348889,19.8468557 52.531143,19.764166 L52.5725504,19.5121047 C53.0820958,19.5957305 53.5951341,19.6984393 54.0975096,19.8173589 L54.0386411,20.0659272 Z M46.4011239,19.611507 L46.3724381,19.3577011 C46.8838557,19.2999553 47.4054368,19.2592337 47.9228404,19.2365977 L47.9340026,19.4917701 C47.4223985,19.5141635 46.9066794,19.5544483 46.4011239,19.611507 Z M51.0063078,19.5679796 C50.4992567,19.520461 49.9828506,19.4899668 49.4715581,19.4773704 L49.4777944,19.2220702 C49.9950115,19.2347918 50.5172784,19.2655977 51.0301303,19.3136769 L51.0063078,19.5679796 Z" id="Shape" fill="#6C63FF"></path>
                <path d="M69.3237152,32.9855492 C69.224811,32.752198 69.1206692,32.5179719 69.0142835,32.2893589 L69.245765,32.1816003 C69.3533985,32.4128327 69.4587918,32.6497995 69.5589374,32.8857727 L69.3237152,32.9855492 Z" id="Shape" fill="#6C63FF"></path>
                <path d="M72.6208365,41.5986628 C71.9290039,41.5959752 71.3317688,42.0827254 71.1948215,42.7608737 C71.0578743,43.439022 71.4194178,44.1193908 72.0580772,44.3853867 C72.6967365,44.6513826 73.4343501,44.428803 73.8192732,43.8539344 C74.2041962,43.2790659 74.1290499,42.5122748 73.6398467,42.0230715 C73.3707858,41.7507473 73.0036597,41.5978425 72.6208365,41.5986628 Z" id="Shape" fill="#3F3D56"></path>
                <path d="M66.842765,41.5986628 C66.150932,41.5959734 65.5536955,42.0827225 65.4167467,42.7608708 C65.279798,43.4390192 65.6413407,44.119389 66.28,44.3853859 C66.9186594,44.6513829 67.6562736,44.4288038 68.0411972,43.8539352 C68.4261209,43.2790666 68.3509748,42.5122751 67.8617714,42.0230715 C67.5922274,41.7514672 67.2254174,41.5986935 66.842765,41.5986628 Z" id="Shape" fill="#3F3D56"></path>
                <path d="M69.7318008,33.5828991 C65.7113371,33.5828991 62.4521073,36.8421289 62.4521073,40.8625926 C62.4521073,44.8830563 65.7113371,48.1422861 69.7318008,48.1422861 C73.7522645,48.1422861 77.0114943,44.8830563 77.0114943,40.8625926 C77.0114943,36.8421289 73.7522645,33.5828991 69.7318008,33.5828991 Z M71.1464751,36.6185607 C71.3334416,36.6167767 71.5132697,36.6902608 71.6454811,36.822472 C71.7776925,36.9546831 71.8511769,37.1345112 71.8493934,37.3214777 C71.8511863,37.6083735 71.6795065,37.867936 71.4147885,37.9785563 C71.1500705,38.0891765 70.8447537,38.0289412 70.6418836,37.8260714 C70.4390134,37.6232016 70.3787775,37.3178849 70.4893973,37.0531667 C70.6000171,36.7884485 70.8595792,36.6167683 71.1464751,36.6185607 Z M66.8427714,45.1066245 C66.0079862,45.1070724 65.2551711,44.6044954 64.9355057,43.8333401 C64.6158404,43.0621847 64.7923092,42.1743937 65.3825916,41.5841114 C65.9728739,40.993829 66.8606649,40.8173602 67.6318203,41.1370255 C68.4029756,41.4566909 68.9055526,42.209506 68.9051047,43.0442912 C68.9012859,44.1817034 67.9801772,45.1028092 66.842765,45.1066245 L66.8427714,45.1066245 Z M70.0854764,40.9952171 L70.0854764,42.9846054 C70.0854764,43.1799315 69.9271333,43.3382746 69.7318072,43.3382746 C69.536481,43.3382746 69.3781379,43.1799315 69.3781379,42.9846054 L69.3781379,41.527931 C69.3781379,41.2383678 69.02447,41.1742618 68.0187229,40.595129 C67.888304,40.5177637 67.6097944,40.380719 67.6097944,39.9961034 C67.611999,39.8107438 67.685633,39.6333812 67.8153576,39.500963 L69.4002452,37.9735568 C69.5526659,37.8192436 69.7686553,37.7453801 69.9836505,37.7740453 C70.1986457,37.8027106 70.3877377,37.9305834 70.4944036,38.1194406 L71.1464815,39.4479106 L72.2074955,39.4479106 C72.402561,39.4482813 72.5604965,39.6065172 72.5604965,39.801583 C72.5604965,39.9966488 72.402561,40.1548847 72.2074955,40.1552554 L70.9386973,40.1552554 C70.7021801,40.1552554 70.512083,39.6468544 70.0987356,39.0168761 L69.0178289,40.1552554 C69.4134981,40.4647101 70.08547,40.7034419 70.08547,40.9952171 L70.0854764,40.9952171 Z M72.6208429,45.1044125 C71.4818478,45.1044118 70.5585104,44.1810734 70.5585109,43.0420783 C70.5585113,41.9030832 71.4818495,40.9797456 72.6208446,40.9797458 C73.7598397,40.9797461 74.6831775,41.9030841 74.6831775,43.0420792 C74.6796123,44.1795972 73.7583545,45.1008509 72.6208365,45.1044112 L72.6208429,45.1044125 Z" id="Shape" fill="#3F3D56"></path>
                <path d="M90.4214559,33.5828991 C86.4009922,33.5828991 83.1417625,36.8421289 83.1417625,40.8625926 C83.1417625,44.8830563 86.4009922,48.1422861 90.4214559,48.1422861 C94.4419196,48.1422861 97.7011494,44.8830563 97.7011494,40.8625926 C97.7011494,36.8421289 94.4419196,33.5828991 90.4214559,33.5828991 Z M88.4917471,38.786986 C89.1133811,38.801387 89.6070403,39.3144803 89.5974398,39.9362069 C89.5878393,40.5579335 89.0785731,41.05554 88.4567909,41.0507405 C87.8350087,41.0459411 87.3334847,40.5405325 87.3334828,39.9187318 C87.3367309,39.6149725 87.4606531,39.324976 87.6779291,39.1126758 C87.895205,38.9003755 88.1879941,38.7832037 88.4917471,38.7869923 L88.4917471,38.786986 Z M94.6654879,43.6919361 L93.8940447,43.6919361 L93.8940447,42.560198 L86.9488672,42.560198 L86.9488672,43.6919361 L86.177424,43.6919361 L86.177424,38.033235 L86.9488672,38.033235 L86.9488672,41.4284585 L90.0346271,41.4284585 L90.0346271,38.7869923 L93.1226054,38.7869923 C93.5274243,38.7825344 93.9174274,38.9391045 94.206787,39.2222463 C94.4961465,39.5053882 94.66115,39.8918988 94.6654853,40.296719 L94.6654879,43.6919361 Z" id="Shape" fill="#3F3D56"></path>
                <path d="M9.8437931,38.9174112 L7.67756833,38.9174112 C7.62879685,38.917555 7.58929666,38.9570586 7.58915709,39.0058301 L7.58915709,42.1004368 C7.58930017,42.1492056 7.62879954,42.1887049 7.67756833,42.188848 L9.8437931,42.188848 C10.038882,42.1882778 10.1968914,42.030269 10.1974623,41.8351801 L10.1974623,39.2710792 C10.1968914,39.0759903 10.038882,38.9179815 9.8437931,38.9174112 Z" id="Shape" fill="#3F3D56"></path>
                <path d="M9.35750064,42.851986 C9.0762547,42.8748816 8.86200144,43.1136935 8.86964079,43.3957665 C8.87728015,43.6778394 9.1041453,43.9047045 9.38621822,43.9123439 C9.66829114,43.9199832 9.90710305,43.70573 9.92999872,43.424484 C9.94229718,43.2692031 9.88594249,43.1163302 9.77579848,43.0061862 C9.66565447,42.8960422 9.51278153,42.8396875 9.35750064,42.851986 Z" id="Shape" fill="#3F3D56"></path>
                <path d="M5.11568199,42.851986 C4.83443605,42.8748816 4.62018279,43.1136935 4.62782215,43.3957665 C4.6354615,43.6778394 4.86232665,43.9047045 5.14439957,43.9123439 C5.42647249,43.9199832 5.66528441,43.70573 5.68818008,43.424484 C5.70047854,43.2692031 5.64412385,43.1163302 5.53397984,43.0061862 C5.42383582,42.8960422 5.27096288,42.8396875 5.11568199,42.851986 Z" id="Shape" fill="#3F3D56"></path>
                <path d="M6.88181865,38.9174112 L4.72001277,38.9174112 C4.52255011,38.9181431 4.36265652,39.0780367 4.36192465,39.2754994 L4.36192465,41.8307599 C4.36265652,42.0282226 4.52255011,42.1881162 4.72001277,42.188848 L6.88181865,42.188848 C6.93058743,42.1887049 6.9700868,42.1492056 6.97022989,42.1004368 L6.97022989,39.0058301 C6.97009031,38.9570586 6.93059013,38.917555 6.88181865,38.9174112 Z" id="Shape" fill="#3F3D56"></path>
                <path d="M7.27969349,33.5828991 C3.25922979,33.5828991 -1.42108547e-14,36.8421289 -1.42108547e-14,40.8625926 C-1.42108547e-14,44.8830563 3.25922979,48.1422861 7.27969349,48.1422861 C11.3001572,48.1422861 14.559387,44.8830563 14.559387,40.8625926 C14.559387,36.8421289 11.3001572,33.5828991 7.27969349,33.5828991 Z M10.8163883,43.8245747 C10.8149553,44.3122944 10.419933,44.7073116 9.93221328,44.7087382 L4.62717369,44.7087382 C4.13945397,44.7073116 3.74443168,44.3122944 3.74299872,43.8245747 L3.74299872,37.7237727 C3.7441406,37.3335949 4.06015811,37.0175768 4.45033589,37.0164342 L10.1090511,37.0164342 C10.4992289,37.0175768 10.8152464,37.3335949 10.8163883,37.7237727 L10.8163883,43.8245747 Z" id="Shape" fill="#3F3D56"></path>
                <path d="M9.86590038,37.6353602 L4.69348659,37.6353602 C4.57782982,37.6273738 4.46737227,37.6845478 4.4071144,37.7835895 C4.34685653,37.8826312 4.34685653,38.0070086 4.4071144,38.1060503 C4.46737227,38.205092 4.57782982,38.2622661 4.69348659,38.2542797 L9.86590038,38.2542797 C9.98155715,38.2622661 10.0920147,38.205092 10.1522726,38.1060503 C10.2125304,38.0070086 10.2125304,37.8826312 10.1522726,37.7835895 C10.0920147,37.6845478 9.98155715,37.6273738 9.86590038,37.6353602 Z" id="Shape" fill="#3F3D56"></path>
                <path d="M29.0696501,41.06153 C28.923765,41.06153 28.8043997,41.2781545 28.8043997,41.5478238 C28.8043997,41.817493 28.923765,42.0341175 29.0696501,42.0341175 C29.2155351,42.0341175 29.3349119,41.8175006 29.3349119,41.5478238 C29.3349119,41.2781469 29.2155415,41.06153 29.0696501,41.06153 Z" id="Shape" fill="#3F3D56"></path>
                <path d="M27.1244751,41.06153 C26.9785837,41.06153 26.8592133,41.2781545 26.8592133,41.5478238 C26.8592133,41.817493 26.9785785,42.0341175 27.1244751,42.0341175 C27.2703716,42.0341175 27.3897254,41.8175006 27.3897254,41.5478238 C27.3897254,41.2781469 27.2703602,41.06153 27.1244751,41.06153 Z" id="Shape" fill="#3F3D56"></path>
                <path d="M28.0970626,33.5828991 C24.0765989,33.5828991 20.8173691,36.8421289 20.8173691,40.8625926 C20.8173691,44.8830563 24.0765989,48.1422861 28.0970626,48.1422861 C32.1175263,48.1422861 35.3767561,44.8830563 35.3767561,40.8625926 C35.3767561,36.8421289 32.1175263,33.5828991 28.0970626,33.5828991 Z M24.6929923,40.6150217 L25.0952912,38.4753231 C25.1991839,37.893977 25.4688544,37.4364163 25.9750473,37.4364163 L26.7354304,37.4364163 L26.7796437,37.2617918 C26.8593237,36.9483916 27.1415079,36.7290165 27.4648787,36.7290779 L28.7248301,36.7290779 C29.0475021,36.7289329 29.3293787,36.9471625 29.41006,37.2595849 L29.4542656,37.4364163 L30.2190766,37.4364163 C30.7142171,37.4364163 30.9772605,37.8851367 31.101046,38.4731098 L31.101046,38.4753231 L31.5055543,40.6172363 C31.5121016,40.6498551 31.4997348,40.6833824 31.4735742,40.7039367 C31.4474137,40.724491 31.4119123,40.7285737 31.3817688,40.7144943 L30.8203155,40.4558736 C30.7934233,40.4447387 30.7741957,40.4204963 30.7694764,40.3917752 L30.411387,38.4996386 C30.3450754,38.2564955 30.2522363,38.1459693 30.0555045,38.1459693 L26.1408276,38.1459693 C25.9463103,38.1459693 25.840212,38.2631213 25.7849527,38.4996386 L25.426857,40.3917676 C25.4213326,40.4201274 25.4023726,40.4440346 25.3760166,40.4558736 L24.8167778,40.7122835 C24.7866287,40.7259259 24.7513932,40.7216585 24.7253726,40.7012133 C24.6993519,40.6807681 24.6868697,40.6475424 24.6929923,40.6150217 Z M32.4891928,41.9921252 L31.2800894,44.9960996 C30.6722158,44.9960996 30.0267714,44.5098059 30.0267714,44.5098059 C29.6288889,44.7109553 28.8530332,44.8877867 28.2738978,44.9209476 C28.2120051,44.9231533 28.1523142,44.9253665 28.09706,44.9253665 C28.0418059,44.9253665 27.9821175,44.9253665 27.9202222,44.9209476 C27.3410894,44.8877867 26.5652337,44.7087433 26.1673487,44.5098059 C26.1673487,44.5098059 25.5219042,44.9960996 24.9140307,44.9960996 L23.7049272,41.9921252 C23.6862857,41.9449544 23.6765428,41.8947387 23.6761916,41.8440192 C23.6762407,41.6882622 23.7668436,41.5467466 23.908281,41.4815109 L28.0219029,39.5915888 C28.0687957,39.5694892 28.1231085,39.5694892 28.1700013,39.5915888 L32.2858289,41.4815109 C32.4272663,41.5467466 32.5178691,41.6882622 32.5179183,41.8440192 C32.5175703,41.894738 32.5078309,41.9449537 32.4891928,41.9921252 Z" id="Shape" fill="#3F3D56"></path>
                <path d="M48.9144317,33.5828991 C44.893968,33.5828991 41.6347382,36.8421289 41.6347382,40.8625926 C41.6347382,44.8830563 44.893968,48.1422861 48.9144317,48.1422861 C52.9348954,48.1422861 56.1941252,44.8830563 56.1941252,40.8625926 C56.1941252,36.8421289 52.9348954,33.5828991 48.9144317,33.5828991 Z M52.2679438,41.5721367 C52.1927829,41.5721367 51.9430077,41.5699298 51.8700613,41.5655109 L50.435493,41.527931 C50.4203554,41.5275587 50.4061163,41.5350961 50.3979132,41.5478238 L48.2449553,44.7662146 C48.180142,44.8683303 48.0674929,44.930078 47.9465453,44.9297854 L47.4226718,44.9297854 C47.2988863,44.9297854 47.2568863,44.806 47.3010996,44.6910626 L48.4085262,41.5323487 C48.4136875,41.5190412 48.4120472,41.5040541 48.4041296,41.492178 C48.396212,41.480302 48.3830085,41.473024 48.3687395,41.4726705 L45.6786411,41.4129834 C45.6219639,41.4117256 45.5679694,41.437087 45.5327484,41.4815096 L44.6994151,42.4916769 C44.6318453,42.5765558 44.5293873,42.6261585 44.4208978,42.6265147 L44.0517561,42.6265147 C44.0230586,42.6268129 43.996017,42.6131047 43.979294,42.5897815 C43.9625709,42.5664584 43.9582657,42.5364479 43.9677573,42.509364 L44.4076386,40.9907969 C44.4407912,40.9062491 44.4407912,40.8123 44.4076386,40.7277522 L43.9677573,39.2091852 C43.9582657,39.1821013 43.9625709,39.1520908 43.979294,39.1287676 C43.996017,39.1054444 44.0230586,39.0917363 44.0517561,39.0920345 L44.4231162,39.0920345 C44.5318307,39.0913959 44.6346977,39.1411983 44.7016245,39.2268723 L45.5194879,40.2215658 C45.5544046,40.2663658 45.6085996,40.2918198 45.6653729,40.2900843 L48.3709451,40.2502989 C48.3853288,40.250229 48.3987365,40.2430123 48.4067163,40.2310449 C48.4146961,40.2190775 48.4162036,40.2039258 48.4107382,40.1906207 L47.3033052,37.0341201 C47.2590996,36.9191775 47.3010983,36.7953895 47.4248889,36.7953895 L47.9487625,36.7953895 C48.0695721,36.7956275 48.1819806,36.8572448 48.2471648,36.9589604 L50.3979132,40.1795722 C50.4057473,40.192695 50.4202361,40.2003645 50.435493,40.1994649 L51.8700613,40.1618851 C51.9408008,40.1574649 52.1927829,40.1552593 52.2679438,40.1552593 C53.249378,40.1552593 53.8660817,40.4735619 53.8660817,40.864802 C53.8660817,41.2560421 53.2471635,41.5721367 52.2679438,41.5721367 Z" id="Shape" fill="#3F3D56"></path>
                <path d="M8.38727458,65.401 C7.54086118,65.401 6.85470754,64.7148464 6.85470754,63.868433 C6.85470754,63.0220195 7.54086118,62.3358659 8.38727458,62.3358659 C9.23368799,62.3358659 9.91984163,63.0220195 9.91984163,63.868433 C9.91887391,64.7144452 9.23328682,65.4000323 8.38727458,65.401 Z M8.38727458,62.5912937 C7.68193008,62.5912937 7.11013538,63.1630884 7.11013538,63.868433 C7.11013538,64.5737775 7.68193008,65.1455722 8.38727458,65.1455722 C9.09261909,65.1455722 9.66441379,64.5737775 9.66441379,63.868433 C9.66362971,63.1634135 9.09229406,62.5920778 8.38727458,62.5912937 Z" id="Shape" fill="#F0F0F0"></path>
                <path d="M40.6988966,31.0459553 C39.8524831,31.0459553 39.1663295,30.3598017 39.1663295,29.5133883 C39.1663295,28.6669748 39.8524831,27.9808212 40.6988966,27.9808212 C41.54531,27.9808212 42.2314636,28.6669748 42.2314636,29.5133883 C42.2304959,30.3594005 41.5449088,31.0449876 40.6988966,31.0459553 Z M40.6988966,28.236249 C39.993552,28.236249 39.4217573,28.8080437 39.4217573,29.5133883 C39.4217573,30.2187328 39.993552,30.7905275 40.6988966,30.7905275 C41.4042411,30.7905275 41.9760358,30.2187328 41.9760358,29.5133883 C41.9752517,28.8083688 41.403916,28.2370331 40.6988966,28.236249 Z" id="Shape" fill="#F0F0F0"></path>
                <path d="M69.2393193,73.1110817 L67.5196386,71.2673768 L69.3633461,69.5476973 L71.0830255,71.3914023 L69.2393193,73.1110817 Z M67.793742,71.276917 L69.2488557,72.8369757 L70.8089132,71.3818621 L69.3537995,69.8218033 L67.793742,71.276917 Z" id="Shape" fill="#F0F0F0"></path>
            </g>
        </g>
    </g>
</svg>