<?xml version="1.0" encoding="UTF-8"?>
<svg width="140px" height="101px" viewBox="0 0 140 101" version="1.1" xmlns="http://www.w3.org/2000/svg" xmlns:xlink="http://www.w3.org/1999/xlink">
    <!-- Generator: Sketch 51.1 (57501) - http://www.bohemiancoding.com/sketch -->
    <title>undraw_adventure_4hum01</title>
    <desc>Created with Sketch.</desc>
    <defs></defs>
    <g id="Page-1" stroke="none" stroke-width="1" fill="none" fill-rule="evenodd">
        <g id="Custom-Preset" transform="translate(-19.000000, -57.000000)">
            <g id="undraw_adventure_4hum" transform="translate(19.000000, 57.000000)">
                <circle id="Oval" fill="#2F2E41" fill-rule="nonzero" cx="27.2763574" cy="11.9327806" r="4.8584232"></circle>
                <path d="M12.4788056,70.4243918 L15.4637194,60.0724561 L16.4798636,60.39 C16.4798636,60.39 15.2731959,68.1380752 13.3679326,70.106848 L12.4788056,70.4243918 Z" id="Shape" fill="#2F2E41" fill-rule="nonzero"></path>
                <path d="M23.8468824,14.8541865 C23.8468824,14.8541865 24.2279357,18.9187492 23.3388119,20.0619091 C22.4496881,21.205069 23.9103903,23.4278746 23.9103903,23.4278746 L26.5777602,26.603315 L30.5153072,24.825069 L31.0868856,21.5226113 L30.7058339,19.2362931 C30.7058339,19.2362931 29.3721489,17.9026082 29.9437273,15.4892712 C30.5153056,13.0759342 23.8468824,14.8541865 23.8468824,14.8541865 Z" id="Shape" fill="#FFB9B9" fill-rule="nonzero"></path>
                <path d="M23.8468824,14.8541865 C23.8468824,14.8541865 24.2279357,18.9187492 23.3388119,20.0619091 C22.4496881,21.205069 23.9103903,23.4278746 23.9103903,23.4278746 L26.5777602,26.603315 L30.5153072,24.825069 L31.0868856,21.5226113 L30.7058339,19.2362931 C30.7058339,19.2362931 29.3721489,17.9026082 29.9437273,15.4892712 C30.5153056,13.0759342 23.8468824,14.8541865 23.8468824,14.8541865 Z" id="Shape" fill="#000000" fill-rule="nonzero" opacity="0.1"></path>
                <polygon id="Shape" fill="#FFB9B9" fill-rule="nonzero" points="26.1332288 90.8742947 26.1332288 93.4780564 29.6261755 94.1766458 29.3086207 89.8581505"></polygon>
                <polygon id="Shape" fill="#FFB9B9" fill-rule="nonzero" points="36.6122257 89.8581505 35.85 93.4780564 37.3742947 94.5576803 40.0416928 92.5890282 39.7241379 89.4769592"></polygon>
                <path d="M29.9437304,93.8591426 C29.9437304,93.8591426 28.6100455,91.6048292 26.1332022,93.0177759 C26.1332022,93.0177759 25.6886411,95.5103715 25.2440784,95.7008981 C24.7995157,95.8914248 22.322674,99.5114263 25.2440784,99.8289702 C28.1654828,100.146514 29.6261865,99.1938824 29.6261865,99.1938824 C29.6261865,99.1938824 29.0546082,99.6856944 29.9437304,99.4316567 C30.8328527,99.1776191 30.4518009,97.7804279 30.4518009,97.7804279 L29.9437304,93.8591426 Z" id="Shape" fill="#2F2E41" fill-rule="nonzero"></path>
                <path d="M38.6444342,92.334931 C38.6444342,92.334931 36.6756614,93.7321238 36.3581176,93.0970361 C36.0405737,92.4619483 35.5325031,92.5254577 35.5325031,92.5254577 C35.5325031,92.5254577 33.7542555,99.2289404 34.8974154,99.5464843 C35.6335128,99.7277005 36.4067108,99.6877618 37.1202194,99.4316677 C37.1202194,99.4316677 38.644431,98.36421 38.644431,99.1898182 C38.644431,100.015426 42.8995219,99.9559875 44.677768,99.8924828 C46.4560141,99.8289781 45.5033824,98.49529 45.5033824,98.49529 L43.1535564,96.2089734 L40.4861865,92.3349357 C40.4861865,92.3349357 39.2795219,91.2552806 38.6444342,92.334931 Z" id="Shape" fill="#2F2E41" fill-rule="nonzero"></path>
                <path d="M19.9093354,49.8475392 L22.5767053,75.4415831 C22.5767053,75.4415831 24.0374091,91.0647492 24.2914389,91.3187853 C24.5454687,91.5728213 26.1967038,92.3984342 29.8167053,91.3187853 L28.9910909,70.8689498 L30.5153025,58.1671881 L34.0082868,66.9314028 C34.0082868,66.9314028 34.8339013,90.4931708 35.4054796,90.4931708 C35.977058,90.4931708 39.4700439,91.6363292 40.2956583,90.2391348 C41.1212727,88.8419404 40.9942555,73.7903542 40.9942555,73.7903542 C40.9942555,73.7903542 40.6132022,50.0380611 37.818815,49.2759545 C35.0244279,48.513848 19.9093354,49.8475392 19.9093354,49.8475392 Z" id="Shape" fill="#2F2E41" fill-rule="nonzero"></path>
                <circle id="Oval" fill="#FFB9B9" fill-rule="nonzero" cx="27.2763574" cy="12.8219044" r="4.38210815"></circle>
                <g id="Group" transform="translate(3.134796, 18.614897)" fill-rule="nonzero">
                    <path d="M24.3955972,6.40069906 C24.3955972,6.40069906 23.9510345,3.66982132 23.9510345,3.16174922 C23.9510345,2.65367712 21.9822618,2.3361348 21.9822618,2.3361348 C21.9822618,2.3361348 20.4580502,0.621401254 20.1405063,0.875432602 C19.8229624,1.12946395 14.9962931,4.36841693 14.2341881,4.81297806 C13.4720831,5.25753918 12.6464671,7.16280408 12.7099765,7.28982132 C12.7734859,7.41683856 16.7110313,15.6729843 16.7110313,15.6729843 C16.7110313,15.6729843 18.4257649,20.7536897 17.2191019,23.4210596 C16.0124389,26.0884295 14.4882241,31.3596599 16.7110313,32.4393103 C18.9338386,33.5189608 29.730337,35.8687774 31.6991097,33.8365031 C33.6678824,31.8042288 35.0650768,31.2326426 35.5731473,31.2326426 C36.0812179,31.2326426 33.4773558,22.4049185 34.0489357,21.5793041 C34.6205157,20.7536897 33.7948997,15.6094765 33.7948997,15.6094765 L36.7163056,7.41684326 C36.7163056,7.41684326 36.4622696,2.84420846 30.6829687,1.8280674 L27.2255486,0.151724138 L24.3955972,6.40069906 Z" id="Shape" fill="#575A89"></path>
                    <path d="M12.5194498,32.3758009 C12.5194498,32.3758009 12.201906,35.4242241 12.201906,36.3133464 C12.201906,37.2024687 10.6776944,42.4101928 12.9004953,43.0452806 C15.1232962,43.6803683 14.9327837,36.1228197 14.9327837,36.1228197 L14.9327837,32.2487837 L12.5194498,32.3758009 Z" id="Shape" fill="#FFB9B9"></path>
                    <path d="M38.875605,29.5179044 C38.875605,29.5179044 39.2566583,32.4393103 39.0661317,33.0743981 C38.875605,33.7094859 40.9078871,39.2347524 38.1770078,39.5522978 C35.4461285,39.8698433 36.1447194,32.9473809 36.1447194,32.9473809 L36.1447194,29.5179138 L38.875605,29.5179044 Z" id="Shape" fill="#FFB9B9"></path>
                    <path d="M11.9478699,50.7933542 L13.7896254,41.0129984 L14.3612053,41.0129984 C15.1736238,42.0603589 15.3895992,43.4521988 14.9327853,44.6965094 C14.1706787,46.8558088 13.5355909,50.7933542 13.5355909,50.7933542 L11.9478699,50.7933542 Z" id="Shape" fill="#2F2E41"></path>
                    <path d="M13.6626082,6.5277163 L12.7099765,7.28982132 C12.7099765,7.28982132 11.4398009,27.4856223 11.7573448,29.0098339 C12.0748887,30.5340455 10.614185,32.6933448 11.8843621,32.8838715 C13.1545392,33.0743981 14.6787492,33.9000157 15.3773464,33.391942 C16.0759436,32.8838683 16.2029608,31.042116 16.4569953,30.5975549 C16.7110298,30.1529937 17.1555846,24.8817618 17.1555846,24.8817618 C17.1555846,24.8817618 18.4892696,19.6105313 17.6636552,15.6729843 C16.8380408,11.7354373 16.0759357,7.73438401 16.0759357,7.73438401 L13.6626082,6.5277163 Z" id="Shape" fill="#575A89"></path>
                    <path d="M33.7948997,4.93999687 L36.7163009,7.41684013 L38.9391082,20.3726395 C38.9391082,20.3726395 40.3363025,30.4705392 39.2566536,30.5975611 C38.1770047,30.7245831 36.5257759,30.4070345 35.8271771,30.5975611 C35.1285784,30.7880878 34.5570016,30.2800157 34.5570016,30.2800157 C34.5570016,30.2800157 33.794895,26.215453 33.794895,26.1519436 C33.794895,26.0884342 33.2868339,21.4522853 33.2868339,21.4522853 L32.6517461,16.2445643 L33.6043777,10.5287712 L33.7948997,4.93999687 Z" id="Shape" fill="#575A89"></path>
                    <path d="M20.013489,64.8923103 C20.013489,64.8923103 19.6006818,66.0780188 19.0316458,67.6924107 C18.7674467,68.4430862 18.4695862,69.2871207 18.162837,70.147663 C17.965326,70.7040016 17.7646426,71.2673245 17.5671238,71.8173088 C17.2521223,72.6969075 16.9460063,73.5415752 16.6786364,74.2668386 C16.3255235,75.2239169 16.0390987,75.9739561 15.8854122,76.3238918 C15.1868229,77.9116129 2.42154545,75.3712602 1.40540439,74.7361724 C0.389263323,74.1010846 0.135227273,71.9417837 0.00821003135,68.8933621 C0.00757523511,68.8774843 0.00693887147,68.8616066 0.00693887147,68.8457304 C-0.00957366771,68.2303292 0.147291536,67.3138981 0.409590909,66.2386944 C0.540413793,65.7014091 0.697915361,65.1247445 0.873200627,64.5258605 C1.10818652,63.7224718 1.37492476,62.880348 1.65371787,62.0420313 C2.8515,58.4410815 4.26330094,54.9214248 4.26330094,54.9214248 C4.26330094,54.9214248 6.7401442,53.2066912 7.62926646,52.0635282 C8.51838871,50.9203652 13.4085768,50.0312398 13.4085768,50.0312398 C14.8057696,50.0947492 17.98121,55.4929953 19.2513871,57.1442257 C20.5215643,58.7954561 20.013489,64.8923103 20.013489,64.8923103 Z" id="Shape" fill="#3F3D56"></path>
                </g>
                <circle id="Oval" fill="#2F2E41" fill-rule="nonzero" cx="16.0352994" cy="73.2822884" r="1"></circle>
                <circle id="Oval" fill="#2F2E41" fill-rule="nonzero" cx="16.9244216" cy="73.9173762" r="1"></circle>
                <path d="M22.166442,86.3073072 C21.9022429,87.0579828 21.6043824,87.9020172 21.2976332,88.7625596 L4.00800157,83.1407586 C4.24298746,82.3373699 4.50972571,81.4952461 4.78851881,80.6569295 L22.166442,86.3073072 Z" id="Shape" fill="#F2F2F2" fill-rule="nonzero"></path>
                <path d="M20.7019248,90.4322053 C20.3869232,91.3118041 20.0808072,92.1564718 19.8134373,92.8817351 L3.14173981,87.4606301 C3.12522727,86.8452288 3.28209248,85.9287978 3.54439185,84.853594 L20.7019248,90.4322053 Z" id="Shape" fill="#F2F2F2" fill-rule="nonzero"></path>
                <path d="M16.0352994,73.4093056 C16.0352994,73.4093056 17.3054749,78.9980815 16.5433699,83.951768 C15.7812649,88.9054545 18.4486332,93.5415987 18.4486332,93.5415987" id="Shape" stroke="#2F2E41" stroke-width="3"></path>
                <path d="M16.9244216,73.8538683 C16.9244216,73.8538683 14.4475784,82.8721191 14.3840705,84.1422947 C14.3205627,85.4124702 13.3044201,94.4942304 12.0342445,95.4468621" id="Shape" stroke="#2F2E41" stroke-width="3"></path>
                <path d="M23.9121426,10.1478448 C23.9121426,10.1478448 22.920221,7.56884796 24.3585078,6.7257163 L24.7552759,7.86642633 C24.7552759,7.86642633 28.3757884,5.68419906 29.3181129,6.18015987 L28.425384,7.37046552 C28.425384,7.37046552 32.6410486,7.37046552 32.9386254,9.00714263 L31.4507429,9.05673824 C31.4507429,9.05673824 33.0378182,10.0982555 33.0874201,11.7845219 L29.9132727,11.982906 L31.4507492,12.8756348 C31.4507492,12.8756348 25.6976144,13.6691708 24.3089169,11.3877524 L23.9121426,10.1478448 Z" id="Shape" fill="#2F2E41" fill-rule="nonzero"></path>
                <path d="M23.0530219,10.2497978 C23.0530219,10.2497978 24.1961803,12.5361144 25.7203918,11.9645313 C27.2446034,11.3929483 25.7203918,9.29716144 25.7203918,9.29716144 L24.7042476,8.78909091 L23.0530219,10.2497978 Z" id="Shape" fill="#2F2E41" fill-rule="nonzero"></path>
                <path d="M121.630094,46.3188009 L100.901185,20.4154263 C99.9599539,21.2761985 98.8002773,21.861762 97.5488245,22.1081567 C93.6463934,22.8767085 89.835315,20.2117931 89.0365408,16.1559028 C88.475389,13.4222158 89.4746127,10.6026192 91.6319138,8.83231191 L84.5639498,6.26959246e-06 L44.2969922,34.4143088 L81.3631364,80.7331176 L121.630094,46.3188009 Z" id="Shape" fill="#F2F2F2" fill-rule="nonzero"></path>
                <circle id="Oval" fill="#F2F2F2" fill-rule="nonzero" cx="95.873652" cy="15.0336426" r="5.84382915"></circle>
                <polygon id="Shape" fill="#6C63FF" fill-rule="nonzero" transform="translate(61.425930, 44.709998) rotate(-49.170440) translate(-61.425930, -44.709998) " points="60.0585324 40.7293637 62.7933286 40.7293637 62.7933286 48.6906333 60.0585324 48.6906333"></polygon>
                <polygon id="Shape" fill="#6C63FF" fill-rule="nonzero" transform="translate(99.808104, 81.420676) rotate(-49.170440) translate(-99.808104, -81.420676) " points="98.4407062 77.8922139 101.175502 77.8922139 101.175502 84.9491387 98.4407062 84.9491387"></polygon>
                <path d="M107.680251,62.6662038 L107.680251,62.826652 C107.676601,63.2295705 107.665054,63.6306724 107.645611,64.0299577 C106.924003,78.2165118 95.2591291,89.3759669 81.0545383,89.4688855 C66.8499474,89.561804 55.04008,78.5559076 54.1329404,64.3800078 C54.0964723,63.8129974 54.0782382,63.241733 54.0782382,62.6662147 C54.0686186,57.1152685 55.7913892,51.6996666 59.0063464,47.1744984 C59.2634122,46.8098589 59.5308103,46.4519075 59.8085408,46.1006442 C59.9999734,45.8563307 60.1968824,45.6174922 60.395616,45.3804796 C69.8065262,34.2315963 86.4056593,32.6564367 97.7456364,41.8361834 C98.0683464,42.0968981 98.3855815,42.3667288 98.6955157,42.6420329 C98.9434781,42.8626442 99.1871792,43.0881144 99.4266191,43.3184436 C104.142427,47.8292597 107.045064,53.9094791 107.587266,60.4127335 C107.649256,61.1565914 107.680251,61.9077482 107.680251,62.6662038 Z" id="Shape" fill="#D2D0FF" fill-rule="nonzero"></path>
                <path d="M80.8792476,92.8401223 C64.2413245,92.8401223 50.7053292,79.304127 50.7053292,62.6662038 C50.6954828,55.0539165 53.5726001,47.7210875 58.7564263,42.1465956 L59.4246348,42.766732 C54.3974625,48.1727419 51.6073172,55.2839743 51.6169279,62.6662038 C51.6169279,78.8015016 64.7439498,91.9285235 80.8792476,91.9285235 C88.8014728,91.9553034 96.3905177,88.7433039 101.886436,83.0374075 L102.540934,83.6719671 C96.8737976,89.5556568 89.0483038,92.8677415 80.8792476,92.8401223 Z" id="Shape" fill="#6C63FF" fill-rule="nonzero"></path>
                <polygon id="Shape" fill="#6C63FF" fill-rule="nonzero" points="77.5974922 92.2020031 85.2549216 92.2020031 85.2549216 99.8594326 77.5974922 99.8594326"></polygon>
                <path d="M59.8085549,46.1006332 C59.8216924,46.1061467 59.8339719,46.1135148 59.8450188,46.1225125 C59.9890502,46.2410204 59.8085549,46.4689201 59.8304326,46.6567085 C59.8559577,46.8973715 60.1768401,46.9502445 60.419326,46.9739498 C60.6618103,46.9994749 60.9681082,47.1945564 60.8532461,47.4096944 C60.2442978,47.6193621 59.628058,47.4133401 59.006348,47.1745016 C55.7913953,51.6996694 54.0686267,57.1152683 54.0782445,62.6662116 C54.0782445,63.2423412 54.0964786,63.8136097 54.1329467,64.3800172 C54.1839231,64.4172153 54.2397428,64.4472738 54.2988574,64.4693589 C54.4811771,64.5386379 54.6926677,64.5258793 54.8604028,64.6243307 C54.9934953,64.7027288 55.0828323,64.8412915 55.2159263,64.9142194 C55.5969749,65.1220643 56.1257022,64.7227837 56.4812257,64.9707382 C56.573121,65.054439 56.6601677,65.1433127 56.741942,65.2369263 C57.0701176,65.5213448 57.6097837,65.3299091 57.9890094,65.5432226 C58.2333182,65.6799624 58.3591191,65.953442 58.4903887,66.2013966 C58.8167414,66.8212837 59.3454687,67.4302367 60.0437524,67.479453 C60.2639846,67.4693417 60.4846716,67.476657 60.7037508,67.5013307 C60.9188871,67.5505564 61.1303793,67.7383464 61.0957382,67.9553072 C61.0355721,68.3290627 61.2197194,68.7374592 61.170489,69.1112147 C61.0811473,69.7949138 60.1130345,70.0939169 60.0309906,70.777616 C60.0307185,70.9280799 60.0221973,71.0784157 60.0054655,71.2279467 C59.9617085,71.4066191 59.8267931,71.5524749 59.7793887,71.7311489 C59.6882288,72.0684404 59.9307147,72.405732 60.1950784,72.6318088 C60.4612649,72.8597085 60.7785016,73.0566129 60.9243574,73.3738495 C61.0775063,73.7111411 61.0027555,74.1031285 61.0519812,74.4695909 C61.161373,75.2699749 61.8523652,75.8625141 62.5634122,76.2453856 C62.7912717,76.3406147 62.9936018,76.4879908 63.1541285,76.6756599 C63.3364483,76.9400235 63.3182163,77.2882555 63.3802038,77.6036677 C63.5297069,78.3748809 64.1787649,79.0111771 64.1969969,79.7969749 C64.2097586,80.3566928 63.8998182,80.8635455 63.7138495,81.3904498 C63.5225451,81.9428094 63.4656696,82.5328155 63.5479389,83.111547 C64.5874921,83.9932201 65.6924867,84.7946918 66.853395,85.5090517 C66.9165418,85.4157382 66.9628237,85.3120672 66.9901348,85.2027555 C67.0352828,84.9552984 66.9228101,84.705687 66.7075329,84.5755752 C66.9034779,84.5015449 67.08173,84.387265 67.2307915,84.2401066 C67.3808008,84.0858255 67.4186512,83.8543528 67.3255972,83.660326 C67.6464796,83.7004357 68.0275282,83.7204906 68.2390188,83.4743589 C68.4085768,83.2774545 68.3976395,82.9820956 68.3301787,82.7323182 C68.2376029,82.4894787 68.1763366,82.2358362 68.1478589,81.9775141 C68.8913019,82.0137085 69.6364622,81.9887074 70.3758072,81.9027633 C70.2688173,81.5421375 70.0255363,81.2373828 69.6975768,81.0531536 C70.0330455,80.9966332 70.3375204,80.5955298 70.4432649,80.2728245 C70.5347124,79.9435893 70.5397361,79.5963384 70.4578511,79.2645956 C70.4324912,79.1793435 70.4287321,79.0891227 70.4469122,79.0020564 C70.5008477,78.8864324 70.5956665,78.7948603 70.7130987,78.7449843 C71.2673506,78.4259248 71.8216024,78.1074734 72.3758542,77.7896301 C72.4747507,77.7397537 72.564698,77.673833 72.6420408,77.594547 C72.8152382,77.3885266 72.789721,77.080406 72.700384,76.8269812 C72.611047,76.5735564 72.468837,76.3347179 72.4341975,76.0685313 C72.3320972,75.2717931 73.1853542,74.6993103 73.4734201,73.9481552 C73.5713586,73.6482922 73.6242004,73.3355417 73.6302147,73.0201473 C73.6539154,72.6810329 73.6557398,72.2890455 73.3968448,72.0720846 C73.1470674,71.8624169 72.7587257,71.9098213 72.4980094,71.7147382 C72.2591693,71.5360658 72.1771254,71.1914812 71.9164091,71.0474483 C71.6793934,70.9161787 71.3840345,71.0000455 71.1196708,70.9380564 C70.6565799,70.8304875 70.3648683,70.2962915 69.8908307,70.2470643 C69.6246426,70.2178934 69.3219922,70.349163 69.1032132,70.1941912 C68.909953,70.0556332 68.9026614,69.780326 68.8661975,69.5469561 C68.7336146,68.802505 68.1517573,68.2191934 67.4076395,68.0847524 C67.132337,68.0409953 66.8333323,68.0574044 66.5981395,67.9060784 C66.3611238,67.752931 66.2535564,67.4666881 66.0657665,67.2533746 C65.7667618,66.9124357 65.2927257,66.7902821 64.8496944,66.6863605 C64.2480392,66.5459739 63.6469943,66.4049796 63.0465596,66.2633777 C62.7275,66.1868041 62.3154577,66.1466928 62.1422539,66.4274655 C62.0909941,66.5342359 62.0553798,66.6478326 62.0365078,66.7647571 C61.9029321,67.1963491 61.5073506,67.4934038 61.0556301,67.5013292 C60.9048604,67.2438943 60.6606258,67.0545142 60.3737555,66.9726019 C60.1863078,66.9411369 60.0011513,66.8972843 59.8195031,66.8413323 C59.6277744,66.7474018 59.4831774,66.578675 59.4197114,66.3748248 C59.3562453,66.1709746 59.3795098,65.9499864 59.4840345,65.7638213 C59.6965409,65.3834994 59.6286201,64.9080525 59.3181238,64.6024451 C59.011826,64.3271426 58.56879,64.2596834 58.1567461,64.2870313 C58.0491787,64.0518401 58.229674,63.7874765 58.4229342,63.6160956 C58.6180157,63.4465376 58.8532085,63.2788041 58.8951411,63.0235564 C58.9626003,62.6224592 58.4502821,62.3179781 58.0619404,62.4364859 C57.6735987,62.5568182 57.4256442,62.9342194 57.2615564,63.306152 C57.1819734,63.5256169 57.0734462,63.7334745 56.9388511,63.9242163 C56.798229,64.1166278 56.5615241,64.2138456 56.3262571,64.1758166 C56.005373,64.0937727 55.8832194,63.7127241 55.8121144,63.3918417 C55.6981742,62.9629626 55.6405629,62.5210729 55.6407335,62.0773166 C55.6435214,61.6291837 55.8215084,61.1999219 56.1366442,60.8812994 C56.6671944,60.3926818 57.4839796,60.4400768 58.2005031,60.5184828 C58.0417161,60.3067065 58.0651508,60.0099007 58.2552053,59.8256677 C58.4498767,59.6528079 58.7173825,59.5872965 58.9698997,59.6506411 C59.1859204,59.6953676 59.3805482,59.8116305 59.5223276,59.9806395 C59.7265266,60.2286019 59.7848668,60.5658856 59.9380172,60.8466583 C60.092989,61.1292602 60.4393966,61.3699154 60.7219922,61.2185909 C60.9681238,61.0873197 61.0064107,60.7482053 60.9462445,60.4765486 C60.8842571,60.2067163 60.7548088,59.9423527 60.7766881,59.6652257 C60.8186207,59.1383229 61.3674044,58.8192633 61.8505517,58.6023025 C62.3336991,58.3853417 62.8861317,58.0918009 62.9627022,57.5667226 C62.9662406,57.4645991 62.9859318,57.3636806 63.0210439,57.2677179 C63.0745121,57.1820542 63.1492605,57.1117031 63.2380047,57.0635204 C64.6473354,56.1318589 66.0821928,55.1874498 67.6938997,54.6787774 C67.7777665,54.6514295 67.7868824,54.6806019 67.8725721,54.6605455 C67.9929028,54.5912665 67.9126834,54.3998292 67.7978213,54.3232539 C67.6829592,54.2466787 67.5298119,54.1865141 67.5006426,54.0515987 C67.4805799,53.9531458 67.538931,53.8546928 67.5535157,53.7544201 C67.5612552,53.6314332 67.5074284,53.5126285 67.409862,53.4373526 C67.3122956,53.3620766 67.1837218,53.3401527 67.0667226,53.3788417 C66.9372759,53.2074608 67.1925235,53.008732 67.4003668,52.9503903 C68.022683,52.7799144 68.6613456,52.6760171 69.3056082,52.6404467 C69.3799711,52.6281636 69.456307,52.6409932 69.522569,52.6769107 C69.6209258,52.7718241 69.6281248,52.9269991 69.5389781,53.0306113 C69.4512605,53.1280345 69.3541624,53.216583 69.2490893,53.2949749 C69.0358657,53.5020727 68.9557256,53.8106815 69.0412445,54.0953574 C69.3785361,54.2667382 69.7431755,54.4435893 70.116931,54.3834232 C70.4888636,54.3232571 70.8188621,53.9039216 70.6438354,53.5702774 C70.4815705,53.258511 69.9911317,53.187406 69.9072633,52.8464671 C69.8088119,52.4471881 70.3740031,52.0916646 70.2463793,51.7015 C70.1916771,51.5301191 70.0203025,51.4280204 69.8890313,51.3058652 C69.5728824,50.9945969 69.4795652,50.5214982 69.6538401,50.1134953 C69.2207591,50.1891625 68.7778345,50.0505787 68.4651144,49.7415627 C68.1806959,49.4553197 67.9546129,49.0013448 67.5498699,49.0159295 C67.1797602,49.0268683 66.8607006,49.4589671 66.51429,49.3276959 C66.4286003,49.2948793 66.3392633,49.2292445 66.2572194,49.2675313 C66.2023842,49.3027841 66.1667639,49.3612556 66.1605893,49.426152 C66.0730768,49.8473119 66.2244013,50.3268119 65.9946787,50.6914514 C65.7449013,51.0870846 65.1669467,51.1417806 64.8642962,51.4991317 C64.7002085,51.6923918 64.6363966,51.9531066 64.4850721,52.1573056 C64.3337476,52.3615047 64.0146865,52.4927743 63.8323668,52.3141003 C64.0162523,51.9371353 63.9148499,51.4830954 63.588058,51.2201818 C63.4201327,51.1099576 63.2387645,51.0217248 63.0483918,50.9576426 C62.8357315,50.8678929 62.6333967,50.7554166 62.4449138,50.622174 C62.3509814,50.5649591 62.2746475,50.4829473 62.2243072,50.3851583 C62.1844733,50.2621982 62.1896397,50.1290827 62.238884,50.0095799 C62.4269987,49.4729726 62.8963349,49.0843144 63.4586034,48.9995282 C63.6992649,48.9667116 63.9800376,48.9776505 64.1404796,48.7935078 C64.2243464,48.6968777 64.2681034,48.5491991 64.3920799,48.510906 C64.4701825,48.4945963 64.5514732,48.5041975 64.623627,48.5382539 C64.9244545,48.6439984 65.2234592,48.7497445 65.5242868,48.8554953 C65.6245941,48.9015002 65.7354049,48.9197584 65.8451693,48.9083668 C65.9580694,48.8938069 66.0402538,48.7940682 66.0329577,48.6804671 C66.0037868,48.5309655 65.7740643,48.4598605 65.795942,48.3085361 C65.8065708,48.2590956 65.8327704,48.2143652 65.8706944,48.1809122 C66.5290856,47.4806131 67.4657867,47.11088 68.4249937,47.1726834 C68.5380313,47.3604734 68.3593589,47.5810799 68.2080329,47.7396975 C68.0585313,47.9001395 67.9381991,48.184558 68.1205188,48.3067116 C68.1940639,48.3452882 68.2763552,48.3641355 68.3593589,48.3614138 C68.5810615,48.3911572 68.7965267,48.4564128 68.9974781,48.554674 C69.3092445,48.6895893 69.6155408,48.8390925 69.9145455,48.9995329 C69.8705287,48.8040587 69.8780682,48.6005006 69.9364248,48.4088182 C70.0046869,48.2138665 70.2098266,48.1026172 70.4104561,48.1517461 C70.5891285,48.2210251 70.6802884,48.4580439 70.8717241,48.4799216 C71.1251489,48.509094 71.2254248,48.1335141 71.1196865,47.9001411 C71.0139483,47.666768 70.8024451,47.4735125 70.7860423,47.216442 C70.773279,47.0450611 70.8389154,46.8317476 70.7021755,46.7278245 C70.6535634,46.6956164 70.5979023,46.6756037 70.5399107,46.6694828 C69.394942,46.459815 68.2493662,46.2495397 67.1031834,46.0386567 C66.8989843,46.0003683 66.6054498,46.0295408 66.5963339,46.2355611 C66.5908652,46.3522461 66.6947868,46.4671082 66.6492069,46.5728527 C66.5999812,46.6858918 66.4395392,46.6767712 66.3228542,46.7168856 C66.1427297,46.7985984 66.0385749,46.9897966 66.0676066,47.1854467 C66.098776,47.3750272 66.1723143,47.5551332 66.2827445,47.7123511 C66.0584906,47.6193683 65.7211991,47.6029592 65.4969467,47.5081536 C65.4643235,47.2484877 65.3981353,46.9941542 65.3000408,46.7515266 C65.2886871,46.6733604 65.2433143,46.6042297 65.1761174,46.5627152 C65.1089206,46.5212008 65.0267936,46.5115617 64.9518103,46.5363887 C64.6564514,46.5819687 64.361094,46.6257304 64.0657367,46.6713056 C63.9915664,46.6748255 63.9205454,46.7023382 63.8633605,46.7497038 C63.7485,46.8718574 63.8615376,47.0669451 63.8578918,47.234674 C63.835998,47.4269189 63.6947874,47.5842243 63.506011,47.6266614 C63.3204547,47.6643391 63.1289822,47.6618524 62.9444671,47.6193683 C62.5306003,47.5555564 62.118558,47.4917445 61.7046928,47.4279326 C62.0700067,47.311523 62.3949059,47.0940804 62.641815,46.8007524 C62.8059028,46.6074922 62.8934169,46.2465 62.6564013,46.1553401 C62.5864057,46.1361174 62.5133644,46.1305469 62.4412633,46.1389326 C61.8797194,46.1425784 61.4366818,45.6740172 60.9116019,45.4752962 C60.7464975,45.4137039 60.5718516,45.3816132 60.3956364,45.380489 L59.8085549,46.1006332 Z" id="Shape" fill="#6C63FF" fill-rule="nonzero"></path>
                <path d="M107.645611,64.0299545 C107.515055,64.2052175 107.306032,64.3042644 107.087713,64.2943182 C106.517052,64.2450925 106.27639,63.4228307 105.711199,63.3298464 C105.661195,63.3170422 105.608283,63.3222046 105.561697,63.3444326 C105.477829,63.3900125 105.463245,63.5030533 105.457779,63.5978574 C105.434078,64.0682335 105.414022,64.5568589 105.598166,64.9907806 C105.866176,65.6252524 106.560813,66.157627 106.414958,66.8303856 C105.630983,66.4675705 105.222586,65.5869687 105.038444,64.7428245 C104.852478,63.898685 104.823307,63.0126113 104.491484,62.2140502 C104.23806,62.5367555 103.709332,62.270569 103.47961,61.9314483 C103.260826,61.6105658 103.125909,61.2386332 102.914418,60.9122806 C102.702928,60.5877524 102.378398,60.2960408 101.991881,60.2778088 C101.585307,60.2595768 101.231608,60.5385251 100.921661,60.8028871 C100.652034,61.0020524 100.425641,61.253876 100.256194,61.543105 C100.039234,61.9806724 100.095752,62.494815 100.084813,62.9816082 C100.073875,63.5066865 99.9626583,64.0627649 99.603489,64.4492821 C99.2443197,64.8339765 98.5824984,64.9688934 98.1868652,64.620663 C97.995573,64.421241 97.8592589,64.1756251 97.7912304,63.9077931 C97.3611125,62.6542945 97.0031794,61.377178 96.7191912,60.0827241 C96.6535549,60.3780831 96.3928386,60.7591301 96.144884,60.5859263 C96.0894461,60.5387769 96.0446948,60.4803524 96.0136129,60.414547 C95.5505204,59.632395 94.695442,59.1620094 93.8294232,58.8794138 C92.9652273,58.5986411 92.0554514,58.4673715 91.2003715,58.1574279 C90.7208479,57.9832989 90.2627064,57.7551455 89.8347962,57.4773746 C89.6133842,57.80354 89.5881979,58.2247129 89.7691614,58.5749404 C89.9667616,58.9208256 90.3722223,59.0906399 90.7573354,58.9888056 C90.9469467,58.9268166 91.1073887,58.7955455 91.2951787,58.7299122 C91.4829671,58.6661003 91.7363918,58.697094 91.8184357,58.8794138 C91.8986567,59.0526113 91.778326,59.2622853 91.8384906,59.444605 C91.9278323,59.7199075 92.3453401,59.7417837 92.4911959,59.9933871 C92.5791878,60.1978984 92.5237585,60.4358751 92.3544561,60.5804577 C92.1866617,60.7172591 92.0015232,60.8312845 91.8038495,60.9195721 C91.1912555,61.2605094 90.755511,61.8421097 90.2194922,62.2942633 C89.6834718,62.7482398 88.9268448,63.0782382 88.2887257,62.7883495 C88.4400502,62.0171364 87.5229828,61.4519451 87.3534248,60.6843793 C87.296906,60.4309545 87.3260768,60.1629451 87.2476803,59.9168135 C87.1328182,59.5594671 86.8155815,59.3151583 86.5566881,59.0453245 C85.9212674,58.376107 85.5827318,57.4788235 85.6177414,56.5566599 C85.6323182,56.2394185 85.6906693,55.9167179 85.6177414,55.6067743 C85.5466364,55.2986536 85.2895658,54.9996505 84.9723292,55.0124169 C84.2485204,55.0452351 83.3350972,55.099931 82.9558715,54.4818668 C82.8191317,54.2612602 82.7607884,53.9385533 82.9576944,53.7689969 C83.1131542,53.6704572 83.3016025,53.6382813 83.4809514,53.6796552 C84.0260925,53.7325282 84.5694013,53.7872241 85.1145376,53.8400956 C85.4955846,53.8765596 85.9076285,53.9075549 86.2358041,53.708826 C86.5639796,53.5100972 86.7061803,52.979547 86.4017147,52.7443542 C86.1811082,52.5729734 85.7836505,52.5820893 85.7180157,52.3104342 C85.6651426,52.0825345 85.9167445,51.8254624 85.7800047,51.6340266 C85.6833746,51.4991113 85.4645909,51.5355752 85.3314969,51.637674 C85.2153548,51.758253 85.0890924,51.8686565 84.9540956,51.9676724 C84.6933777,52.1025893 84.3834342,51.9731426 84.102663,51.8856285 C83.8218918,51.7981144 83.4463119,51.7908229 83.311395,52.0515392 C83.1582461,52.3414279 83.4444875,52.7242994 83.2949859,53.016011 C83.0944342,53.4007053 82.4198511,53.1819216 82.1390784,53.5137445 C81.8181959,53.8929687 82.3578621,54.4618072 82.2502931,54.9467774 C81.9685551,55.0865094 81.6340984,55.0678127 81.3696897,54.8975502 C81.1097539,54.7207494 80.9682119,54.4152439 81.0014028,54.1026364 C81.0269279,53.8838527 81.14179,53.6596003 81.0652147,53.4535768 C80.9826436,53.2944711 80.8463381,53.1697921 80.6805204,53.1016959 C80.1517931,52.808162 79.6230658,52.5158422 79.0943386,52.2247367 C78.9466599,52.4982163 79.1326254,52.8355078 79.3659953,53.0415298 C79.5975408,53.2457273 79.8892524,53.4006991 80.0424013,53.6705266 C80.2436918,54.0587272 80.1078586,54.5365398 79.7324577,54.7607978 C79.6861252,54.7926656 79.628166,54.8026584 79.573837,54.7881458 C79.5227761,54.7581776 79.485965,54.7088768 79.4717382,54.651406 C79.1927884,53.9348903 78.7716301,53.2293056 78.1006928,52.8555564 C77.4279326,52.4799781 76.4634624,52.5583777 76.0222476,53.1873746 C75.9183292,53.3368762 75.847221,53.5082571 75.7560611,53.6668746 C75.2729138,54.5073699 74.2336912,54.904826 73.2637508,54.8793009 C73.1688789,54.8853826 73.074336,54.8631746 72.992094,54.815489 C72.8352994,54.7079216 72.8425909,54.4781975 72.8662931,54.2885862 C72.9009326,54.0205752 72.9337508,53.7543887 72.9683918,53.4863793 C72.9692326,53.3227376 73.0324855,53.1655838 73.1452429,53.0469875 C73.3257382,52.904779 73.5846332,52.994116 73.8143558,52.9904687 C74.1695852,52.974637 74.4766689,52.737577 74.5819216,52.3979295 C74.6761062,52.0569979 74.5736123,51.6919504 74.3157351,51.4498668 C74.2118166,51.3514138 74.0714263,51.2274373 74.1261223,51.0943433 C74.1711166,51.0201436 74.246455,50.9694756 74.3321442,50.9557853 C74.7423636,50.8372774 75.1781082,50.8062837 75.5810345,50.6640737 C75.9857837,50.5236881 76.3777712,50.2356223 76.4744013,49.8181097 C76.5035721,49.6904859 76.5163339,49.5355078 76.6311959,49.4717022 C76.6892071,49.4484302 76.7510162,49.4360684 76.8135157,49.4352382 C77.2678662,49.3701192 77.5975714,48.9692545 77.5737884,48.5108777 C77.7670486,48.3759608 78.0387038,48.4762382 78.2264937,48.6202696 C78.4124592,48.7643025 78.5783746,48.9539138 78.8062743,49.0159028 C79.2310784,49.1325878 79.6412978,48.7551865 80.0825125,48.7533636 C80.2684781,48.7533636 80.4599138,48.819 80.6331176,48.7551881 C80.8099671,48.6913762 80.9157194,48.516348 81.0506301,48.3869013 C81.1873699,48.2556317 81.4243856,48.1772335 81.5501865,48.3176223 C81.5137226,48.0532586 81.4790815,47.7907179 81.4426176,47.5281771 C81.8771912,47.6376179 82.337859,47.5538605 82.7060972,47.2984545 C82.246652,47.1434828 81.7890298,46.988511 81.3295831,46.8335392 C81.2813169,46.8216416 81.2368085,46.797821 81.2001364,46.7642602 C81.0998605,46.6566912 81.2001364,46.4889577 81.2803574,46.3668041 C81.4754389,46.073268 81.5082571,45.5901207 81.1873746,45.4442649 C80.9685909,45.343989 80.7188119,45.4643276 80.5091442,45.5810047 C80.1736771,45.7669718 79.8382085,45.9547602 79.5027398,46.1407226 C79.4717461,46.3321583 79.7051144,46.4415502 79.8491473,46.569174 C80.0288043,46.728543 80.091882,46.9820295 80.007867,47.2070108 C79.923852,47.4319921 79.7100639,47.5820883 79.4699216,47.5846912 C79.6037451,47.7593936 79.6513329,47.9852668 79.5993699,48.1991113 C79.375116,48.2155188 79.1490392,48.2319279 78.9229624,48.248337 C78.8471173,48.2634576 78.7683737,48.2477088 78.7041787,48.2045799 C78.6312508,48.140768 78.6421912,48.0277304 78.6239592,47.9329232 C78.5624957,47.7010785 78.3661242,47.5299759 78.1280486,47.500826 C77.8957768,47.4747026 77.6606159,47.4964193 77.4370564,47.5646379 C77.3398551,47.5988831 77.2334694,47.5962882 77.1380533,47.5573448 C77.0839297,47.5215322 77.0429632,47.4690443 77.0213683,47.4078433 C76.9406565,47.1535669 76.9987395,46.8755984 77.1745172,46.6749169 C77.3495971,46.4804891 77.5424807,46.3028653 77.7506473,46.1443668 C78.2224089,45.7313521 78.5691375,45.1945256 78.7515878,44.5946489 C79.1235188,44.4378542 79.5082147,44.2263636 79.8819702,44.0695705 C80.1824395,43.93032 80.4973155,43.8245459 80.8209169,43.7541567 C81.1254705,43.7076467 81.4340399,43.6929819 81.7416317,43.7103997 C82.1609671,43.7176928 82.5821254,43.7249859 83.0014608,43.7341019 C83.3757812,43.7183725 83.749775,43.7721543 84.1044953,43.8927226 C84.4490799,44.0349326 84.7535549,44.3430533 84.7772555,44.7149796 C84.7918321,44.8011603 84.7607966,44.8887496 84.6952116,44.9465266 C84.6467947,44.9732921 84.5918356,44.9859262 84.5365909,44.9829906 C84.1883605,44.9939295 84.0406818,45.0814436 83.6924514,45.0942053 C83.913058,45.3293981 84.1610125,45.5773527 84.481895,45.6192837 C85.0470862,45.6922116 85.4536599,45.1069639 85.7143762,44.5982931 C85.7337531,44.8675568 85.9643254,45.0722398 86.2339875,45.0595611 C86.3736627,45.0355466 86.5070144,44.9834463 86.6259749,44.9064122 C87.7473909,44.2935493 89.0035479,43.9690162 90.2814859,43.9619969 C90.2554982,43.7615767 90.3855122,43.5740411 90.5823135,43.5280752 C90.8430313,43.4770266 91.0764013,43.7012727 91.2022006,43.9346489 C91.3261818,44.1680172 91.4045768,44.4378511 91.6051285,44.6128777 C91.8038558,44.7879044 92.1885517,44.7787884 92.2669483,44.5271881 C92.3435235,44.2847022 92.0900987,44.0768574 91.8804279,43.9328307 C91.6689373,43.7906207 91.4483292,43.5262571 91.5905392,43.3147665 C92.6625799,43.0759279 93.7437351,42.8389044 94.8431238,42.7915078 C95.0299751,42.7971665 95.2160363,42.7649161 95.3900831,42.6967022 C95.5672744,42.621655 95.6719659,42.4369496 95.6453307,42.246373 C95.1546922,42.3608765 94.6434609,42.1679045 94.3508605,41.7577555 C95.4794201,41.6647727 96.6608511,41.5827288 97.7456536,41.8361536 L98.6955392,42.6420063 C98.5150439,42.8297962 98.2743793,43.0066458 98.405652,43.1944357 C98.4933973,43.2818147 98.6163579,43.3241452 98.7392962,43.3092962 C98.9690188,43.3129436 99.1987429,43.3184122 99.4266426,43.3184122 C104.142441,47.8292367 107.045072,53.9094576 107.587274,60.4127116 C107.204403,60.3981348 106.852525,60.8830972 106.901752,61.3060784 C106.960094,61.7965172 107.313795,62.1903292 107.567219,62.6133119 C107.609175,62.6820745 107.646922,62.7533187 107.680251,62.826652 L107.645611,64.0299545 Z" id="Shape" fill="#6C63FF" fill-rule="nonzero"></path>
                <path d="M0,99.8372382 L139.184953,99.8372382" id="Shape" stroke="#F0EFFF" stroke-width="2"></path>
                <circle id="Oval" stroke="#3F3D56" stroke-width="2" cx="57.4219796" cy="10.2303558" r="2.3127837"></circle>
                <circle id="Oval" stroke="#3F3D56" stroke-width="2" cx="125.760538" cy="54.2742429" r="2.3127837"></circle>
                <circle id="Oval" stroke="#3F3D56" stroke-width="2" cx="109.971613" cy="31.2334906" r="2.3127837"></circle>
                <circle id="Oval" fill="#3F3D56" fill-rule="nonzero" cx="94.797453" cy="50.7713793" r="2.59545768"></circle>
                <circle id="Oval" fill="#FFFFFF" fill-rule="nonzero" cx="103.13461" cy="42.4290533" r="3.4212837"></circle>
                <path d="M106.594639,38.8822429 C104.682429,37.0168213 101.620054,37.0547494 99.7546301,38.9669577 C97.8892069,40.8791677 95.2259718,50.536047 95.2259718,50.536047 C95.2259718,50.536047 104.813931,47.6344624 106.679354,45.7222539 C108.544777,43.8100434 108.506849,40.7476669 106.594639,38.8822429 Z M101.569359,44.0335627 C100.920392,43.4004772 100.716688,42.4388008 101.053235,41.5969624 C101.389782,40.755124 102.200301,40.1989097 103.10685,40.1876818 C104.013398,40.1764538 104.837445,40.7124235 105.194738,41.5456684 C105.552031,42.3789133 105.372208,43.3453399 104.739119,43.9943041 C103.874654,44.8804473 102.455506,44.8980239 101.569359,44.0335627 Z" id="Shape" fill="#57B894" fill-rule="nonzero"></path>
            </g>
        </g>
    </g>
</svg>