<?xml version="1.0" encoding="UTF-8"?>
<svg width="129px" height="100px" viewBox="0 0 129 100" version="1.1" xmlns="http://www.w3.org/2000/svg" xmlns:xlink="http://www.w3.org/1999/xlink">
    <!-- Generator: Sketch 51.1 (57501) - http://www.bohemiancoding.com/sketch -->
    <title>02undraw_campfire_s6y4</title>
    <desc>Created with Sketch.</desc>
    <defs>
        <linearGradient x1="49.9963691%" y1="100.000203%" x2="49.9963691%" y2="0.00817588451%" id="linearGradient-1">
            <stop stop-color="#808080" stop-opacity="0.25" offset="0%"></stop>
            <stop stop-color="#808080" stop-opacity="0.12" offset="54%"></stop>
            <stop stop-color="#808080" stop-opacity="0.1" offset="100%"></stop>
        </linearGradient>
    </defs>
    <g id="Page-1" stroke="none" stroke-width="1" fill="none" fill-rule="evenodd">
        <g id="Custom-Preset" transform="translate(-176.000000, -57.000000)">
            <g id="undraw_campfire_s6y4" transform="translate(176.000000, 57.000000)">
                <ellipse id="Oval" fill="#6C63FF" fill-rule="nonzero" opacity="0.1" cx="105.754161" cy="79.9014085" rx="9.68501921" ry="1.63764405"></ellipse>
                <ellipse id="Oval" fill="#6C63FF" fill-rule="nonzero" opacity="0.1" cx="41.7708067" cy="87.5838668" rx="24.4071703" ry="4.16901408"></ellipse>
                <ellipse id="Oval" fill="#6C63FF" fill-rule="nonzero" opacity="0.1" cx="50.318822" cy="73.3918054" rx="50.318822" ry="5.33674776"></ellipse>
                <path d="M55.0256082,63.3508323 C55.0256082,63.3508323 54.3060179,65.4891165 53.4161332,66.1177977 C53.0025608,66.4110115 52.5505762,66.3738796 52.1190781,65.6453265 C51.9119537,65.3287485 51.799564,64.959595 51.7951344,64.581306 C51.8361076,63.1498079 54.1113956,62.7336748 54.1113956,62.7336748 C54.8028169,62.5339309 55.0256082,63.3508323 55.0256082,63.3508323 Z" id="Shape" fill="#363340" fill-rule="nonzero"></path>
                <path d="M75.2355954,65.3393086 C75.1608746,65.4620589 75.075162,65.5777709 74.9795134,65.6850192 C74.4673496,66.2650448 73.9705506,66.0332907 73.4878361,65.2765685 C73.4357661,65.1912079 73.3832693,65.1028596 73.3303457,65.0115237 C72.7208707,63.9103713 74.5019206,63.6683739 74.5019206,63.6683739 C74.5019206,63.6683739 75.8873239,64.2612036 75.2355954,65.3393086 Z" id="Shape" fill="#363340" fill-rule="nonzero"></path>
                <path d="M72.3444302,66.3866837 L72.3149808,66.3866837 C68.4071703,67.2087068 57.4545455,69.2996159 54.7912932,67.5390525 C52.9590269,66.3265045 53.4174136,65.2099872 54.1702945,64.4660691 C54.7662954,63.8814819 55.5492286,63.5256032 56.3815621,63.4609475 C59.3585147,63.2227913 69.2176697,62.4545455 72.4327785,62.7298335 C72.9103713,62.7708067 73.240717,62.8335467 73.3802817,62.9257362 C73.69432,63.1419319 73.9087354,63.4748521 73.9756722,63.8501921 C74.220751,65.0001895 73.4924756,66.1326178 72.3444302,66.3866837 Z" id="Shape" fill="#89555B" fill-rule="nonzero"></path>
                <path d="M72.3444302,66.3866837 C71.9574375,66.103673 71.6866438,65.6895179 71.5825864,65.2215109 C71.4545455,64.609475 71.6517286,63.9756722 71.9398207,63.4225352 C72.0681476,63.1680241 72.2343595,62.9344639 72.4327785,62.7298335 C72.9103713,62.7708067 73.240717,62.8335467 73.3802817,62.9257362 C73.69432,63.1419319 73.9087354,63.4748521 73.9756722,63.8501921 C74.220751,65.0001895 73.4924756,66.1326178 72.3444302,66.3866837 Z" id="Shape" fill="#000000" fill-rule="nonzero" opacity="0.1"></path>
                <path d="M54.3892446,65.9193342 C54.4097311,65.6017926 54.765685,65.4071703 54.8450704,65.0960307 C54.871959,64.993598 54.871959,64.8745198 54.9487836,64.8040973 C55.0066737,64.7610638 55.0764215,64.7369204 55.1485275,64.7349552 C55.5334888,64.6678992 55.9251043,64.6472652 56.3149808,64.6734955 C56.5713114,64.7084048 56.8243838,64.7640722 57.0717029,64.8399488 L58.318822,65.184379 C58.3545475,65.1911363 58.3877509,65.2075167 58.4148528,65.2317542 C58.496799,65.3213828 58.3585147,65.4519846 58.2381562,65.4673496 C57.9820743,65.4980794 57.7426376,65.368758 57.4929577,65.3137004 C57.162612,65.240717 56.8194622,65.2996159 56.4827145,65.2727273 C56.2394366,65.2548015 56.0012804,65.1920615 55.7580026,65.1754161 C55.5134148,65.1442062 55.2660538,65.2063894 55.0653009,65.3495519 C54.8770807,65.5044814 54.793854,65.8040973 54.9372599,66.0025608 C55.0806658,66.2010243 55.0896287,66.4174136 54.7528809,66.3585147 C54.5407677,66.3204213 54.3871004,66.1348302 54.3892446,65.9193342 Z" id="Shape" fill="#000000" fill-rule="nonzero" opacity="0.1"></path>
                <path d="M55.7964149,66.0588988 C55.9475032,66.1075544 56.1113956,66.0653009 56.2701665,66.0704225 C56.6850192,66.0832266 57.0230474,66.4097311 57.4225352,66.5083227 C57.6901408,66.5723431 57.9743918,66.5326504 58.2471191,66.5787452 C58.4455826,66.6120359 58.631242,66.6914213 58.8297055,66.7387964 C59.4494238,66.8911652 60.099872,66.7234315 60.7029449,66.5198464 C60.6581306,66.3316261 60.4302177,66.2637644 60.2394366,66.2355954 L57.134443,65.7234315 C56.7518394,65.6474478 56.3603133,65.6267503 55.971831,65.6619718 C55.8706786,65.6734955 55.6427657,65.6619718 55.5979513,65.7516005 C55.5416133,65.8706786 55.6965429,66.028169 55.7964149,66.0588988 Z" id="Shape" fill="#000000" fill-rule="nonzero" opacity="0.1"></path>
                <path d="M69.5288092,63.9270166 C69.1638924,63.8950064 68.8143406,63.7669654 68.453265,63.7029449 C68.0921895,63.6389245 67.6927017,63.6491677 67.3956466,63.8629962 C67.9692702,64.2612036 68.7080666,64.3047375 69.3994878,64.4058899 C69.4898943,64.4118953 69.5776191,64.43909 69.6555698,64.4852753 C69.7332556,64.534915 69.7691695,64.6296445 69.7439181,64.7183099 C69.6978233,64.8348271 69.5416133,64.8463508 69.4161332,64.8463508 C69.3890868,64.9054085 69.3874794,64.9729816 69.411687,65.0332585 C69.4358945,65.0935354 69.4837929,65.1412267 69.5441741,65.1651729 C69.672158,65.2046736 69.8106695,65.1908224 69.9282971,65.1267606 C70.0429437,65.0634544 70.1618865,65.0082616 70.284251,64.9615877 C70.5403329,64.8847631 70.815621,64.9756722 71.078105,65.0345711 C71.340589,65.0934699 71.6504481,65.1075544 71.8463508,64.9206146 C71.8989257,64.8743521 71.9318928,64.8097915 71.9385403,64.7400768 C71.9551857,64.4161332 71.128041,64.2394366 70.8950064,64.1229193 C70.4519846,63.8962868 70.0051216,63.9692702 69.5288092,63.9270166 Z" id="Shape" fill="#000000" fill-rule="nonzero" opacity="0.1"></path>
                <path d="M54.8527529,68.7439181 C54.7976953,68.8412292 54.5774648,68.8860435 54.2727273,68.8924456 C53.6393802,68.8854703 53.0090053,68.804686 52.3943662,68.6517286 C51.9795134,68.5492958 51.6325224,68.425096 51.4775928,68.2983355 C51.436429,68.2662911 51.4075036,68.2210953 51.3956466,68.1702945 C51.290653,67.6645327 52.9385403,66.6133163 53.0243278,66.603073 C53.1941994,66.5822188 53.3654632,66.5749401 53.5364917,66.581306 C55.2612036,66.6581306 55.0460948,68.3994878 54.8527529,68.7439181 Z" id="Shape" fill="#363340" fill-rule="nonzero"></path>
                <path d="M54.2727273,68.959166 C53.6393802,68.9511166 53.0090053,68.8578924 52.3943662,68.6813811 C52.4859393,68.606357 52.5832225,68.5410759 52.6850192,68.4863407 C53.4929577,68.3784774 53.9807939,68.6030694 54.2727273,68.959166 Z" id="Shape" fill="#000000" fill-rule="nonzero" opacity="0.1"></path>
                <path d="M52.6850192,68.6081946 C52.5915493,68.6197183 50.6222791,69.8809219 51.1382843,70.3034571 C51.6542894,70.7259923 54.3021767,71.1241997 54.5134443,70.7490397 C54.7247119,70.3738796 54.9590269,68.3444302 52.6850192,68.6081946 Z" id="Shape" fill="#363340" fill-rule="nonzero"></path>
                <path d="M74.9795134,65.6850192 C74.4673496,66.2650448 73.9705506,66.0332907 73.4878361,65.2765685 C73.7210624,65.1716604 73.9674391,65.0988673 74.2202305,65.0601793 C74.3565357,65.1238515 74.4853633,65.2024364 74.6043534,65.2944942 C74.7523775,65.4004686 74.8795628,65.5328628 74.9795134,65.6850192 Z" id="Shape" fill="#000000" fill-rule="nonzero" opacity="0.1"></path>
                <path d="M74.950064,66.8873239 C74.6325224,67.4071703 74.3213828,67.6056338 74.0166453,67.5480154 C73.68758,67.4865557 73.3661972,67.1293214 73.0512164,66.5595391 C72.4417414,65.4571063 74.2227913,65.2163892 74.2227913,65.2163892 C74.3590966,65.2800615 74.4879241,65.3586464 74.6069142,65.4507042 C74.9641485,65.7183099 75.3636364,66.2048656 74.950064,66.8873239 Z" id="Shape" fill="#363340" fill-rule="nonzero"></path>
                <path d="M74.0256082,69.8642766 C73.809219,70.5211268 72.7451985,70.7067862 71.9769526,70.8335467 C71.7558818,70.8619525 71.5368953,70.9047233 71.3213828,70.9615877 C70.7580026,71.1498079 66.6555698,71.1498079 66.6555698,71.1498079 L57.7682458,71.1498079 C57.7682458,71.1498079 55.5915493,71.7349552 54.2752881,70.915493 C53.8169014,70.6286812 53.5941101,70.3201024 53.5300896,69.9846351 C53.4912647,69.7182845 53.5244218,69.4463967 53.6261204,69.1971831 C53.7057435,68.9860399 53.8025245,68.781772 53.915493,68.5864277 C54.0537772,68.3431498 54.2163892,68.0870679 54.3879641,67.8181818 L54.3956466,67.8066581 C55.2138284,66.5569782 56.8565941,67.3725992 57.6274008,67.3021767 C58.3982074,67.2317542 59.7426376,67.0973111 59.7426376,67.0973111 C59.7426376,67.0973111 70.6184379,66.3713188 72.7900128,65.9961588 C72.8957182,65.9775264 73.0027846,65.9676763 73.1101152,65.9667093 C74.8886044,65.9679898 74.3021767,69.0204866 74.0256082,69.8642766 Z" id="Shape" fill="#89555B" fill-rule="nonzero"></path>
                <path d="M58.0576184,69.1126761 C57.5057618,69.7144686 56.6491677,69.6722151 55.8809219,69.6658131 L54.4827145,69.653009 C54.3193855,69.6426804 54.1554664,69.6591156 53.9974392,69.7016645 C53.8379379,69.747481 53.7105218,69.8677389 53.6555698,70.0243278 C53.6158771,70.0140845 53.574904,70.0025608 53.5352113,69.9884763 C53.4963863,69.7221257 53.5295434,69.4502379 53.631242,69.2010243 C53.8389069,69.2325413 54.0486017,69.2488033 54.2586428,69.2496799 C54.5480154,69.2227913 54.8066581,69.0524968 55.0934699,69.0038412 C55.5006402,68.9334187 55.9078105,69.1152369 56.3213828,69.1395647 C56.9014085,69.1728553 57.5134443,68.893726 58.0576184,69.1126761 Z" id="Shape" fill="#000000" fill-rule="nonzero" opacity="0.1"></path>
                <path d="M63.2394366,67.6274008 C62.8693982,67.68758 62.524968,67.8501921 62.1651729,67.9513444 C61.1715749,68.2330346 60.1088348,68.0358515 59.0806658,68.134443 C57.9667093,68.2419974 56.8399488,68.6939821 55.7605634,68.390525 C55.5825864,68.3418694 55.3764405,68.2778489 55.2279129,68.390525 C55.1827549,68.4333628 55.1400088,68.4786736 55.099872,68.5262484 C54.9282971,68.6888604 54.6606914,68.6722151 54.425096,68.6453265 L53.921895,68.5877081 C54.0601793,68.3444302 54.2227913,68.0883483 54.3943662,67.8194622 L54.4020487,67.8079385 C54.6242799,67.6889912 54.8751537,67.6340295 55.1267606,67.6491677 C55.4225352,67.6798976 55.6850192,67.8514725 55.9705506,67.9359795 C56.68758,68.1472471 57.5070423,68.0435339 58.2189501,67.8988476 C59.0012804,67.7426376 59.8130602,67.8501921 60.6043534,67.6991037 C60.8412292,67.6542894 61.0755442,67.5979513 61.3137004,67.5595391 C61.9539547,67.457312 62.6079664,67.480359 63.2394366,67.6274008 Z" id="Shape" fill="#000000" fill-rule="nonzero" opacity="0.1"></path>
                <path d="M66.3892446,67.9923175 C66.4935245,67.9781784 66.5942599,67.9447447 66.6862996,67.893726 C66.7750595,67.827173 66.8546985,67.749256 66.9231754,67.6619718 C67.078343,67.4985131 67.2747494,67.3799614 67.4916773,67.318822 C67.4263764,67.5326504 67.3854033,67.8181818 67.5774648,67.9334187 C67.6937004,67.9779087 67.8181939,67.9966919 67.9423816,67.9884763 C68.0704225,68.0012804 68.206146,68.0896287 68.1869398,68.2112676 C68.1677337,68.3329065 68.0320102,68.368758 67.9193342,68.3892446 C67.5087295,68.4847988 67.0869571,68.5235726 66.6658131,68.5044814 C66.2599232,68.4660691 65.8450704,68.3226633 65.4545455,68.4404609 C65.2663252,68.4980794 64.6158771,68.653009 65.0640205,68.3252241 C65.4007682,68.0793854 65.9910371,68.0729834 66.3892446,67.9923175 Z" id="Shape" fill="#000000" fill-rule="nonzero" opacity="0.1"></path>
                <path d="M74.0256082,69.8642766 C73.809219,70.5211268 72.7451985,70.7067862 71.9769526,70.8335467 C71.9223786,70.7432557 71.8793616,70.6464674 71.8489117,70.5454545 C71.8002349,70.3282654 71.7898356,70.1042474 71.8181818,69.8834827 C71.8514725,69.4122919 71.8975672,68.9428084 71.9564661,68.475032 C72.0384123,67.8233035 72.1510883,67.15621 72.4980794,66.5992318 C72.6544264,66.3477542 72.8626505,66.1325456 73.1088348,65.9679898 C74.8886044,65.9679898 74.3021767,69.0204866 74.0256082,69.8642766 Z" id="Shape" fill="#000000" fill-rule="nonzero" opacity="0.1"></path>
                <path d="M72.5275288,72.978233 C72.1454715,73.1294929 71.7514413,73.2485586 71.3495519,73.3341869 C70.3790013,73.5390525 69.1306018,73.5608195 68.9167734,72.4071703 C68.5659411,70.4763124 70.0691421,70.0384123 70.0691421,70.0384123 L71.8271447,71.0755442 L72.5275288,72.978233 Z" id="Shape" fill="#363340" fill-rule="nonzero"></path>
                <path d="M69.0640205,73.681178 C68.8706786,74.0358515 67.4878361,74.1805378 66.6145967,74.2355954 C66.4455826,74.2458387 66.2944942,74.2535211 66.1766965,74.2586428 L65.900128,74.2676056 C65.8066581,74.2676056 62.6658131,74.2676056 62.8758003,72.1101152 C62.9807939,71.0396927 63.6914213,70.6632522 64.3815621,70.5544174 C64.8405561,70.4923301 65.3068907,70.5113995 65.759283,70.6107554 C65.759283,70.6107554 67.9859155,70.7746479 68.6286812,71.2189501 C68.9577465,71.4455826 69.1408451,71.9526248 69.1971831,72.4609475 C69.2535211,72.943662 69.2023047,73.4302177 69.0640205,73.681178 Z" id="Shape" fill="#363340" fill-rule="nonzero"></path>
                <path d="M53.4161332,66.1139565 C53.0025608,66.4071703 52.5505762,66.3700384 52.1190781,65.6414853 C51.9119537,65.3249072 51.799564,64.9557538 51.7951344,64.5774648 C52.2010243,64.6478873 52.6299616,64.7362356 52.8066581,64.8245839 C52.9833547,64.9129321 53.2483995,65.4878361 53.4161332,66.1139565 Z" id="Shape" fill="#000000" fill-rule="nonzero" opacity="0.1"></path>
                <path d="M53.46863,67.8873239 C53.1792574,68.2394366 52.1139565,68.2816901 51.3918054,68.1702945 C51.2868118,67.6645327 52.9346991,66.6133163 53.0204866,66.603073 C53.1903582,66.5822188 53.361622,66.5749401 53.5326504,66.581306 C53.6427657,67.1306018 53.659411,67.659411 53.46863,67.8873239 Z" id="Shape" fill="#000000" fill-rule="nonzero" opacity="0.1"></path>
                <path d="M53.4097311,67.8245839 C52.9667093,68.3636364 50.7131882,68.1766965 50.6427657,67.8245839 C50.5906224,67.6901469 50.5051431,67.5711809 50.3943662,67.4788732 C50.0947503,67.1805378 49.603073,66.7925736 49.3277849,66.346991 C49.2720441,66.2585956 49.2256974,66.1646149 49.1895006,66.0665813 C48.9078105,65.2983355 50.8770807,64.4929577 50.8770807,64.4929577 C50.8770807,64.4929577 52.4007682,64.6837388 52.7759283,64.8770807 C53.1510883,65.0704225 53.8527529,67.2855314 53.4097311,67.8245839 Z" id="Shape" fill="#363340" fill-rule="nonzero"></path>
                <path d="M50.3956466,67.4788732 C50.0960307,67.1805378 49.6043534,66.7925736 49.3290653,66.346991 C49.896661,66.4452669 50.3312328,66.9064452 50.3956466,67.4788732 Z" id="Shape" fill="#000000" fill-rule="nonzero" opacity="0.1"></path>
                <path d="M50.1971831,68.5275288 C49.9859155,68.9026889 47.3367478,68.5044814 46.822023,68.0819462 C46.7671693,68.0403043 46.7349537,67.9753995 46.7349552,67.9065301 C46.7349552,67.3854033 48.2855314,66.396927 48.368758,66.3866837 C49.7951344,66.2202305 50.234315,66.9577465 50.3111396,67.6222791 C50.3538521,67.9287971 50.3145306,68.2411598 50.1971831,68.5275288 Z" id="Shape" fill="#363340" fill-rule="nonzero"></path>
                <path d="M51.5275288,68.9308579 C51.3162612,69.3047375 48.6683739,68.9078105 48.1523688,68.4852753 C48.0976364,68.4430962 48.0658736,68.3776743 48.0665813,68.3085787 C48.0665813,67.7887324 49.6171575,66.7989757 49.6991037,66.7900128 C51.1254802,66.6235595 51.5646607,67.3597951 51.6414853,68.0256082 C51.6841978,68.3321262 51.6448763,68.6444889 51.5275288,68.9308579 Z" id="Shape" fill="#363340" fill-rule="nonzero"></path>
                <path d="M50.1971831,68.5275288 C49.9859155,68.9026889 47.3367478,68.5044814 46.822023,68.0819462 C46.7671693,68.0403043 46.7349537,67.9753995 46.7349552,67.9065301 C47.5825864,67.5633803 48.5275288,67.7976953 48.5275288,67.7976953 C49.1077786,67.6430662 49.7093118,67.583821 50.3085787,67.6222791 C50.3521007,67.928571 50.3136638,68.2409261 50.1971831,68.5275288 Z" id="Shape" fill="#000000" fill-rule="nonzero" opacity="0.1"></path>
                <path d="M52.8463508,70.8335467 C52.7819322,70.9229787 52.7122397,71.008491 52.637644,71.0896287 C52.2631527,71.5036318 51.8320973,71.862701 51.3572343,72.15621 C50.9667093,72.4007682 50.0934699,72.3751601 49.1267606,72.2304738 C47.5019206,71.9871959 45.6145967,71.4097311 45.3213828,71.2189501 C44.8527529,70.9142125 45.0396927,69.8348271 45.9078105,68.6581306 C46.7759283,67.4814341 48.5300896,67.9167734 48.5300896,67.9167734 C53.028169,66.8258643 52.8463508,70.8335467 52.8463508,70.8335467 Z" id="Shape" fill="#363340" fill-rule="nonzero"></path>
                <path d="M52.637644,71.0947503 C52.2631527,71.5087534 51.8320973,71.8678226 51.3572343,72.1613316 C50.9667093,72.4058899 50.0934699,72.3802817 49.1267606,72.2355954 C49.0759942,71.9625689 49.0600754,71.6842043 49.0793854,71.4071703 C49.1728553,69.4379001 50.6722151,69.8079385 50.6722151,69.8079385 C50.6722151,69.8079385 51.9321383,70.3700384 52.637644,71.0947503 Z" id="Shape" fill="#000000" fill-rule="nonzero" opacity="0.1"></path>
                <path d="M51.2778489,73.162612 C51.133506,73.1965368 50.985662,73.2132982 50.837388,73.212548 C50.0627401,73.1895006 48.9846351,73.46863 49.0793854,71.5019206 C49.1741357,69.5352113 50.6722151,69.9014085 50.6722151,69.9014085 C51.2046343,70.1494952 51.7111631,70.449724 52.184379,70.7976953 C52.4724856,71.0041103 52.7235775,71.2577998 52.9270166,71.5480154 C53.4020487,72.2893726 52.1498079,72.9769526 51.2778489,73.162612 Z" id="Shape" fill="#363340" fill-rule="nonzero"></path>
                <path d="M74.950064,66.8873239 C74.6325224,67.4071703 74.3213828,67.6056338 74.0166453,67.5480154 C74.1315219,66.827693 74.3318244,66.1236257 74.6133163,65.4507042 C74.9641485,65.7183099 75.3636364,66.2048656 74.950064,66.8873239 Z" id="Shape" fill="#000000" fill-rule="nonzero" opacity="0.1"></path>
                <path d="M80.5992318,66.2868118 C80.5992318,66.2868118 78.6299616,68.6914213 78.5364917,68.7861716 C78.4647887,68.8578745 76.340589,69.3764405 75.1165173,69.3521127 C74.7541613,69.3444302 74.4763124,69.2893726 74.3482714,69.1613316 C73.787452,68.5979513 74.3930858,66.0192061 75.0960307,64.8399488 C75.7989757,63.6606914 77.5108835,64.425096 77.5108835,64.425096 C77.6619718,64.3994878 78.5518566,64.9449424 79.3393086,65.4494238 C80.0038412,65.8822023 80.5992318,66.2868118 80.5992318,66.2868118 Z" id="Shape" fill="#363340" fill-rule="nonzero"></path>
                <path d="M80.5992318,66.2868118 C80.5992318,66.2868118 78.6299616,68.6914213 78.5364917,68.7861716 C78.4647887,68.8578745 76.340589,69.3764405 75.1165173,69.3521127 C75.1395647,68.7605634 75.7234315,68.1498079 75.7234315,68.1498079 C75.7234315,68.1498079 77.3418694,67.809219 78.0678617,66.5480154 C78.1460605,66.4116333 78.2315449,66.2795599 78.3239437,66.1523688 C78.5710022,65.8108697 78.9267707,65.5634571 79.3329065,65.4507042 C80.0038412,65.8822023 80.5992318,66.2868118 80.5992318,66.2868118 Z" id="Shape" fill="#000000" fill-rule="nonzero" opacity="0.1"></path>
                <path d="M82.6158771,70.8335467 C82.4878361,70.921895 82.2317542,70.9807939 81.8911652,71.0140845 C80.7720871,71.1216389 78.6991037,70.9628681 76.9295775,70.7003841 C76.7426376,70.6722151 76.5595391,70.6440461 76.3802817,70.6145967 C73.9897567,70.2151088 75.7234315,68.4007682 75.7234315,68.4007682 C75.7234315,68.4007682 77.3418694,68.0588988 78.0678617,66.7976953 C78.145763,66.6615438 78.2312586,66.5298806 78.3239437,66.4033291 C78.6523142,65.954141 79.1623825,65.6730002 79.7175128,65.6352177 C80.272643,65.5974353 80.8161003,65.8068727 81.2023047,66.2074264 C82.0909091,67.1229193 83.2240717,68.2676056 83.715749,68.6645327 C84.5825864,69.368758 83.2010243,70.4263764 82.6158771,70.8335467 Z" id="Shape" fill="#363340" fill-rule="nonzero"></path>
                <path d="M84.893726,74.0384123 C84.765685,74.1267606 84.5096031,74.1856594 84.1690141,74.2176697 C83.049936,74.3265045 80.978233,74.1664533 79.2074264,73.9052497 C79.0204866,73.8770807 78.837388,73.8489117 78.6581306,73.8181818 C76.2676056,73.4199744 78.0025608,71.6043534 78.0025608,71.6043534 C78.0025608,71.6043534 79.6197183,71.2637644 80.346991,70.0025608 C80.425175,69.8661697 80.5106599,69.7340956 80.603073,69.6069142 C80.932238,69.1584503 81.442378,68.8779185 81.9973949,68.8401606 C82.5524119,68.8024026 83.0958451,69.0112596 83.4827145,69.4110115 C84.3700384,70.3277849 85.503201,71.4724712 85.9961588,71.8693982 C86.8629962,72.5697823 85.4788732,73.631242 84.893726,74.0384123 Z" id="Shape" fill="#363340" fill-rule="nonzero"></path>
                <path d="M77.3610755,71.9295775 C77.0096779,72.069305 76.6479365,72.1814663 76.2791293,72.2650448 C75.2983355,72.4878361 73.9743918,72.5518566 73.7554417,71.3585147 C73.4033291,69.4276569 74.9078105,68.9897567 74.9078105,68.9897567 L76.6658131,70.0268886 L76.9282971,70.7413572 L77.3610755,71.9295775 Z" id="Shape" fill="#363340" fill-rule="nonzero"></path>
                <path d="M75.9526248,71.262484 C75.6009834,71.4015203 75.2392957,71.5136649 74.8706786,71.5979513 C73.8898848,71.8207426 72.5659411,71.8834827 72.346991,70.6914213 C71.9948784,68.7605634 73.4993598,68.3226633 73.4993598,68.3226633 L75.2573624,69.3597951 L75.5198464,70.0742638 L75.9526248,71.262484 Z" id="Shape" fill="#363340" fill-rule="nonzero"></path>
                <path d="M74.4071703,72.162612 C74.0556911,72.3024417 73.693975,72.4150232 73.3252241,72.4993598 C72.3444302,72.7208707 71.0204866,72.7848912 70.8002561,71.5915493 C70.4494238,69.6619718 71.9526248,69.2240717 71.9526248,69.2240717 L73.7106274,70.2612036 L73.9743918,70.9756722 L74.4071703,72.162612 Z" id="Shape" fill="#363340" fill-rule="nonzero"></path>
                <path d="M77.3610755,71.9295775 C77.0096779,72.069305 76.6479365,72.1814663 76.2791293,72.2650448 L76.0550576,71.915493 C75.9998887,71.8295426 75.9660839,71.7316404 75.9564661,71.6299616 C75.9260977,71.3110766 76.139867,71.020174 76.453265,70.9539052 C76.6245221,70.9200401 76.7857231,70.8473244 76.9244558,70.7413572 L77.3610755,71.9295775 Z" id="Shape" fill="#000000" fill-rule="nonzero" opacity="0.1"></path>
                <path d="M81.893726,71.0140845 C80.7746479,71.1216389 78.7016645,70.9628681 76.9321383,70.7003841 C77.2805596,70.6112542 77.5657923,70.3616755 77.7003841,70.028169 C78.212548,68.8668374 80.1152369,69.2445583 80.1152369,69.2445583 C81.0038412,69.4174136 81.5979513,70.1370038 81.893726,71.0140845 Z" id="Shape" fill="#000000" fill-rule="nonzero" opacity="0.1"></path>
                <path d="M81.7477593,74.1766965 C81.1306018,75.340589 79.0896287,75.0947503 78.2138284,74.7067862 C77.9577465,74.5941101 77.8053777,74.4699104 77.8104994,74.3649168 C77.8245839,74.0806658 77.0627401,72.84379 76.4622279,71.9129321 C76.3482036,71.738865 76.3274938,71.5197198 76.4068909,71.3273738 C76.4862881,71.1350277 76.6555479,70.9942988 76.8591549,70.9513444 C77.2359195,70.8780968 77.5497926,70.6187055 77.6927017,70.262484 C78.2048656,69.1011524 80.1075544,69.4788732 80.1075544,69.4788732 C82.006402,69.84379 82.5454545,72.6773367 81.7477593,74.1766965 Z" id="Shape" fill="#363340" fill-rule="nonzero"></path>
                <path d="M72.5275288,72.978233 C72.1454715,73.1294929 71.7514413,73.2485586 71.3495519,73.3341869 C71.3495519,73.206146 71.3495519,73.0704225 71.3585147,72.9385403 C71.3973327,72.2937748 71.5562693,71.6619365 71.8271447,71.0755442 L72.5275288,72.978233 Z" id="Shape" fill="#000000" fill-rule="nonzero" opacity="0.1"></path>
                <path d="M78.2138284,74.7067862 C77.9577465,74.5941101 77.8053777,74.4699104 77.8104994,74.3649168 C77.8245839,74.0806658 77.0627401,72.84379 76.4622279,71.9129321 C76.4061946,71.8273019 76.3719116,71.7292877 76.362356,71.6274008 C77.9948784,72.5275288 78.2650448,73.8386684 78.2138284,74.7067862 Z" id="Shape" fill="#000000" fill-rule="nonzero" opacity="0.1"></path>
                <path d="M77.7170294,75.6069142 C77.6466069,75.5595391 74.1766965,76.3329065 72.6760563,75.6069142 L72.6466069,75.5915493 C71.7503201,75.1357234 71.4609475,74.0435339 71.5300896,72.9539052 C71.5701702,72.2932986 71.736646,71.6465203 72.0204866,71.0486556 C72.7003841,69.6773367 74.3072983,71.3559539 74.3072983,71.3559539 L75.7477593,71.4583867 C78.8207426,72.8873239 77.7861716,75.6542894 77.7170294,75.6069142 Z" id="Shape" fill="#363340" fill-rule="nonzero"></path>
                <path d="M69.0640205,73.681178 C68.8706786,74.0358515 67.4878361,74.1805378 66.6145967,74.2355954 C66.4455826,74.2458387 66.2944942,74.2535211 66.1766965,74.2586428 C66.1684915,74.1559468 66.1684915,74.05276 66.1766965,73.950064 C66.3879641,71.793854 69.0601793,72.4507042 69.0601793,72.4507042 L69.1882202,72.4609475 C69.2535211,72.943662 69.2023047,73.4302177 69.0640205,73.681178 Z" id="Shape" fill="#000000" fill-rule="nonzero" opacity="0.1"></path>
                <path d="M72.6466069,75.5915493 C71.7503201,75.1357234 71.4609475,74.0435339 71.5300896,72.9539052 C71.755475,73.0055653 71.9714568,73.091958 72.1702945,73.2099872 C72.7797695,73.6363636 72.8783611,75.0128041 72.6466069,75.5915493 Z" id="Shape" fill="#000000" fill-rule="nonzero" opacity="0.1"></path>
                <path d="M69.0665813,72.6069142 C69.0665813,72.6069142 66.4007682,71.950064 66.1830986,74.106274 C65.9654289,76.262484 69.1139565,76.2637644 69.2074264,76.2637644 C69.3008963,76.2637644 72.0909091,76.1933419 72.3713188,75.6773367 C72.6517286,75.1613316 72.5774648,73.6581306 71.9359795,73.2151088 C71.2944942,72.7720871 69.0665813,72.6069142 69.0665813,72.6069142 Z" id="Shape" fill="#363340" fill-rule="nonzero"></path>
                <path d="M51.2778489,73.162612 C51.396927,72.6606914 51.7387964,72.0230474 52.0102433,71.1498079 C52.0476092,71.0221116 52.1065003,70.9017312 52.184379,70.793854 C52.4724856,71.0002691 52.7235775,71.2539585 52.9270166,71.5441741 C53.4020487,72.2893726 52.1498079,72.9769526 51.2778489,73.162612 Z" id="Shape" fill="#000000" fill-rule="nonzero" opacity="0.1"></path>
                <path d="M56.3149808,75.2317542 C56.1991457,75.2855729 56.0738377,75.3160297 55.9462228,75.3213828 C54.7605634,75.418694 51.9769526,74.5300896 51.5569782,73.9897567 C51.0870679,73.3802817 51.7208707,72.581306 52.1664533,71.1498079 C52.6120359,69.7183099 54.7912932,70.5096031 54.7912932,70.5096031 C55.2829706,70.3111396 56.3854033,71.7900128 56.7362356,72.2240717 C56.8158494,72.3420665 56.8695276,72.4756074 56.893726,72.6158771 C57.0691421,73.3918054 56.9654289,74.8873239 56.3149808,75.2317542 Z" id="Shape" fill="#363340" fill-rule="nonzero"></path>
                <path d="M60.1920615,74.5774648 C60.0760211,74.6306948 59.9508305,74.6611231 59.8233035,74.6670935 C58.637644,74.7644046 55.8540333,73.8745198 55.4327785,73.3341869 C54.9641485,72.7247119 55.5979513,71.9257362 56.0422535,70.4942382 C56.4865557,69.0627401 58.6683739,69.8540333 58.6683739,69.8540333 C59.1600512,69.6568502 60.262484,71.134443 60.6133163,71.5697823 C60.6931739,71.6876476 60.7468739,71.8212428 60.7708067,71.9615877 C60.9462228,72.7362356 60.8425096,74.234315 60.1920615,74.5774648 Z" id="Shape" fill="#363340" fill-rule="nonzero"></path>
                <path d="M56.3149808,75.2317542 C56.1991457,75.2855729 56.0738377,75.3160297 55.9462228,75.3213828 C55.6235595,74.5364917 56.3725992,73.3457106 56.893726,72.6158771 C57.0691421,73.3918054 56.9654289,74.8873239 56.3149808,75.2317542 Z" id="Shape" fill="#000000" fill-rule="nonzero" opacity="0.1"></path>
                <path d="M66.6145967,74.234315 C66.2202305,74.2586428 65.9295775,74.2663252 65.900128,74.2663252 C65.8066581,74.2663252 62.6658131,74.2663252 62.8758003,72.1088348 C62.9807939,71.0384123 63.6914213,70.6619718 64.3815621,70.553137 C64.4212548,70.5787452 64.4404609,70.5941101 64.4404609,70.5941101 C64.4404609,70.5941101 64.4404609,72.0896287 64.5377721,72.1306018 C64.6133163,72.1613316 65.5441741,72.5070423 65.9346991,72.6517286 C66.0534408,72.6965957 66.1529785,72.7812028 66.2163892,72.8911652 C66.4538539,73.3009282 66.5903528,73.7613378 66.6145967,74.234315 Z" id="Shape" fill="#000000" fill-rule="nonzero" opacity="0.1"></path>
                <path d="M64.3316261,70.6901408 C64.3316261,70.6901408 62.8783611,69.4891165 59.5736236,71.4814341 C59.5736236,71.4814341 57.8860435,71.4673496 57.3226633,72.2240717 C56.759283,72.9807939 55.0256082,75.2483995 56.7605634,75.9193342 C58.4955186,76.5902689 64.3546735,77.6696543 65.8079385,76.0985915 C66.9846351,74.8284251 66.3802817,73.4609475 66.106274,72.9846351 C66.043478,72.8744503 65.9436783,72.7900741 65.8245839,72.7464789 C65.4404609,72.6017926 64.5044814,72.2560819 64.4276569,72.2240717 C64.3508323,72.1920615 64.3316261,70.6901408 64.3316261,70.6901408 Z" id="Shape" fill="#363340" fill-rule="nonzero"></path>
                <path d="M65.6005122,58.0460948 C65.6005122,58.8040973 65.5723431,59.5505762 65.5275288,60.2355954 C65.3627962,62.8514995 63.3847104,64.9926438 60.7900128,65.3636364 C60.1531224,65.4650589 59.501216,65.4128186 58.8886044,65.2112676 C58.6284207,65.1202018 58.381323,64.9953615 58.1536492,64.8399488 C55.3930858,62.9564661 54.7733675,61.0268886 57.4212548,55.4238156 C60.0691421,49.8207426 57.609475,47.3572343 57.609475,47.3572343 C59.7861716,47.1920615 59.9526248,54.5070423 59.9526248,54.5070423 C60.5160051,54.3892446 60.9846351,52.3738796 60.9846351,52.3738796 C61.496799,52.5377721 60.6670935,55.8181818 60.6670935,55.8181818 C60.6670935,55.8181818 62.0857875,55.7490397 61.6414853,50.4507042 C61.1971831,45.1523688 62.7669654,44.731114 62.7669654,44.731114 C61.4775928,47.8258643 62.8130602,50.1459667 64.6184379,52.8886044 C65.3764405,54.0460948 65.5966709,56.078105 65.6005122,58.0460948 Z" id="Shape" fill="#FFC950" fill-rule="nonzero"></path>
                <path d="M59.7144686,55.7055058 C59.7144686,55.7055058 57.6043534,57.6261204 57.6274008,60.2291933 C57.6274008,60.2291933 57.2291933,59.3854033 57.1152369,59.4801536 C57.0012804,59.574904 57.3982074,62.3866837 58.581306,62.3162612 C58.5774648,62.3162612 57.5108835,59.0345711 59.7144686,55.7055058 Z" id="Shape" fill="#000000" fill-rule="nonzero" opacity="0.1"></path>
                <path d="M65.6005122,58.0460948 C65.6005122,58.8040973 65.5723431,59.5505762 65.5275288,60.2355954 C65.3627962,62.8514995 63.3847104,64.9926438 60.7900128,65.3636364 C60.1531224,65.4650589 59.501216,65.4128186 58.8886044,65.2112676 C58.9026889,64.5556978 59.3149808,63.7259923 60.3738796,62.6722151 C64.8463508,58.2202305 63.0230474,54.7439181 63.0230474,54.7439181 C64.425096,55.284251 65.1869398,56.7029449 65.6005122,58.0460948 Z" id="Shape" fill="#000000" fill-rule="nonzero" opacity="0.1"></path>
                <path d="M68.950064,47.6017926 C68.950064,47.6017926 65.2227913,47.1088348 66.3239437,53.8130602 C67.425096,60.5172855 66.2727273,60.9564661 66.2727273,60.9564661 C66.2727273,60.9564661 66.177977,55.893726 63.1997439,54.7451985 C63.1997439,54.7451985 65.0230474,58.2202305 60.5518566,62.6709347 C56.0806658,67.1216389 63.1267606,67.6043534 63.1267606,67.6043534 C63.1267606,67.6043534 66.5761844,68.9026889 69.1536492,65.2932138 L69.2304738,65.1856594 C70.8382223,62.9094911 71.0278708,59.9221562 69.7208707,57.4609475 C68.6248399,55.4033291 67.8335467,52.8181818 67.8002561,52.2394366 C67.731114,50.993598 67.0742638,47.8578745 68.950064,47.6017926 Z" id="Shape" fill="#FFC950" fill-rule="nonzero"></path>
                <path d="M68.6453265,58.049936 C68.6453265,58.049936 69.1370038,61.609475 66.6517286,64.6581306 C66.6517286,64.6581306 66.2304738,63.1600512 66.1126761,63.2496799 C65.9948784,63.3393086 65.9692702,66.1101152 63.7682458,67.1882202 C63.7682458,67.1882202 67.0038412,69.2291933 68.8796415,65.4071703 C70.7554417,61.5851472 68.6453265,58.049936 68.6453265,58.049936 Z" id="Shape" fill="#000000" fill-rule="nonzero" opacity="0.1"></path>
                <path d="M63.8732394,82.581306 C63.3443231,82.2047901 62.7132057,81.9984375 62.0640205,81.9897567 C61.6763482,81.9897567 61.2898686,81.9468146 60.9116517,81.8617157 C60.3290653,81.6991037 56.7285531,81.5160051 56.3021767,81.4955186 C56.2890276,81.4902474 56.2743527,81.4902474 56.2612036,81.4955186 L55.6209987,81.0192061 L55.5288092,81.2509603 C55.3252241,81.1472471 55.1075544,81.021767 54.9090909,80.9026889 L54.028169,79.1792574 C54.028169,79.1792574 53.9398207,77.4058899 53.3649168,72.5364917 C52.7900128,67.6670935 48.8962868,68.9244558 48.8962868,68.9244558 L36.8233035,75.6325224 L36.3111396,75.915493 L36.2983355,75.759283 C36.5370522,75.6796554 36.7677,75.5776217 36.9871959,75.4545455 C39.659411,73.9756722 40.9014085,71.9692702 41.3802817,70.9859155 C41.530494,70.7117382 41.6589303,70.4261816 41.7644046,70.1318822 L42.6491677,65.5019206 C42.6491677,65.5019206 42.6683739,64.4878361 42.3482714,63.6914213 L42.5057618,63.496799 L42.8898848,63.0128041 C42.8898848,63.0128041 44.106274,61.0448143 42.4699104,59.3137004 C41.5454545,58.3367478 40.9039693,59.3649168 40.5198464,60.446863 C40.3099599,60.2462014 40.0691527,60.0806194 39.8066581,59.9564661 L37.3610755,59.1882202 C37.3879641,59.1113956 37.4110115,59.0332907 37.4314981,58.9526248 C37.4272946,58.9614221 37.4225921,58.9699721 37.4174136,58.978233 C37.4699104,58.7784891 37.503201,58.5710627 37.5454545,58.3738796 C37.6635561,57.8179114 37.8289025,57.2730395 38.0396927,56.7451985 C38.0012804,56.8553137 37.9615877,56.9654289 37.9244558,57.078105 C38.134443,56.4929577 38.3790013,55.9167734 38.5825864,55.3303457 C38.6133163,55.2432778 38.6414853,55.15621 38.6696543,55.0678617 C38.6491677,55.1241997 38.6274008,55.1818182 38.6056338,55.2381562 C38.9423816,54.2483995 39.1459667,53.1741357 38.8425096,52.177977 C38.6786172,51.6440461 38.3725992,51.1446863 38.3303457,50.5902689 C38.3245838,50.4917615 38.3245838,50.3930016 38.3303457,50.2944942 C38.3303457,50.2074264 38.3431498,50.1177977 38.3521127,50.0294494 L38.4020487,50.0166453 C38.425096,50.0166453 38.4455826,50.0038412 38.4660691,49.9974392 L38.5198464,49.9807939 L38.5889885,49.9526248 L38.6261204,49.9372599 C38.659411,49.921895 38.6914213,49.9052497 38.7221511,49.8873239 L39,47.1152369 L39.0153649,46.9475032 L39.0153649,46.9231754 L38.993598,46.9321383 L38.9705506,46.8104994 L38.9462228,46.8207426 C38.7042254,45.6466069 37.8450704,42.1395647 36.0166453,41.0588988 C37.4241661,39.3898683 37.4621729,36.9606455 36.1075544,35.2483995 C36.546735,34.9526248 36.9308579,34.6248399 37.0819462,34.1165173 C37.2957746,33.3994878 36.8143406,32.5800256 36.1421255,31.950064 C36.1216389,31.9282971 36.1011524,31.9078105 36.0793854,31.8873239 L36.0614597,31.8693982 C36.0204866,31.8284251 35.9769526,31.7887324 35.9334187,31.7490397 C35.3828425,31.2522407 34.7208707,30.8796415 34.2087068,30.7784891 C33.1216389,30.5659411 32.0742638,31.2189501 30.9884763,31.4353393 C30.2944942,31.5736236 29.5800256,31.53137 28.8706786,31.5633803 C28.1297049,31.5940876 27.3942678,31.7052833 26.6773367,31.8950064 C26.1139565,32.0448143 25.5160051,32.2791293 25.2227913,32.7720871 C25.028169,33.1024328 25,33.5006402 24.9897567,33.8822023 C24.9551857,35.049936 25.0358515,36.2253521 24.8847631,37.3841229 C24.8010918,38.1075254 24.5895222,38.8103008 24.2599232,39.4596671 C24.1047199,39.7559581 23.9142642,40.0323983 23.6927017,40.2829706 C23.6189198,40.3685248 23.5407076,40.450156 23.4583867,40.5275288 C22.7644046,41.1766965 21.8386684,41.5364917 20.9103713,41.7772087 C20.049936,42.0012804 19.0256082,42.2599232 18.7695262,43.0806658 C18.6414853,43.4788732 18.7387964,43.9193342 18.6286812,44.3213828 C18.3802817,45.2176697 17.2394366,45.6017926 16.8361076,46.4404609 C16.5019206,47.1357234 16.7733675,47.9923175 17.2880922,48.5723431 L17.2996159,48.5838668 C17.3725992,48.6645327 17.4494238,48.7387964 17.5275288,48.8117798 C17.9449424,49.2355954 18.4699104,49.5403329 19.0089629,49.8143406 C17.8982721,51.5201004 17.0327892,53.3734752 16.4379001,55.3201024 C16.0665813,56.5352113 15.7848912,57.7451985 15.6991037,58.7989757 C15.3674776,62.8886044 9.76440461,70.0883483 15.7362356,71.8399488 C16.0841431,71.942918 16.4400591,72.0165854 16.8002561,72.0601793 C16.8604984,72.3303467 16.935298,72.5970609 17.0243278,72.8591549 C17.0243278,72.8591549 17.993598,73.7989757 19.2509603,73.268886 C19.2573624,73.5480154 19.2637644,73.809219 19.2701665,74.0371319 C19.2914537,74.9102207 19.5145167,75.766537 19.921895,76.5390525 L20.3060179,77.2676056 C20.4585256,77.5549913 20.5607263,77.8663571 20.6081946,78.1882202 L20.8181818,79.5518566 C20.9003504,80.1071288 21.0602629,80.6480725 21.2932138,81.1587708 L21.53137,81.6850192 C21.6897347,82.0304593 21.8149237,82.3901632 21.9052497,82.759283 C22.240717,84.1306018 23.9282971,88.4327785 32.0717029,89.8758003 C32.5330111,89.9568907 33.0033249,89.7925233 33.3137004,89.4417414 C33.4238156,89.3137004 33.5480154,89.1728553 33.681178,89.0128041 C33.9867481,89.035192 34.2939229,89.0188437 34.5953905,88.9641485 C34.8690914,88.9143249 35.1383988,88.8428235 35.4007682,88.7503201 L41.2163892,89.262484 C42.0680309,89.3362321 42.9239377,89.3473589 43.7772087,89.2957746 C44.5642626,89.2503709 45.3472033,89.1502571 46.1203585,88.9961588 C47.4225585,88.7516193 48.7421045,88.6107592 50.0665813,88.574904 L50.2932138,88.574904 C51.1536056,88.5572723 52.0054524,88.4003076 52.815621,88.1101152 C53.1032116,88.0067957 53.3837854,87.8849 53.6555698,87.7451985 C53.8540333,87.6427657 54.0524968,87.5288092 54.2445583,87.4046095 C54.7467822,87.0991836 55.1756219,86.6869555 55.5006402,86.1971831 C57.0883483,86.3828425 61.7516005,86.7605634 63.7183099,85.0768246 C65.0614597,83.9206146 64.5646607,83.0896287 63.8732394,82.581306 Z M26.1075544,41.4942382 C26.1241997,41.4839949 26.1421255,41.4724712 26.1600512,41.4635083 C26.3238703,41.4019428 26.5026323,41.3921109 26.6722151,41.4353393 L28.8386684,41.7618438 C28.6290742,42.0016551 28.4027268,42.226291 28.1613316,42.4340589 L28.0653009,42.396927 C27.609475,42.1984635 26.6568502,42.6299616 25.5480154,43.3354673 C25.5763829,42.8302735 25.6804007,42.3321966 25.8565941,41.8578745 C25.8561121,41.8540484 25.8561121,41.8501769 25.8565941,41.8463508 C25.904811,41.7073736 25.9919149,41.5851615 26.1075544,41.4942382 Z M30.815621,58.0294494 L30.8732394,57.8783611 C31.0122123,58.0886348 31.1301517,58.3120764 31.2253521,58.5454545 C31.0973111,58.3725992 30.9628681,58.1997439 30.815621,58.0294494 Z M31.1293214,57.1446863 L31.3354673,56.5147247 L31.425096,56.5147247 C31.355319,56.8090541 31.404067,57.1190178 31.5608195,57.3777209 L31.099872,57.2330346 C31.1088348,57.2048656 31.1190781,57.1728553 31.1293214,57.1446863 Z M48.6862996,79.5096031 L48.7272727,79.759283 C47.6058559,79.5741375 46.4729792,79.4667538 45.3367478,79.4379001 C45.2087068,79.4379001 45.0985915,79.4379001 44.9987196,79.4379001 L47.2612036,76.6286812 C47.084507,78.0076825 48.6862996,79.5096031 48.6862996,79.5096031 Z" id="Shape" fill="url(#linearGradient-1)" fill-rule="nonzero"></path>
                <path d="M29.2419974,56.8028169 L39.7836108,60.1741357 C39.7836108,60.1741357 42.3879641,61.284251 41.021767,64.9539052 C39.6555698,68.6235595 35.6017926,76.1792574 35.6017926,76.1792574 L28.815621,72.7221511 C28.815621,72.7221511 35.4737516,58.3393086 29.2419974,56.8028169 Z" id="Shape" fill="#565988" fill-rule="nonzero"></path>
                <path d="M29.2419974,56.8028169 L39.7836108,60.1741357 C39.7836108,60.1741357 42.3879641,61.284251 41.021767,64.9539052 C39.6555698,68.6235595 35.6017926,76.1792574 35.6017926,76.1792574 L28.815621,72.7221511 C28.815621,72.7221511 35.4737516,58.3393086 29.2419974,56.8028169 Z" id="Shape" fill="#000000" fill-rule="nonzero" opacity="0.1"></path>
                <path d="M27.7247119,57.8886044 L38.2663252,61.2599232 C38.2663252,61.2599232 40.8706786,62.3700384 39.5044814,66.0409731 C38.1382843,69.7119078 34.084507,77.2650448 34.084507,77.2650448 L27.2983355,73.8079385 C27.2983355,73.8079385 33.9564661,59.425096 27.7247119,57.8886044 Z" id="Shape" fill="#565988" fill-rule="nonzero"></path>
                <path d="M35.6222791,41.3521127 C34.9372599,41.715749 34.4161332,42.4391805 34.0268886,43.2394366 C33.2522407,44.8309859 33.0025608,46.7298335 33.0025608,46.7298335 C33.0025608,46.7298335 23.6555698,45.5134443 26.6645327,44.1049936 C27.6743719,43.6498763 28.5685269,42.9728044 29.2804097,42.1241997 C30.0486556,41.184379 30.2496799,40.3918054 30.2496799,40.3918054 C30.2496799,40.3918054 37.6709347,40.2637644 35.6222791,41.3521127 Z" id="Shape" fill="#F899A5" fill-rule="nonzero"></path>
                <path d="M31.0614597,44.3457106 C30.4404609,43.9615877 29.9334187,43.3738796 29.2240717,43.1638924 L28.4379001,42.8540333 C27.9398207,42.6338028 26.837388,43.2035851 25.5864277,44.0627401 C21.5629891,46.8397924 18.610064,50.9091004 17.2176697,55.5953905 C16.8591549,56.793854 16.5864277,57.9871959 16.5044814,59.0268886 C16.184379,63.0601793 10.7784891,70.1664533 16.5403329,71.8898848 C22.3021767,73.6133163 26.9116517,66.3201024 26.9116517,66.3201024 L29.3841229,61.9667093 C30.2091225,60.5150632 30.8827426,58.98247 31.3943662,57.3930858 L33.2740077,51.5544174 C34.0185647,49.2818427 33.476945,46.7843197 31.8578745,45.0243278 C31.6224955,44.7650157 31.354842,44.5369509 31.0614597,44.3457106 Z" id="Shape" fill="#BDD2E8" fill-rule="nonzero"></path>
                <path d="M35.6222791,41.3521127 C34.9372599,41.715749 34.4161332,42.4391805 34.0268886,43.2394366 C32.3598855,43.8029905 30.5174891,43.370566 29.2752881,42.1241997 C30.0435339,41.184379 30.2445583,40.3918054 30.2445583,40.3918054 C30.2445583,40.3918054 37.6709347,40.2637644 35.6222791,41.3521127 Z" id="Shape" fill="#000000" fill-rule="nonzero" opacity="0.1"></path>
                <circle id="Oval" fill="#F899A5" fill-rule="nonzero" cx="32.5441741" cy="38.6171575" r="4.60947503"></circle>
                <path d="M37.1382843,34.6914213 C36.7541613,35.9961588 34.8565941,36.099872 34.4737516,37.5569782 C34.2944942,38.2394366 34.4199744,39.0832266 33.8822023,39.5403329 C33.4302177,39.9244558 32.759283,39.8117798 32.1664533,39.8258643 C31.5736236,39.8399488 30.8412292,40.2099872 30.9308579,40.7925736 C30.9667093,41.0256082 31.1318822,41.2240717 31.162612,41.4571063 C31.2112676,41.822023 30.9065301,42.15621 30.553137,42.268886 C30.1997439,42.3815621 29.8245839,42.3265045 29.4609475,42.268886 L27.0921895,41.9065301 C26.9290983,41.8637537 26.7567027,41.8731571 26.5992318,41.9334187 C26.581306,41.9423816 26.5646607,41.9539052 26.5480154,41.9641485 C26.4378787,42.0553891 26.3553981,42.1755625 26.3098592,42.3111396 C26.3093771,42.3149657 26.3093771,42.3188371 26.3098592,42.3226633 C26.0243278,43.0243278 26.0268886,43.8053777 25.9385403,44.5582586 C25.8501921,45.3111396 25.631242,46.1088348 25.0422535,46.5864277 C24.0717029,47.3738796 22.3533931,47.0985915 21.7503201,48.190781 C21.5185659,48.6120359 21.5377721,49.1216389 21.4238156,49.5877081 C21.3098592,50.0537772 20.9487836,50.5480154 20.4711908,50.4993598 C20.3175657,50.4743183 20.1699406,50.4209128 20.0358515,50.3418694 C19.3597951,50 18.6670935,49.6440461 18.1690141,49.0729834 C17.6709347,48.5019206 17.4110115,47.6568502 17.7336748,46.9705506 C18.1177977,46.1421255 19.2227913,45.765685 19.4622279,44.8809219 C19.5685019,44.4839949 19.475032,44.049936 19.5979513,43.6568502 C19.8540333,42.8476312 20.8425096,42.5928297 21.6632522,42.3764405 C22.5595391,42.1395647 23.4558259,41.7836108 24.1216389,41.1434059 C24.2014479,41.0672918 24.2771015,40.9869365 24.3482714,40.9026889 C24.5628242,40.6553161 24.7464231,40.3827124 24.8950064,40.0909091 C25.2141907,39.4485076 25.4183034,38.7551308 25.4980794,38.0422535 C25.6440461,36.8988476 25.5659411,35.737516 25.5992318,34.5851472 C25.609475,34.2087068 25.6363636,33.8169014 25.8245839,33.4903969 C26.1075544,33.0025608 26.6837388,32.7733675 27.2330346,32.6261204 C27.9238455,32.4390816 28.6332513,32.3291494 29.3482714,32.2983355 C30.0307298,32.2676056 30.7221511,32.3085787 31.396927,32.1702945 C32.4443022,31.9564661 33.4558259,31.31242 34.5044814,31.5224072 C35.6274008,31.7554417 37.5172855,33.3892446 37.1382843,34.6914213 Z" id="Shape" fill="#000000" fill-rule="nonzero" opacity="0.1"></path>
                <path d="M37.0102433,34.5633803 C36.6261204,35.8681178 34.7285531,35.971831 34.3457106,37.4289373 C34.1664533,38.1113956 34.2919334,38.9551857 33.7541613,39.4122919 C33.3021767,39.7964149 32.631242,39.6837388 32.0384123,39.6978233 C31.4455826,39.7119078 30.7131882,40.0819462 30.8028169,40.6645327 C30.8386684,40.8975672 31.0038412,41.0960307 31.0345711,41.3290653 C31.0832266,41.6939821 30.7784891,42.028169 30.425096,42.1408451 C30.0717029,42.2535211 29.6965429,42.1984635 29.3329065,42.1408451 L26.9641485,41.7784891 C26.8010573,41.7357127 26.6286617,41.7451161 26.4711908,41.8053777 C26.453265,41.8143406 26.4366197,41.8258643 26.4199744,41.8361076 C26.3098377,41.9273482 26.2273571,42.0475215 26.1818182,42.1830986 C26.1813361,42.1869247 26.1813361,42.1907962 26.1818182,42.1946223 C25.8962868,42.8962868 25.8988476,43.6773367 25.8104994,44.4302177 C25.7221511,45.1830986 25.503201,45.9807939 24.9142125,46.4583867 C23.943662,47.2458387 22.2253521,46.9705506 21.6222791,48.0627401 C21.390525,48.4839949 21.4097311,48.993598 21.2957746,49.4596671 C21.1818182,49.9257362 20.8207426,50.4199744 20.3431498,50.3713188 C20.1895247,50.3462774 20.0418996,50.2928718 19.9078105,50.2138284 C19.2317542,49.871959 18.5390525,49.5160051 18.0409731,48.9449424 C17.5428937,48.3738796 17.2829706,47.5288092 17.6056338,46.8425096 C17.9897567,46.0140845 19.0947503,45.637644 19.3341869,44.7528809 C19.4404609,44.3559539 19.346991,43.921895 19.4699104,43.5288092 C19.7259923,42.7195903 20.7144686,42.4647887 21.5352113,42.2483995 C22.4314981,42.0115237 23.3277849,41.6555698 23.993598,41.0153649 C24.0734069,40.9392508 24.1490605,40.8588955 24.2202305,40.7746479 C24.4347832,40.5272751 24.6183822,40.2546714 24.7669654,39.9628681 C25.0861497,39.3204666 25.2902625,38.6270899 25.3700384,37.9142125 C25.5160051,36.7708067 25.4379001,35.609475 25.4711908,34.4571063 C25.4814341,34.0806658 25.5083227,33.6888604 25.6965429,33.362356 C25.9795134,32.8745198 26.5556978,32.6453265 27.1049936,32.4980794 C27.7958045,32.3110406 28.5052104,32.2011085 29.2202305,32.1702945 C29.9026889,32.1395647 30.5941101,32.1805378 31.268886,32.0422535 C32.3162612,31.8284251 33.3277849,31.184379 34.3764405,31.3943662 C35.4993598,31.6274008 37.3892446,33.2612036 37.0102433,34.5633803 Z" id="Shape" fill="#503B4D" fill-rule="nonzero"></path>
                <path d="M26.425096,41.8399488 C26.3149594,41.9311894 26.2324788,42.0513628 26.1869398,42.1869398 C26.106274,42.1536492 26.0268886,42.1152369 25.9487836,42.078105 C25.6790997,41.9579193 25.4217967,41.8116855 25.1805378,41.6414853 C25.0307133,41.5227342 24.8887188,41.3944259 24.7554417,41.2573624 C24.603073,41.1088348 24.3713188,40.9475032 24.2240717,40.7733675 C24.4386244,40.5259947 24.6222234,40.253391 24.7708067,39.9615877 C24.8136769,39.9567633 24.8570676,39.9598007 24.8988476,39.9705506 C25.1190781,40.0256082 25.2419974,40.2535211 25.3533931,40.4519846 C25.6519337,40.957125 26.0119099,41.4233308 26.425096,41.8399488 Z" id="Shape" fill="#565988" fill-rule="nonzero"></path>
                <path d="M36.0294494,32.3559539 C36.5787452,32.950064 36.9411012,33.6683739 36.7541613,34.3072983 C36.3700384,35.6120359 34.4724712,35.715749 34.0896287,37.1728553 C33.9103713,37.8553137 34.0358515,38.6991037 33.4980794,39.15621 C33.0460948,39.5403329 32.3751601,39.4276569 31.7823303,39.4417414 C31.1895006,39.4558259 30.4571063,39.8258643 30.546735,40.4084507 C30.5825864,40.6414853 30.7477593,40.8399488 30.7784891,41.0729834 C30.8271447,41.4379001 30.5224072,41.7720871 30.1690141,41.8847631 C29.815621,41.9974392 29.4404609,41.9423816 29.0768246,41.8847631 L26.7080666,41.5224072 C26.5449754,41.4796308 26.3725798,41.4890342 26.2151088,41.5492958 C26.1971831,41.5582586 26.1805378,41.5697823 26.1638924,41.5800256 C26.0537558,41.6712662 25.9712752,41.7914396 25.9257362,41.9270166 C25.9252542,41.9308428 25.9252542,41.9347142 25.9257362,41.9385403 C25.6402049,42.6402049 25.6427657,43.4212548 25.5544174,44.1741357 C25.4660691,44.9270166 25.2471191,45.7247119 24.6581306,46.2023047 C23.68758,46.9897567 21.9692702,46.7144686 21.3661972,47.8066581 C21.134443,48.2279129 21.1536492,48.737516 21.0396927,49.2035851 C20.9257362,49.6696543 20.5646607,50.1638924 20.0870679,50.1152369 C19.9334428,50.0901954 19.7858177,50.0367899 19.6517286,49.9577465 C19.0896287,49.6734955 18.5172855,49.3764405 18.0524968,48.9564661 C18.5505762,49.5211268 19.2368758,49.8745198 19.9078105,50.2138284 C20.0418996,50.2928718 20.1895247,50.3462774 20.3431498,50.3713188 C20.8207426,50.4199744 21.1830986,49.9270166 21.2957746,49.4596671 C21.4084507,48.9923175 21.390525,48.4839949 21.6222791,48.0627401 C22.2253521,46.9679898 23.943662,47.2458387 24.9142125,46.4583867 C25.503201,45.9807939 25.7208707,45.177977 25.8104994,44.4302177 C25.900128,43.6824584 25.8962868,42.893726 26.1818182,42.1946223 C26.1813361,42.1907962 26.1813361,42.1869247 26.1818182,42.1830986 C26.2273571,42.0475215 26.3098377,41.9273482 26.4199744,41.8361076 C26.4366197,41.8258643 26.453265,41.8143406 26.4711908,41.8053777 C26.6286617,41.7451161 26.8010573,41.7357127 26.9641485,41.7784891 L29.3277849,42.1421255 C29.6914213,42.1984635 30.0704225,42.2535211 30.4199744,42.1421255 C30.7695262,42.0307298 31.078105,41.6952625 31.0294494,41.3303457 C30.9987196,41.0973111 30.8335467,40.8988476 30.7976953,40.6658131 C30.7080666,40.0793854 31.4379001,39.7131882 32.0332907,39.6991037 C32.6286812,39.6850192 33.2970551,39.7989757 33.7490397,39.4135723 C34.2868118,38.9564661 34.1613316,38.1126761 34.340589,37.4302177 C34.7247119,35.9679898 36.6261204,35.8693982 37.0051216,34.5646607 C37.2240717,33.8297055 36.7170294,32.9897567 36.0294494,32.3559539 Z" id="Shape" fill="#000000" fill-rule="nonzero" opacity="0.1"></path>
                <path d="M42.759283,63.1882202 L42.3854033,63.6645327 L41.9052497,64.2765685 L39.6427657,64.1485275 L39.8309859,63.3072983 L40.0486556,62.3354673 C40.0486556,62.3354673 40.7746479,57.8322663 42.3533931,59.5390525 C43.9321383,61.2458387 42.759283,63.1882202 42.759283,63.1882202 Z" id="Shape" fill="#FFCCD0" fill-rule="nonzero"></path>
                <path d="M53.6632522,80.3892446 C53.6632522,80.3892446 55.3060179,81.5198464 55.6478873,81.4135723 C55.9897567,81.3072983 55.2419974,83.6325224 54.6555698,83.7400768 C54.0691421,83.8476312 53.4289373,83.4199744 53.4289373,83.4199744 L53.6632522,80.3892446 Z" id="Shape" fill="#595C8A" fill-rule="nonzero"></path>
                <path d="M55.0294494,80.943662 L55.6478873,81.4135723 C55.6478873,81.4135723 59.53137,81.6056338 60.1293214,81.7759283 C60.4946296,81.8604452 60.8683207,81.9033981 61.2432778,81.9039693 C61.8714226,81.9132553 62.481203,82.1172611 62.9884763,82.4878361 C63.6568502,82.9884763 64.1408451,83.8079385 62.8399488,84.943662 C60.5352113,86.9603073 54.3892446,85.9795134 54.3892446,85.9795134 L53.5774648,84.6555698 L55.0294494,80.943662 Z" id="Shape" fill="#FF748E" fill-rule="nonzero"></path>
                <path d="M35.2253521,79.5569782 L44.3162612,79.3866837 C44.3162612,79.3866837 52.3828425,79.1306018 54.7298335,83.099872 C56.0819462,85.3854033 54.6171575,86.793854 53.1318822,87.581306 C52.1263176,88.0993278 51.0145114,88.3776081 49.8834827,88.3943662 C48.5318401,88.4200716 47.1847719,88.5597041 45.8565941,88.8117798 C44.2980281,89.1251062 42.7023373,89.2113597 41.1190781,89.0678617 L32.5300896,88.2996159 L35.2253521,79.5569782 Z" id="Shape" fill="#AAC9F5" fill-rule="nonzero"></path>
                <path d="M53.1318822,87.5761844 C52.126947,88.0965088 51.0149932,88.3765792 49.8834827,88.3943662 C48.5322563,88.4189265 47.1855528,88.5581373 45.8578745,88.8104994 C44.2993721,89.1243268 42.7036085,89.2105843 41.1203585,89.0665813 L35.5172855,88.574904 L32.8873239,88.3393086 L32.5390525,88.3085787 L32.6670935,87.893726 L35.2279129,79.5595391 L44.318822,79.3879641 C44.318822,79.3879641 44.6145967,79.3790013 45.1088348,79.3879641 C46.2358224,79.4166632 47.3591905,79.5279302 48.4699104,79.7208707 C50.5710627,80.0947503 52.9513444,80.8732394 54.2983355,82.4839949 C54.460318,82.676374 54.6059379,82.8819551 54.7336748,83.0985915 C56.0832266,85.3854033 54.6209987,86.793854 53.1318822,87.5761844 Z" id="Shape" fill="#000000" fill-rule="nonzero" opacity="0.05"></path>
                <path d="M48.815621,84.4519846 C48.2880922,84.0294494 47.5685019,83.9257362 46.8950064,83.9731114 C46.2215109,84.0204866 45.5633803,84.1997439 44.8924456,84.2791293 C44.3303457,84.346991 43.7618438,84.3431498 43.1984635,84.4071703 C42.2163892,84.5185659 41.2637644,84.8309859 40.2804097,84.9193342 C39.2970551,85.0076825 38.2138284,84.837388 37.5224072,84.1306018" id="Shape" fill="#000000" fill-rule="nonzero" opacity="0.1"></path>
                <path d="M45.106274,79.3879641 L42.1830986,83.1011524 C42.1830986,83.1011524 38.7119078,87.4340589 35.5172855,88.574904 C35.2644803,88.6666231 35.0045255,88.7372863 34.7400768,88.7861716 C34.4000052,88.851657 34.0517583,88.8633228 33.7080666,88.8207426 C33.3779103,88.7859787 33.0787857,88.6105172 32.8873239,88.3393086 C32.7910994,88.203004 32.7163907,88.0527229 32.6658131,87.893726 L35.2266325,79.5595391 L44.3175416,79.3879641 C44.3175416,79.3879641 44.6120359,79.3764405 45.106274,79.3879641 Z" id="Shape" fill="#000000" fill-rule="nonzero" opacity="0.1"></path>
                <path d="M54.2957746,82.4839949 L54.2804097,82.574904 L48.5057618,79.9628681 L48.4673496,79.7208707 C50.5685019,80.0947503 52.9564661,80.871959 54.2957746,82.4839949 Z" id="Shape" fill="#000000" fill-rule="nonzero" opacity="0.1"></path>
                <path d="M54.3892446,80.921895 L54.1523688,82.318822 L48.3777209,79.7067862 L48.3380282,79.4583867 C48.3380282,79.4583867 46.7925736,77.9769526 46.9628681,76.6120359 L42.0550576,82.8425096 C42.0550576,82.8425096 37.9923175,87.9167734 34.6120359,88.5275288 C34.2719642,88.5930142 33.9237173,88.60468 33.5800256,88.5620999 C30.0614597,88.0921895 35.4814341,76.4404609 35.4814341,76.4404609 L36.8975672,75.6350832 L48.5416133,69.0140845 C48.5416133,69.0140845 52.2983355,67.7746479 52.8527529,72.5774648 C53.4071703,77.3802817 53.4929577,79.1293214 53.4929577,79.1293214 L54.3892446,80.921895 Z" id="Shape" fill="#AAC9F5" fill-rule="nonzero"></path>
                <path d="M50.1715749,74.7925736 C49.9462228,74.9910371 49.8886044,75.3137004 49.7567222,75.5851472 C49.536328,75.990453 49.182588,76.3071 48.7554417,76.4814341 C48.3306665,76.6545929 47.8872439,76.7779091 47.4340589,76.8489117" id="Shape" fill="#000000" fill-rule="nonzero" opacity="0.1"></path>
                <path d="M21.5428937,57.8962868 C21.5428937,57.8962868 15.7887324,66.9487836 17.787452,72.893726 C17.787452,72.893726 19.8463508,74.9423816 21.815621,71.2522407 C23.7848912,67.5620999 21.5428937,57.8962868 21.5428937,57.8962868 Z" id="Shape" fill="#FF748E" fill-rule="nonzero"></path>
                <path d="M21.5428937,57.8962868 C21.5428937,57.8962868 15.7887324,66.9487836 17.787452,72.893726 C17.787452,72.893726 19.8463508,74.9423816 21.815621,71.2522407 C23.7848912,67.5620999 21.5428937,57.8962868 21.5428937,57.8962868 Z" id="Shape" fill="#000000" fill-rule="nonzero" opacity="0.1"></path>
                <circle id="Oval" fill="#FFCCD0" fill-rule="nonzero" cx="33.190781" cy="48.6338028" r="5.26888604"></circle>
                <path d="M34.5006402,52.5953905 C33.6952625,52.9295775 32.0870679,54.2458387 30.9052497,55.2701665 L30.871959,55.2996159 C30.4391805,55.6747759 30.0653009,56.0089629 29.8117798,56.2381562 L29.7618438,56.2829706 L29.6901408,56.346991 L29.4635083,56.5544174 L26.7323944,56.128041 C26.7323944,56.128041 23.7451985,55.0179257 25.2816901,53.9065301 C25.6889073,53.5847096 26.054118,53.2130464 26.368758,52.8002561 L26.5300896,52.5966709 C27.7976953,50.9590269 29.0371319,48.637644 29.0371319,48.637644 C29.0371319,48.637644 35.865557,52.028169 34.5006402,52.5953905 Z" id="Shape" fill="#FFCCD0" fill-rule="nonzero"></path>
                <path d="M34.6120359,88.5275288 C34.2719642,88.5930142 33.9237173,88.60468 33.5800256,88.5620999 C30.0614597,88.0921895 35.4814341,76.4404609 35.4814341,76.4404609 L36.8975672,75.6350832 L36.9385403,76.1472471 C36.9385403,76.1472471 36.7618438,79.390525 36.9385403,82.8053777 C37.0409731,84.9564661 35.6504481,87.1805378 34.6120359,88.5275288 Z" id="Shape" fill="#000000" fill-rule="nonzero" opacity="0.1"></path>
                <path d="M33.5044814,89.2548015 C33.2091154,89.5998209 32.75308,89.7625515 32.3060179,89.6824584 C24.4494238,88.2599232 22.8207426,84.0166453 22.4980794,82.6645327 C22.4105567,82.3007944 22.2896867,81.9458995 22.1370038,81.6043534 L21.9065301,81.0921895 C21.6820564,80.5872218 21.5278267,80.0538799 21.4481434,79.5070423 L21.2535211,78.1638924 C21.2075728,77.8471132 21.1088969,77.5402657 20.9615877,77.2560819 L20.5889885,76.5377721 C20.1905918,75.7733864 19.971646,74.9282556 19.9487836,74.0665813 C19.8706786,70.9577465 19.7131882,63.1754161 19.9833547,60.1011524 C20.3098592,56.3879641 25.7259923,52.4353393 26.4545455,52.5569782 C26.483471,52.5588468 26.5097072,52.5745885 26.524968,52.5992318 C26.8245839,53.1216389 27.9167734,53.6978233 27.9167734,53.6978233 C28.0742638,53.6632522 28.3597951,53.759283 28.6939821,53.9193342 C28.8578745,53.9974392 29.0345711,54.0909091 29.2138284,54.1920615 C30.0332907,54.6555698 30.900128,55.2727273 30.900128,55.2727273 L30.8668374,55.3021767 L29.8066581,56.240717 L29.7567222,56.2855314 L29.943662,56.5646607 L31.0806658,58.2637644 C32.3173375,59.7654854 33.0537563,61.6161575 33.1869398,63.5569782 L34.5838668,66.9052497 C35.4866309,69.0694052 36.0410824,71.3628377 36.2266325,73.7003841 L36.4212548,76.1472471 C36.4212548,76.1472471 36.2445583,79.390525 36.4212548,82.8053777 C36.5518566,85.4122919 34.4839949,88.1241997 33.5044814,89.2548015 Z" id="Shape" fill="#FF748E" fill-rule="nonzero"></path>
                <path d="M27.3034571,72.3700384 C27.495968,72.4597099 27.704535,72.5097834 27.9167734,72.5172855 C28.3713188,72.5172855 30.0524968,71.2816901 29.53137,71.0588988 C29.2752881,70.9526248 28.7976953,71.3597951 28.6248399,71.4929577 C28.4314981,71.6440461 27.5646607,72.4814341 27.3034571,72.3700384 Z" id="Shape" fill="#000000" fill-rule="nonzero" opacity="0.1"></path>
                <path d="M29.084507,72.6978233 C28.9359795,72.7887324 28.765685,72.9423816 28.8284251,73.1037132 C28.8727643,73.1791137 28.937588,73.2403854 29.0153649,73.2804097 C29.167354,73.38912 29.2847291,73.5393956 29.3533931,73.7131882 C29.3733766,73.7650989 29.3887998,73.8186517 29.3994878,73.8732394 C29.4327785,74.0384123 29.4340589,74.2355954 29.5710627,74.3354673 C29.6278221,73.8742286 29.6230858,73.4074952 29.5569782,72.9475032 C29.496799,72.5697823 29.4622279,72.4673496 29.084507,72.6978233 Z" id="Shape" fill="#000000" fill-rule="nonzero" opacity="0.1"></path>
                <path d="M30.8540333,74.4801536 L30.793854,75.6248399 C30.7916194,75.8749931 30.7567541,76.1237855 30.6901408,76.3649168 C30.5787452,76.7131882 30.340589,77.0051216 30.134443,77.3060179 C30.0800897,77.3716273 30.0462468,77.4517817 30.0371319,77.5364917 C30.0401357,77.6351463 30.0913316,77.726055 30.1741357,77.7797695 C30.4084507,77.950064 30.759283,77.8412292 30.9487836,77.6222791 C31.1382843,77.4033291 31.2048656,77.1101152 31.2714469,76.8245839 L31.4366197,76.0819462 C31.5096031,75.7541613 31.5902689,75.4122919 31.8104994,75.1600512 C32.1088348,74.8169014 32.6568502,74.6325224 32.7067862,74.1805378 C32.7541613,73.7720871 32.3495519,73.4699104 31.9948784,73.2612036 C31.5326504,72.9897567 31.3277849,72.7580026 31.0576184,73.3290653 C30.893726,73.6798976 30.8732394,74.106274 30.8540333,74.4801536 Z" id="Shape" fill="#000000" fill-rule="nonzero" opacity="0.1"></path>
                <path d="M24.7131882,66.1549296 C24.7131882,66.1549296 25.3533931,67.3072983 27.793854,69.9961588 C30.234315,72.6850192 33.5185659,77.4660691 37.0601793,75.4596671 C40.6017926,73.453265 41.5416133,70.4660691 41.5416133,70.4660691 L42.3956466,65.8988476 C42.3956466,65.8988476 42.4814341,61.3751601 39.3226633,64.021767 C38.6853058,64.8500095 38.2471876,65.8138697 38.0422535,66.8386684 C37.7003841,68.5454545 36.6338028,68.3316261 36.6338028,68.3316261 C36.6338028,68.3316261 35.7810499,66.6133163 34.7989757,66.1126761 C34.7989757,66.1126761 34.1446863,63.9359795 33.0627401,63.8079385 C32.7554417,63.7708067 32.3162612,63.2880922 31.8463508,62.6145967 C29.3008963,58.9692702 23.5595391,61.5646607 24.6414853,65.8770807 C24.659411,65.9692702 24.6888604,66.0614597 24.7131882,66.1549296 Z" id="Shape" fill="#000000" fill-rule="nonzero" opacity="0.1"></path>
                <path d="M42.3854033,63.6645327 L41.9052497,64.2765685 L39.6427657,64.1485275 L39.8309859,63.3072983 C41.3674776,62.1421255 42.0729834,62.793854 42.3854033,63.6645327 Z" id="Shape" fill="#000000" fill-rule="nonzero" opacity="0.1"></path>
                <path d="M24.8412292,65.8988476 C24.8412292,65.8988476 25.4814341,67.0512164 27.921895,69.7400768 C30.362356,72.4289373 33.6466069,77.2099872 37.1882202,75.2035851 C40.7298335,73.1971831 41.6696543,70.2099872 41.6696543,70.2099872 L42.5236876,65.6427657 C42.5236876,65.6427657 42.609475,61.1190781 39.4507042,63.765685 C38.8133468,64.5939276 38.3752286,65.5577878 38.1702945,66.5825864 C37.8284251,68.2893726 36.7618438,68.0755442 36.7618438,68.0755442 C36.7618438,68.0755442 35.9090909,66.3572343 34.9270166,65.8565941 C34.9270166,65.8565941 34.2727273,63.6798976 33.190781,63.5518566 C32.8834827,63.5147247 32.4443022,63.0320102 31.9743918,62.3585147 C29.4289373,58.7131882 23.68758,61.3085787 24.7695262,65.6209987 C24.787452,65.7131882 24.8169014,65.8053777 24.8412292,65.8988476 Z" id="Shape" fill="#FF748E" fill-rule="nonzero"></path>
                <path d="M32.5390525,85.6209987 L29.9513444,85.9180538 C29.2368758,85.9987196 28.5185659,86.0806658 27.8015365,86.0230474 C27.084507,85.9654289 26.3649168,85.7567222 25.8002561,85.3137004" id="Shape" fill="#000000" fill-rule="nonzero" opacity="0.1"></path>
                <path d="M32.318822,86.2932138 C31.1846642,86.8618495 29.8986719,87.0538288 28.6478873,86.8412292" id="Shape" fill="#000000" fill-rule="nonzero" opacity="0.1"></path>
                <path d="M31.5953905,87.7689805 L29.5953905,88.0316698 C29.1869398,88.0849176 28.7516005,88.1204161 28.396927,87.5595391" id="Shape" fill="#000000" fill-rule="nonzero" opacity="0.1"></path>
                <path d="M26.9641485,51.0691421 C27.1086035,50.7837585 27.341183,50.5525261 27.6274008,50.4097311 C27.4110115,50.631242 27.190781,50.8527529 26.9641485,51.0691421 Z" id="Shape" fill="#000000" fill-rule="nonzero" opacity="0.1"></path>
                <path d="M34.5006402,52.5953905 C33.6952625,52.9295775 32.0870679,54.2458387 30.9052497,55.2701665 L30.871959,55.2996159 L29.8117798,56.2381562 L29.7618438,56.2829706 L29.9487836,56.5620999 C29.8580758,56.4970148 29.7724667,56.4251031 29.6927017,56.346991 C29.5386118,56.1974547 29.4089885,56.0246236 29.3085787,55.8348271 C29.046282,55.3231369 29.0164363,54.7234249 29.2266325,54.1882202 C29.3159276,53.9477069 29.4561295,53.7293238 29.637644,53.5480154 C29.3568251,53.7339473 29.0394055,53.8575095 28.7067862,53.9103713 C28.4616844,53.9529542 28.2123929,53.9662784 27.9641485,53.950064 C27.2727273,53.9065301 26.609475,53.6747759 25.9564661,53.4455826 C26.1389159,53.2588368 26.281764,53.037161 26.3764405,52.793854 C26.4097311,52.7131882 26.4391805,52.6299616 26.4673496,52.546735 C26.4962751,52.5486036 26.5225113,52.5643453 26.5377721,52.5889885 C27.8053777,50.9513444 29.0448143,48.6299616 29.0448143,48.6299616 C29.0448143,48.6299616 35.865557,52.028169 34.5006402,52.5953905 Z" id="Shape" fill="#000000" fill-rule="nonzero" opacity="0.1"></path>
                <path d="M38.5928297,55.609475 C38.2535211,56.6107554 37.793854,57.5787452 37.5979513,58.6158771 C37.5044814,59.1165173 37.4404609,59.6862996 37.028169,59.9948784 C36.6824584,60.2509603 36.2023047,60.2317542 35.7720871,60.1728553 C35.471241,60.1491006 35.1788519,60.0618203 34.9142125,59.9167734 C34.6581306,59.7567222 34.4673496,59.4711908 34.5019206,59.1754161 C33.6919542,59.1072124 32.925108,58.7814486 32.3137004,58.2458387 C31.8898848,57.8706786 31.5377721,57.3149808 31.6850192,56.7733675 C30.7439181,56.8642766 29.7413572,56.4058899 29.3008963,55.5825864 C28.9123393,54.8297466 29.0445143,53.9132652 29.6299616,53.3008963 C29.1306553,53.6132412 28.5431691,53.7543817 27.9564661,53.7029449 C27.2650448,53.659411 26.6017926,53.4276569 25.9487836,53.1984635 C26.3751601,52.7797695 26.503201,52.162612 26.6632522,51.5915493 C26.734468,51.3246311 26.836296,51.0668386 26.9667093,50.8233035 C26.4931424,51.2939163 25.9736992,51.7159907 25.4161332,52.0832266 C24.5877081,52.6120359 23.603073,52.9615877 22.6197183,52.871959 C23.1139565,52.5979513 23.6235595,52.3111396 23.9513444,51.8565941 C24.4545455,51.15621 24.4379001,50.1766965 24.9859155,49.5083227 C25.4571063,48.9334187 26.234315,48.7195903 26.9065301,48.3815621 C27.0508044,48.307747 27.1887077,48.2220928 27.318822,48.1254802 C27.5292728,47.9767909 27.7114034,47.7916248 27.8565941,47.5787452 C28.0294494,47.3226633 28.0140845,46.9487836 28.1856594,46.7080666 C28.503201,46.2650448 29.7106274,46.6145967 30.190781,46.6747759 C31.0179257,46.7797695 31.8390952,46.9193342 32.6542894,47.0934699 C34.2719532,47.4398755 35.8569317,47.9243649 37.3918054,48.5416133 C37.7183099,48.6696543 38.0627401,48.8258643 38.2548015,49.1165173 C38.5441741,49.5544174 38.3918054,50.1113956 38.3636364,50.6440461 C38.357874,50.7408447 38.357874,50.8379004 38.3636364,50.9346991 C38.4007682,51.4814341 38.6965429,51.9743918 38.8540333,52.5006402 C39.1510883,53.5160051 38.9334187,54.609475 38.5928297,55.609475 Z" id="Shape" fill="#FFE0D1" fill-rule="nonzero"></path>
                <g id="Group" opacity="0.1" transform="translate(22.535211, 46.734955)" fill="#000000" fill-rule="nonzero">
                    <path d="M4.5659411,3.69654289 C4.09427279,4.16947278 3.5765522,4.59411518 3.02048656,4.96414853 C2.3375321,5.42099235 1.54889333,5.69518649 0.729833547,5.76056338 C0.526248399,5.89756722 0.309859155,6.01664533 0.0960307298,6.13700384 C1.0793854,6.22663252 2.06274008,5.8809219 2.89244558,5.34827145 C3.42217693,4.99798661 3.91660584,4.59704036 4.368758,4.15108835 C4.42203891,3.99447218 4.48798453,3.84245469 4.5659411,3.69654289 Z" id="Shape"></path>
                    <path d="M4.47516477,4.47247119 C4.48236376,4.46112931 4.48851616,4.44959061 4.49359795,4.43790013 C4.39682376,4.57618438 4.3161786,4.71702945 4.24475003,4.85659411 C4.16180072,5.02048656 4.08115556,5.18950064 3.99359795,5.35595391 C4.19175463,5.07042254 4.32769933,4.76568502 4.47516477,4.47247119 Z" id="Shape"></path>
                    <path d="M5.49167734,0.558898848 C5.68840981,0.398902913 5.83928498,0.231263832 5.94167734,0.0588988476 C5.73898144,0.217963657 5.58786597,0.385869739 5.49167734,0.558898848 Z" id="Shape"></path>
                    <path d="M1.8681178,4.10115237 C2.05521457,3.90012804 2.21005328,3.69270166 2.3681178,3.48783611 C2.19069844,3.6837388 2.03908554,3.8950064 1.8681178,4.10115237 Z" id="Shape"></path>
                    <path d="M15.4289373,10.5979513 C15.631242,10.021767 15.8668374,9.45326504 16.0627401,8.87451985 C16.0921895,8.78873239 16.1203585,8.70166453 16.1472471,8.6184379 C15.915493,9.28425096 15.6402049,9.9346991 15.4289373,10.5979513 Z" id="Shape"></path>
                    <path d="M7.24583867,6.16773367 C6.74438049,6.4892761 6.15034329,6.63519577 5.55697823,6.58258643 C4.91677337,6.54289373 4.29321383,6.33930858 3.6837388,6.12548015 C3.61148118,6.24920298 3.52322595,6.3628585 3.4212548,6.46350832 C4.07426376,6.69270166 4.73751601,6.92445583 5.42893726,6.96670935 C5.92167788,7.00367159 6.41553605,6.91143177 6.86171575,6.69910371 C6.95627522,6.50003419 7.08645967,6.3199457 7.24583867,6.16773367 Z" id="Shape"></path>
                    <path d="M14.6261204,12.8796415 C14.2804097,13.1357234 13.8002561,13.1177977 13.3700384,13.0576184 C13.0691852,13.0339022 12.7767882,12.9466195 12.5121639,12.8015365 C12.2560819,12.6402049 12.0653009,12.3546735 12.099872,12.0601793 C11.2899055,11.9919756 10.5230594,11.6662118 9.91165173,11.1306018 C9.48783611,10.7554417 9.13444302,10.1997439 9.28297055,9.6581306 C8.3418694,9.74903969 7.33930858,9.29065301 6.89884763,8.46606914 C6.68286451,8.05007573 6.62160702,7.57090607 6.72599232,7.11395647 C6.476311,7.669441 6.49280144,8.30832775 6.77080666,8.85019206 C7.21126761,9.67477593 8.21382843,10.1306018 9.15492958,10.0422535 C9.00640205,10.5838668 9.35979513,11.1395647 9.78361076,11.5147247 C10.3950184,12.0503347 11.1618646,12.3760985 11.971831,12.4443022 C11.9372599,12.7387964 12.1306018,13.0243278 12.3841229,13.1856594 C12.6487472,13.3307424 12.9411442,13.4180251 13.2419974,13.4417414 C13.6722151,13.5019206 14.1523688,13.5224072 14.4980794,13.2637644 C14.7541613,13.0704225 14.8822023,12.7720871 14.9564661,12.453265 C14.8847997,12.6214046 14.771029,12.7682482 14.6261204,12.8796415 Z" id="Shape"></path>
                </g>
                <path d="M38.3597951,50.6478873 C35.8745198,51.2496799 27.4903969,48.2932138 27.31242,48.2304738 C27.31242,48.1971831 27.31242,48.162612 27.31242,48.1293214 C27.5228708,47.9806321 27.7050014,47.795466 27.8501921,47.5825864 C28.0230474,47.3265045 28.0076825,46.9526248 28.1792574,46.7119078 C28.496799,46.268886 29.7042254,46.6184379 30.184379,46.6786172 C31.0115237,46.7836108 31.8326931,46.9231754 32.6478873,47.0973111 C34.2655511,47.4437167 35.8505296,47.9282061 37.3854033,48.5454545 C37.7119078,48.6734955 38.056338,48.8297055 38.2483995,49.1203585 C38.5390525,49.5582586 38.3866837,50.1152369 38.3597951,50.6478873 Z" id="Shape" fill="#000000" fill-rule="nonzero" opacity="0.1"></path>
                <path d="M38.9923175,47.5083227 L38.7362356,50.2458387 C36.8988476,51.3546735 27.4993598,48.0409731 27.3111396,47.9743918 C27.3236142,47.2526641 27.4413729,46.5366222 27.6606914,45.8489117 C27.68758,45.7644046 27.715749,45.6824584 27.7464789,45.6005122 C28.9897567,42.206146 32.4622279,41.2829706 32.4622279,41.2829706 L35.503201,41.2829706 C37.7605634,41.8399488 38.7426376,46.2112676 38.9603073,47.3354673 C38.9743918,47.4071703 38.9846351,47.4647887 38.9923175,47.5083227 Z" id="Shape" fill="#DCE6F2" fill-rule="nonzero"></path>
                <path d="M38.9923175,47.3802817 L38.7362356,50.1177977 C36.8988476,51.2266325 27.4993598,47.9129321 27.3111396,47.8463508 C27.3236142,47.1246231 27.4413729,46.4085813 27.6606914,45.7208707 C27.68758,45.6363636 27.715749,45.5544174 27.7464789,45.4724712 C27.9526248,45.4903969 28.1549296,45.5147247 28.3277849,45.5198464 C28.8906228,45.5137522 29.4524998,45.5678366 30.0038412,45.681178 C30.4111967,45.7959194 30.8117487,45.9335691 31.2035851,46.0934699 C31.9682491,46.3882839 32.7718578,46.5698831 33.5889885,46.6325224 C33.8854653,46.6349417 34.1812949,46.6606288 34.4737516,46.709347 C34.7521064,46.783098 35.0230096,46.8825435 35.2829706,47.006402 C36.3175416,47.4417414 37.4929577,47.7170294 38.5569782,47.3610755 C38.6927017,47.3162612 38.8271447,47.2599232 38.9603073,47.206146 C38.9743918,47.2791293 38.9846351,47.3367478 38.9923175,47.3802817 Z" id="Shape" fill="#000000" fill-rule="nonzero" opacity="0.1"></path>
                <path d="M39.0076825,47.3457106 L38.7362356,50.2496799 C36.8796415,51.3700384 27.3085787,47.9769526 27.3085787,47.9769526 C27.2984001,47.1698341 27.4172698,46.3662747 27.6606914,45.5966709 C27.8962868,45.6145967 28.1306018,45.6466069 28.3277849,45.6517286 C28.8904854,45.6443707 29.452361,45.6971672 30.0038412,45.809219 C30.4111967,45.9239604 30.8117487,46.0616101 31.2035851,46.2215109 C31.9682491,46.5163249 32.7718578,46.6979241 33.5889885,46.7605634 C33.8854653,46.7629827 34.1812949,46.7886698 34.4737516,46.837388 C34.7521064,46.911139 35.0230096,47.0105845 35.2829706,47.134443 C36.3175416,47.5697823 37.4929577,47.8450704 38.5569782,47.4891165 C38.7080666,47.4391805 38.8553137,47.3751601 39.0038412,47.3175416 L39.0076825,47.3457106 Z" id="Shape" fill="#DCE6F2" fill-rule="nonzero"></path>
                <path d="M39.0076825,47.3457106 L38.7362356,50.2496799 C36.8796415,51.3700384 27.3085787,47.9769526 27.3085787,47.9769526 C27.2984001,47.1698341 27.4172698,46.3662747 27.6606914,45.5966709 C27.8962868,45.6145967 28.1306018,45.6466069 28.3277849,45.6517286 C28.8904854,45.6443707 29.452361,45.6971672 30.0038412,45.809219 C30.4111967,45.9239604 30.8117487,46.0616101 31.2035851,46.2215109 C31.9682491,46.5163249 32.7718578,46.6979241 33.5889885,46.7605634 C33.8854653,46.7629827 34.1812949,46.7886698 34.4737516,46.837388 C34.7521064,46.911139 35.0230096,47.0105845 35.2829706,47.134443 C36.3175416,47.5697823 37.4929577,47.8450704 38.5569782,47.4891165 C38.7080666,47.4391805 38.8553137,47.3751601 39.0038412,47.3175416 L39.0076825,47.3457106 Z" id="Shape" fill="#000000" fill-rule="nonzero" opacity="0.05"></path>
                <path d="M55.7516005,81.5326504 C55.5838668,81.8015365 55.6145967,82.1434059 55.6069142,82.4609475 C55.5992318,82.7784891 55.5108835,83.1446863 55.2227913,83.2804097" id="Shape" fill="#000000" fill-rule="nonzero" opacity="0.1"></path>
                <ellipse id="Oval" fill="#6C63FF" fill-rule="nonzero" opacity="0.1" cx="82.9270166" cy="93.8297055" rx="3.44814341" ry="1"></ellipse>
                <ellipse id="Oval" fill="#6C63FF" fill-rule="nonzero" opacity="0.1" cx="65.4814341" cy="99.3572343" rx="3.44814341" ry="1"></ellipse>
                <ellipse id="Oval" fill="#6C63FF" fill-rule="nonzero" opacity="0.1" cx="102.306018" cy="98.1920615" rx="3.44814341" ry="1"></ellipse>
                <ellipse id="Oval" fill="#6C63FF" fill-rule="nonzero" opacity="0.1" cx="9.77464789" cy="91.765685" rx="3.44814341" ry="1"></ellipse>
                <ellipse id="Oval" fill="#6C63FF" fill-rule="nonzero" cx="72.9564661" cy="84.0371319" rx="5.14852753" ry="1"></ellipse>
                <path d="M60.6389245,18.396927 C59.8104994,19.2381562 59.7554417,20.5288092 59.7554417,20.5288092 C59.7554417,20.5288092 61.0448143,20.4558259 61.8745198,19.6145967 C62.7042254,18.7733675 62.7580026,17.4827145 62.7580026,17.4827145 C62.7580026,17.4827145 61.46863,17.5556978 60.6389245,18.396927 Z" id="Shape" fill="#6C63FF" fill-rule="nonzero" opacity="0.1"></path>
                <path d="M82.6478873,72.9807939 C83.9282971,73.4430218 85.2509603,73.0435339 85.2509603,73.0435339 C85.2509603,73.0435339 84.4903969,71.8911652 83.2023047,71.4302177 C81.9142125,70.9692702 80.6005122,71.3674776 80.6005122,71.3674776 C80.6005122,71.3674776 81.3649168,72.5185659 82.6478873,72.9807939 Z" id="Shape" fill="#6C63FF" fill-rule="nonzero"></path>
                <path d="M76.2035851,74.5121639 C74.8642766,74.7682458 73.9359795,75.7925736 73.9359795,75.7925736 C73.9359795,75.7925736 75.177977,76.3918054 76.5160051,76.1318822 C77.8540333,75.871959 78.7836108,74.8514725 78.7836108,74.8514725 C78.7836108,74.8514725 77.5403329,74.2535211 76.2035851,74.5121639 Z" id="Shape" fill="#6C63FF" fill-rule="nonzero"></path>
                <path d="M79.2535211,67.021767 C77.9142125,67.2778489 76.9859155,68.3021767 76.9859155,68.3021767 C76.9859155,68.3021767 78.2279129,68.9014085 79.5672215,68.6427657 C80.9065301,68.3841229 81.8335467,67.362356 81.8335467,67.362356 C81.8335467,67.362356 80.5928297,66.7631242 79.2535211,67.021767 Z" id="Shape" fill="#6C63FF" fill-rule="nonzero"></path>
                <path d="M50.2381562,36.8988476 C49.4084507,37.7400768 49.3546735,39.0307298 49.3546735,39.0307298 C49.3546735,39.0307298 50.6440461,38.9577465 51.4724712,38.1165173 C52.3008963,37.2752881 52.3559539,35.9846351 52.3559539,35.9846351 C52.3559539,35.9846351 51.0665813,36.0576184 50.2381562,36.8988476 Z" id="Shape" fill="#6C63FF" fill-rule="nonzero" opacity="0.1"></path>
                <path d="M43.5736236,28.7131882 C42.4801536,29.1600512 41.9231754,30.3252241 41.9231754,30.3252241 C41.9231754,30.3252241 43.1370038,30.7644046 44.2279129,30.3175416 C45.318822,29.8706786 45.8783611,28.7055058 45.8783611,28.7055058 C45.8783611,28.7055058 44.6670935,28.2676056 43.5736236,28.7131882 Z" id="Shape" fill="#6C63FF" fill-rule="nonzero" opacity="0.1"></path>
                <path d="M101.636364,39.2035851 C101.870679,40.1177977 102.732394,40.68758 102.732394,40.68758 C102.732394,40.68758 103.213828,39.7733675 102.978233,38.8591549 C102.742638,37.9449424 101.882202,37.3751601 101.882202,37.3751601 C101.882202,37.3751601 101.400768,38.2893726 101.636364,39.2035851 Z" id="Shape" fill="#6C63FF" fill-rule="nonzero" opacity="0.1"></path>
                <path d="M76.2599232,37.9026889 C76.4942382,38.8169014 77.3559539,39.3854033 77.3559539,39.3854033 C77.3559539,39.3854033 77.837388,38.4724712 77.6017926,37.5569782 C77.3661972,36.6414853 76.5044814,36.078105 76.5044814,36.078105 C76.5044814,36.078105 76.0230474,36.9871959 76.2599232,37.9026889 Z" id="Shape" fill="#6C63FF" fill-rule="nonzero" opacity="0.1"></path>
                <path d="M85.7989757,13.7234315 C86,14.5096031 86.7413572,15.0038412 86.7413572,15.0038412 C86.7413572,15.0038412 87.1536492,14.2176697 86.9526248,13.4327785 C86.7516005,12.6478873 86.0102433,12.1523688 86.0102433,12.1523688 C86.0102433,12.1523688 85.5966709,12.9372599 85.7989757,13.7234315 Z" id="Shape" fill="#6C63FF" fill-rule="nonzero" opacity="0.1"></path>
                <path d="M88.4020487,34.7976953 C88.6043534,35.5838668 89.3444302,36.078105 89.3444302,36.078105 C89.3444302,36.078105 89.7580026,35.2919334 89.5556978,34.5070423 C89.3533931,33.7221511 88.6133163,33.2266325 88.6133163,33.2266325 C88.6133163,33.2266325 88.2010243,34.0128041 88.4020487,34.7976953 Z" id="Shape" fill="#6C63FF" fill-rule="nonzero" opacity="0.1"></path>
                <path d="M93.6350832,41.8898848 C93.2355954,42.7451985 93.5390525,43.7323944 93.5390525,43.7323944 C93.5390525,43.7323944 94.4903969,43.3316261 94.8911652,42.4763124 C95.2919334,41.6209987 94.9871959,40.6338028 94.9871959,40.6338028 C94.9871959,40.6338028 94.0345711,41.0332907 93.6350832,41.8898848 Z" id="Shape" fill="#6C63FF" fill-rule="nonzero" opacity="0.1"></path>
                <path d="M83.4558259,24.7400768 C83.1126761,25.475032 83.3738796,26.3226633 83.3738796,26.3226633 C83.3738796,26.3226633 84.1920615,25.9795134 84.5352113,25.2445583 C84.8783611,24.5096031 84.6171575,23.6606914 84.6171575,23.6606914 C84.6171575,23.6606914 83.8002561,24.0051216 83.4558259,24.7400768 Z" id="Shape" fill="#6C63FF" fill-rule="nonzero" opacity="0.1"></path>
                <path d="M62.7912932,29.4443022 C62.6952625,30.6209987 63.4801536,31.6466069 63.4801536,31.6466069 C63.4801536,31.6466069 64.4225352,30.7631242 64.5198464,29.5864277 C64.6171575,28.4097311 63.8309859,27.3841229 63.8309859,27.3841229 C63.8309859,27.3841229 62.8886044,28.2676056 62.7912932,29.4443022 Z" id="Shape" fill="#6C63FF" fill-rule="nonzero" opacity="0.1"></path>
                <path d="M40.3226633,19.5300896 C41.0371319,20.4711908 42.3060179,20.709347 42.3060179,20.709347 C42.3060179,20.709347 42.418694,19.4225352 41.7042254,18.4814341 C40.9897567,17.5403329 39.7208707,17.3021767 39.7208707,17.3021767 C39.7208707,17.3021767 39.609475,18.5889885 40.3226633,19.5300896 Z" id="Shape" fill="#6C63FF" fill-rule="nonzero" opacity="0.1"></path>
                <path d="M75.0857875,82.6145967 C75.3207826,82.4227975 75.4921956,82.1643388 75.5774648,81.8732394 C75.6402049,81.5787452 75.5147247,81.2330346 75.234315,81.1190781 C74.9193342,80.9987196 74.5825864,81.2163892 74.3277849,81.4379001 C74.0729834,81.659411 73.7797695,81.9090909 73.4455826,81.8629962 C73.7951929,81.5464282 73.9527325,81.0694332 73.8604353,80.6069142 C73.8459276,80.5126914 73.8060971,80.4241792 73.7451985,80.3508323 C73.5697823,80.1638924 73.2535211,80.2445583 73.0435339,80.3918054 C72.3777209,80.8604353 72.1920615,81.7644046 72.1882202,82.5787452 C72.1216389,82.2855314 72.177977,81.9795134 72.1766965,81.6824584 C72.1754161,81.3854033 72.0921895,81.0422535 71.8386684,80.8860435 C71.6813114,80.8019609 71.5048642,80.7600547 71.3265045,80.7644046 C71.0268886,80.7541613 70.6939821,80.7836108 70.4891165,81.0025608 C70.2330346,81.2752881 70.3008963,81.731114 70.5224072,82.0268886 C70.7439181,82.3226633 71.0793854,82.5134443 71.3879641,82.7208707 C71.6363038,82.8685114 71.8481352,83.0702765 72.0076825,83.3111396 C72.0261083,83.3447122 72.0415331,83.3798466 72.0537772,83.4161332 L73.9295775,83.4161332 C74.3494153,83.2024041 74.7383568,82.9327725 75.0857875,82.6145967 Z" id="Shape" fill="#6C63FF" fill-rule="nonzero"></path>
                <path d="M118.058899,22.9462228 C123.929577,22.7234315 128.580026,17.7682458 128.444302,11.8962868 C128.306612,6.02937017 123.511298,1.34490093 117.642766,1.34443022 L117.462228,1.34443022 C114.187383,-0.358435406 110.270001,-0.27249827 107.072983,1.57234315 C105.347708,0.574150952 103.379162,0.0745896491 101.386684,0.129321383 C95.603073,0.277848912 90.9244558,5.03329065 90.865557,10.8194622 C90.8370554,13.216125 91.6099173,15.553638 93.0614597,17.4609475 C92.0887642,19.1054117 91.5716768,20.9793011 91.5633803,22.8898848 C91.5300896,28.7119078 96.1869398,33.5620999 102.006402,33.7528809 C103.413841,33.8006377 104.817038,33.5727162 106.137004,33.0819462 C108.263764,35.7541613 110.695262,39.0640205 110.212548,40.2445583 C109.609475,41.7234315 109.96927,56.7247119 110.138284,62.7451985 C110.142263,62.8489567 110.152095,62.9524076 110.167734,63.0550576 C106.181818,63.2714469 103.298335,63.9039693 103.298335,64.6504481 C103.298335,65.5761844 107.737516,66.3265045 113.213828,66.3265045 C118.690141,66.3265045 123.129321,65.5761844 123.129321,64.6504481 C123.129321,64.2996159 122.489117,63.9743918 121.404609,63.7055058 C121.694375,63.5317676 121.965911,63.3292953 122.215109,63.1011524 C122.449477,62.9095681 122.620426,62.6515828 122.705506,62.3610755 C122.768246,62.0665813 122.644046,61.7131882 122.362356,61.6056338 C122.047375,61.4852753 121.710627,61.7042254 121.455826,61.9244558 C121.201024,62.1446863 120.90781,62.396927 120.573624,62.3495519 C120.923678,62.033273 121.081302,61.5560211 120.988476,61.0934699 C120.974673,60.9990401 120.93476,60.9103453 120.873239,60.837388 C120.699104,60.6504481 120.381562,60.731114 120.172855,60.8783611 C119.507042,61.3457106 119.321383,62.2509603 119.317542,63.0640205 C119.24968,62.7708067 119.306018,62.4647887 119.304738,62.1677337 C119.303457,61.8706786 119.22023,61.5275288 118.966709,61.3713188 C118.8095,61.2868483 118.632948,61.2449173 118.454545,61.2496799 C118.15493,61.2381562 117.822023,61.268886 117.617157,61.4878361 C117.361076,61.759283 117.428937,62.2151088 117.650448,62.5121639 C117.871959,62.809219 118.207426,63 118.517286,63.206146 L118.56338,63.2381562 C117.559539,63.1293214 116.432778,63.049936 115.225352,63.0076825 C115.236876,62.9129321 115.244558,62.8169014 115.247119,62.7183099 C115.352113,56.8886044 115.644046,42.7823303 116.025608,41.106274 C116.507042,38.9859155 116.025608,26.084507 116.025608,26.084507 C116.025608,26.084507 115.974392,24.6517286 116.042254,22.8348271 C116.709558,22.9344315 117.384684,22.9717242 118.058899,22.9462228 Z M109.048656,31.4481434 C109.346401,31.2128247 109.631881,30.962389 109.903969,30.6978233 L110.212548,32.7387964 L109.048656,31.4481434 Z" id="Shape" fill="#6C63FF" fill-rule="nonzero" opacity="0.1"></path>
                <path d="M7.13828425,78.1651729 C7.13828425,78.1651729 5.34571063,72.056338 7.47503201,67.5595391 C8.38358671,65.6797476 8.6576604,63.5559011 8.25608195,61.5070423 C8.05697072,60.5358864 7.76982661,59.5848822 7.39820743,58.6658131" id="Shape" stroke="#535461" stroke-width="2"></path>
                <path d="M8.72855314,55.8245839 C8.72855314,56.5736236 7.37259923,58.7439181 7.37259923,58.7439181 C7.37259923,58.7439181 6.01664533,56.5736236 6.01664533,55.8245839 C6.01664533,55.0757112 6.62372657,54.46863 7.37259923,54.46863 C8.1214719,54.46863 8.72855314,55.0757112 8.72855314,55.8245839 Z" id="Shape" fill="#6C63FF" fill-rule="nonzero"></path>
                <path d="M10.9692702,59.971831 C10.5620999,60.5992318 8.24455826,61.6862996 8.24455826,61.6862996 C8.24455826,61.6862996 8.28681178,59.1254802 8.69270166,58.4993598 C8.95596203,58.09269 9.4161804,57.8573593 9.89999695,57.8820146 C10.3838135,57.9066699 10.817725,58.1875654 11.0382812,58.6188904 C11.2588374,59.0502155 11.2325305,59.5664416 10.9692702,59.9731114 L10.9692702,59.971831 Z" id="Shape" fill="#6C63FF" fill-rule="nonzero"></path>
                <path d="M10.8706786,67.0640205 C10.2023047,67.4007682 7.65428937,67.1690141 7.65428937,67.1690141 C7.65428937,67.1690141 8.98207426,64.9807939 9.65044814,64.6440461 C10.0827349,64.4260729 10.5984717,64.4552796 11.0033854,64.7206644 C11.4082991,64.9860491 11.6408737,65.4472937 11.6135006,65.9306516 C11.5861276,66.4140095 11.3029654,66.8460473 10.8706786,67.0640205 Z" id="Shape" fill="#6C63FF" fill-rule="nonzero"></path>
                <path d="M9.58898848,72.4033291 C8.9871959,72.8476312 6.43661972,73.0435339 6.43661972,73.0435339 C6.43661972,73.0435339 7.37516005,70.6619718 7.9731114,70.2163892 C8.36007821,69.8991951 8.89027867,69.8208839 9.35242148,70.0126636 C9.81456429,70.2044434 10.1335356,70.6351433 10.1822215,71.1331244 C10.2309074,71.6311054 10.0013948,72.1154288 9.58514725,72.3930858 L9.58898848,72.4033291 Z" id="Shape" fill="#6C63FF" fill-rule="nonzero"></path>
                <path d="M5.39820743,61.8309859 C5.9346991,62.3521127 8.43661972,62.8924456 8.43661972,62.8924456 C8.43661972,62.8924456 7.82458387,60.4071703 7.28425096,59.8860435 C6.9396696,59.5338675 6.43116816,59.3963236 5.95604078,59.5267775 C5.48091341,59.6572314 5.11394083,60.035151 4.99750523,60.5139066 C4.88106963,60.9926623 5.03349691,61.4969023 5.39564661,61.8309859 L5.39820743,61.8309859 Z" id="Shape" fill="#6C63FF" fill-rule="nonzero"></path>
                <path d="M3.97823303,68.1011524 C4.64660691,68.4379001 7.19590269,68.2048656 7.19590269,68.2048656 C7.19590269,68.2048656 5.8681178,66.0166453 5.1971831,65.6798976 C4.76466759,65.4616957 4.24859744,65.4908131 3.84337129,65.7562815 C3.43814515,66.02175 3.20532649,66.4832386 3.23261585,66.9669089 C3.25990522,67.4505793 3.5431567,67.8829505 3.97567222,68.1011524 L3.97823303,68.1011524 Z" id="Shape" fill="#6C63FF" fill-rule="nonzero"></path>
                <path d="M3.43533931,74.3841229 C4.03713188,74.8297055 6.58898848,75.0307298 6.58898848,75.0307298 C6.58898848,75.0307298 5.64916773,72.6491677 5.0524968,72.2048656 C4.66552999,71.8876714 4.13532953,71.8093602 3.67318671,72.0011399 C3.2110439,72.1929197 2.89207257,72.6236196 2.84338666,73.1216007 C2.79470075,73.6195818 3.02421336,74.1039051 3.44046095,74.3815621 L3.43533931,74.3841229 Z" id="Shape" fill="#6C63FF" fill-rule="nonzero"></path>
                <path d="M2.89244558,77.7797695 C2.89244558,77.7797695 5.08322663,77.3444302 5.66709347,76.7644046 C6.25096031,76.184379 8.87451985,75.1702945 9.16645327,75.8988476 C9.45838668,76.6274008 13.1101152,79.0883483 10.6274008,79.5236876 C8.1446863,79.9590269 4.78489117,80.1037132 4.05377721,79.8143406 C3.32266325,79.524968 2.89244558,77.7797695 2.89244558,77.7797695 Z" id="Shape" fill="#A8A8A8" fill-rule="nonzero"></path>
                <path d="M10.6274008,79.2509603 C8.14340589,79.6862996 4.78489117,79.8309859 4.05377721,79.5403329 C3.49807939,79.3201024 3.11139565,78.2599232 2.95902689,77.7644046 L2.88604353,77.7797695 C2.88604353,77.7797695 3.32394366,79.5198464 4.05377721,79.8104994 C4.78361076,80.1011524 8.14340589,79.9551857 10.6274008,79.5198464 C11.3444302,79.3918054 11.5492958,79.099872 11.4711908,78.7259923 C11.4097311,78.971831 11.1600512,79.1574904 10.6274008,79.2509603 Z" id="Shape" fill="#000000" fill-rule="nonzero" opacity="0.2"></path>
                <path d="M105.933419,72.2612036 C105.933419,72.2612036 106.636364,73.1818182 105.608195,74.5659411 C104.580026,75.950064 103.732394,77.1267606 104.071703,77.993598 C104.071703,77.993598 105.622279,75.4135723 106.888604,75.3777209 C108.15493,75.3418694 107.321383,73.8130602 105.933419,72.2612036 Z" id="Shape" fill="#6C63FF" fill-rule="nonzero"></path>
                <path d="M105.933419,72.2612036 C105.994209,72.3506607 106.04246,72.4480232 106.076825,72.5505762 C107.308579,73.9974392 107.965429,75.3482714 106.78105,75.3815621 C105.677337,75.4135723 104.348271,77.3854033 104.038412,77.8834827 C104.048273,77.9222426 104.060677,77.9603106 104.075544,77.9974392 C104.075544,77.9974392 105.62612,75.4174136 106.892446,75.3815621 C108.158771,75.3457106 107.321383,73.8130602 105.933419,72.2612036 Z" id="Shape" fill="#000000" fill-rule="nonzero" opacity="0.1"></path>
                <path d="M107.583227,73.4340589 C107.583227,73.7580026 107.47299,74.0204866 107.335195,74.0204866 C107.1974,74.0204866 107.083227,73.7580026 107.083227,73.4340589 C107.083227,73.1101152 107.224959,73.262484 107.362754,73.262484 C107.500549,73.262484 107.583227,73.1101152 107.583227,73.4340589 Z" id="Shape" fill="#FFD037" fill-rule="nonzero"></path>
                <path d="M107.68886,73.8513869 C107.404609,74.0277636 107.15749,74.1341727 107.135723,74.0889853 C107.113956,74.0437979 107.327785,73.8659635 107.612036,73.6895867 C107.896287,73.51321 107.783611,73.641484 107.805378,73.6895867 C107.827145,73.7376895 107.973111,73.6750102 107.68886,73.8513869 Z" id="Shape" fill="#FFD037" fill-rule="nonzero"></path>
                <path d="M102.21767,72.2612036 C102.21767,72.2612036 101.514725,73.1818182 102.542894,74.5659411 C103.571063,75.950064 104.418694,77.1267606 104.079385,77.993598 C104.079385,77.993598 102.527529,75.4135723 101.262484,75.3777209 C99.9974392,75.3418694 100.828425,73.8130602 102.21767,72.2612036 Z" id="Shape" fill="#6C63FF" fill-rule="nonzero"></path>
                <path d="M102.21767,72.2612036 C102.156266,72.3503016 102.107972,72.4477531 102.074264,72.5505762 C100.84251,73.9974392 100.185659,75.3482714 101.370038,75.3815621 C102.472471,75.4135723 103.796415,77.3854033 104.112676,77.8834827 C104.102232,77.9220711 104.089839,77.9601054 104.075544,77.9974392 C104.075544,77.9974392 102.523688,75.4174136 101.258643,75.3815621 C99.993598,75.3457106 100.828425,73.8130602 102.21767,72.2612036 Z" id="Shape" fill="#000000" fill-rule="nonzero" opacity="0.1"></path>
                <path d="M100.910371,73.4340589 C100.910371,73.7580026 101.020608,74.0204866 101.158403,74.0204866 C101.296198,74.0204866 101.410371,73.7580026 101.410371,73.4340589 C101.410371,73.1101152 101.268639,73.262484 101.130844,73.262484 C100.993048,73.262484 100.910371,73.1101152 100.910371,73.4340589 Z" id="Shape" fill="#FFD037" fill-rule="nonzero"></path>
                <path d="M100.459667,73.8513869 C100.743918,74.0277636 100.992318,74.1341727 101.014085,74.0889853 C101.035851,74.0437979 100.822023,73.8659635 100.537772,73.6895867 C100.253521,73.51321 100.366197,73.641484 100.34443,73.6895867 C100.322663,73.7376895 100.176697,73.6750102 100.459667,73.8513869 Z" id="Shape" fill="#FFD037" fill-rule="nonzero"></path>
                <path d="M101.134443,77.8770807 C101.134443,77.8770807 103.101152,77.815621 103.695262,77.3943662 C104.289373,76.9731114 106.71959,76.46863 106.866837,77.1446863 C107.014085,77.8207426 109.822023,80.5108835 107.601793,80.5288092 C105.381562,80.546735 102.443022,80.1830986 101.851472,79.8233035 C101.259923,79.4635083 101.134443,77.8770807 101.134443,77.8770807 Z" id="Shape" fill="#A8A8A8" fill-rule="nonzero"></path>
                <path d="M107.640205,80.2932138 C105.419974,80.3111396 102.481434,79.9475032 101.889885,79.5877081 C101.439181,79.3137004 101.259923,78.3290653 101.199744,77.8745198 L101.134443,77.8745198 C101.134443,77.8745198 101.262484,79.4596671 101.850192,79.8207426 C102.4379,80.1818182 105.380282,80.5441741 107.600512,80.5262484 C108.240717,80.5262484 108.463508,80.2932138 108.450704,79.9564661 C108.362356,80.162612 108.117798,80.2893726 107.640205,80.2932138 Z" id="Shape" fill="#000000" fill-rule="nonzero" opacity="0.2"></path>
            </g>
        </g>
    </g>
</svg>